SplineFontDB: 3.2
FontName: CPRM_Geology
FullName: CPRM Geology
FamilyName: CPRM
Weight: Regular
Copyright: Aviso Legal\nIsencao de responsabilidade. Quem usa este site o faz por sua conta e risco. A CPRM, seus parceiros, colaboradores, funcionarios e representantes nao se responsabilizam por quaisquer erros ou omissoes que possam afetar o conteudo deste site ou outro conteudo que possa ser acessado atraves dele. A CPRM, seus parceiros, colaboradores, funcionarios e representantes nao podem ser responsabilizados por quaisquer danos decorrentes do uso deste site, nem por qualquer acao tomada com base nas informacoes nele fornecidas. As informacoes contidas neste site sao fornecidas sem garantia de qualquer tipo, expressa ou implicita, e podem ser alteradas ou atualizadas sem aviso previo. A CPRM nao garante a ausencia de virus, worms ou outros elementos nocivos do computador que possam causar danos ou alteracoes no sistema de computador, nos documentos eletronicos ou nos arquivos do usuario deste site. Consequentemente, a CPRM nao responde pelos danos que tais elementos possam causar ao usuario ou a terceiros. Da mesma forma, nao se responsabiliza ou garante a disponibilidade e continuidade do acesso a este site ou que ele esteja livre de erros, correspondendo ao usuario do site, em qualquer caso, a obrigacao de fornecer ferramentas adequadas para a deteccao e desinfeccao de programas de computador prejudiciais ou lesivos. O usuario sera responsavel pelos danos e prejuizos de qualquer natureza que a CPRM venha a sofrer em decorrencia do descumprimento de qualquer uma das obrigacoes qual esteja sujeita devido as presentes condicoes. O usuario esta ciente e aceita voluntariamente que o uso de qualquer conteudo deste site ocorre, em qualquer caso, sob sua unica e exclusiva responsabilidade.\n\nLicencas CC-BY-SA 4.0\nhttps://creativecommons.org/licenses/by-nc/4.0/legalcode
Version: 1.0
ItalicAngle: 0
UnderlinePosition: 0
UnderlineWidth: 0
Ascent: 13106
Descent: 3277

StartChar: .notdef
Encoding: 65536 -1 0
Width: 16383
Flags: W
LayerCount: 2
Fore
SplineSet
12916 7683 m 1,0,-1
 16616 7683 l 1,1,2
 16597 6133 16597 6133 15658.5 5441.5 c 128,-1,3
 14720 4750 14720 4750 13427.5 4651 c 128,-1,4
 12135 4552 12135 4552 10772 4911.5 c 128,-1,5
 9409 5271 9409 5271 8542 5823 c 0,6,7
 6736 6969 6736 6969 4700.5 6735 c 128,-1,8
 2665 6501 2665 6501 1108 4687 c 1,9,-1
 803 5151 l 1,10,11
 2358 7042 2358 7042 4515.5 7333 c 128,-1,12
 6673 7624 6673 7624 8582 6460 c 0,13,14
 9276 6037 9276 6037 10413.5 5647.5 c 128,-1,15
 11551 5258 11551 5258 12696.5 5198 c 128,-1,16
 13842 5138 13842 5138 14778 5556 c 128,-1,17
 15714 5974 15714 5974 16005 7167 c 1,18,-1
 12891 7208 l 1,19,-1
 12916 7683 l 1,0,-1
EndSplineSet
Validated: 33
EndChar

StartChar: exclam
Encoding: 33 33 3
Width: 16383
Flags: W
LayerCount: 2
Fore
SplineSet
12916 7683 m 1,0,-1
 16616 7683 l 1,1,2
 16597 6133 16597 6133 15658.5 5441.5 c 128,-1,3
 14720 4750 14720 4750 13427.5 4651 c 128,-1,4
 12135 4552 12135 4552 10772 4911.5 c 128,-1,5
 9409 5271 9409 5271 8542 5823 c 0,6,7
 6736 6969 6736 6969 4700.5 6735 c 128,-1,8
 2665 6501 2665 6501 1108 4687 c 1,9,-1
 803 5151 l 1,10,11
 2358 7042 2358 7042 4515.5 7333 c 128,-1,12
 6673 7624 6673 7624 8582 6460 c 0,13,14
 9276 6037 9276 6037 10413.5 5647.5 c 128,-1,15
 11551 5258 11551 5258 12696.5 5198 c 128,-1,16
 13842 5138 13842 5138 14778 5556 c 128,-1,17
 15714 5974 15714 5974 16005 7167 c 1,18,-1
 12891 7208 l 1,19,-1
 12916 7683 l 1,0,-1
EndSplineSet
Validated: 33
EndChar

StartChar: quotedbl
Encoding: 34 34 4
Width: 16383
Flags: W
LayerCount: 2
Fore
SplineSet
4503 7683 m 1,0,-1
 4528 7208 l 1,1,-1
 1414 7167 l 1,2,3
 1704 5974 1704 5974 2640 5556 c 128,-1,4
 3576 5138 3576 5138 4721.5 5198 c 128,-1,5
 5867 5258 5867 5258 7004.5 5647.5 c 128,-1,6
 8142 6037 8142 6037 8837 6460 c 0,7,8
 10745 7624 10745 7624 12902 7333 c 128,-1,9
 15059 7042 15059 7042 16616 5151 c 1,10,-1
 16310 4687 l 1,11,12
 14753 6501 14753 6501 12717.5 6735 c 128,-1,13
 10682 6969 10682 6969 8877 5823 c 0,14,15
 8009 5271 8009 5271 6645.5 4911.5 c 128,-1,16
 5282 4552 5282 4552 3989.5 4651 c 128,-1,17
 2697 4750 2697 4750 1759 5441.5 c 128,-1,18
 821 6133 821 6133 803 7683 c 1,19,-1
 4503 7683 l 1,0,-1
EndSplineSet
Validated: 33
EndChar

StartChar: numbersign
Encoding: 35 35 5
Width: 16383
Flags: W
LayerCount: 2
Fore
SplineSet
4503 4634 m 1,0,-1
 803 4634 l 1,1,2
 821 6183 821 6183 1759 6874.5 c 128,-1,3
 2697 7566 2697 7566 3989.5 7665.5 c 128,-1,4
 5282 7765 5282 7765 6645.5 7406 c 128,-1,5
 8009 7047 8009 7047 8877 6495 c 0,6,7
 10682 5348 10682 5348 12717.5 5582 c 128,-1,8
 14753 5816 14753 5816 16310 7631 c 1,9,-1
 16616 7167 l 1,10,11
 15059 5275 15059 5275 12902 4984 c 128,-1,12
 10745 4693 10745 4693 8837 5857 c 0,13,14
 8142 6280 8142 6280 7004.5 6669.5 c 128,-1,15
 5867 7059 5867 7059 4721.5 7119 c 128,-1,16
 3576 7179 3576 7179 2640 6761 c 128,-1,17
 1704 6343 1704 6343 1414 5151 c 1,18,-1
 4528 5109 l 1,19,-1
 4503 4634 l 1,0,-1
EndSplineSet
Validated: 33
EndChar

StartChar: dollar
Encoding: 36 36 6
Width: 16383
Flags: W
LayerCount: 2
Fore
SplineSet
12916 4634 m 1,0,-1
 12891 5109 l 1,1,-1
 16005 5151 l 1,2,3
 15714 6343 15714 6343 14778 6761 c 128,-1,4
 13842 7179 13842 7179 12696.5 7119 c 128,-1,5
 11551 7059 11551 7059 10413.5 6669.5 c 128,-1,6
 9276 6280 9276 6280 8582 5857 c 0,7,8
 6673 4693 6673 4693 4515.5 4984 c 128,-1,9
 2358 5275 2358 5275 803 7167 c 1,10,-1
 1108 7631 l 1,11,12
 2665 5816 2665 5816 4700.5 5582 c 128,-1,13
 6736 5348 6736 5348 8542 6495 c 0,14,15
 9409 7047 9409 7047 10772 7406 c 128,-1,16
 12135 7765 12135 7765 13427.5 7665.5 c 128,-1,17
 14720 7566 14720 7566 15658.5 6874.5 c 128,-1,18
 16597 6183 16597 6183 16616 4634 c 1,19,-1
 12916 4634 l 1,0,-1
EndSplineSet
Validated: 33
EndChar

StartChar: percent
Encoding: 37 37 7
Width: 16383
Flags: W
LayerCount: 2
Fore
SplineSet
16073 4621 m 1,0,-1
 16034 4962 l 1,1,-1
 16005 5163 l 1,2,3
 15714 6355 15714 6355 14778 6773.5 c 128,-1,4
 13842 7192 13842 7192 12696.5 7132 c 128,-1,5
 11551 7072 11551 7072 10413.5 6682.5 c 128,-1,6
 9276 6293 9276 6293 8582 5870 c 0,7,8
 6673 4706 6673 4706 4515.5 4997.5 c 128,-1,9
 2358 5289 2358 5289 803 7181 c 1,10,-1
 1108 7644 l 1,11,12
 2665 5829 2665 5829 4700.5 5595.5 c 128,-1,13
 6736 5362 6736 5362 8542 6509 c 0,14,15
 9409 7060 9409 7060 10772 7419.5 c 128,-1,16
 12135 7779 12135 7779 13427.5 7679 c 128,-1,17
 14720 7579 14720 7579 15658.5 6887.5 c 128,-1,18
 16597 6196 16597 6196 16616 4647 c 1,19,-1
 16073 4621 l 1,0,-1
EndSplineSet
Validated: 33
EndChar

StartChar: parenleft
Encoding: 40 40 8
Width: 16383
Flags: W
LayerCount: 2
Fore
SplineSet
16376 4951 m 1,0,-1
 16397 3992 l 1,1,2
 14016 3996 14016 3996 12233.5 3996 c 128,-1,3
 10451 3996 10451 3996 8756.5 3993.5 c 128,-1,4
 7062 3991 7062 3991 5201.5 3988 c 128,-1,5
 3341 3985 3341 3985 806 3984 c 1,6,-1
 803 4959 l 1,7,8
 4793 4948 4793 4948 8350 4955 c 128,-1,9
 11907 4962 11907 4962 16376 4951 c 1,0,-1
3547 8333 m 1,10,-1
 4101 8333 l 1,11,-1
 1973 4959 l 1,12,-1
 1419 4959 l 1,13,-1
 3547 8333 l 1,10,-1
5132 8333 m 1,14,-1
 5686 8333 l 1,15,-1
 3558 4959 l 1,16,-1
 3002 4959 l 1,17,-1
 5132 8333 l 1,14,-1
6715 8333 m 1,18,-1
 7270 8333 l 1,19,-1
 5142 4959 l 1,20,-1
 4587 4959 l 1,21,-1
 6715 8333 l 1,18,-1
8299 8333 m 1,22,-1
 8854 8333 l 1,23,-1
 6726 4959 l 1,24,-1
 6171 4959 l 1,25,-1
 8299 8333 l 1,22,-1
10041 8333 m 1,26,-1
 10596 8333 l 1,27,-1
 8469 4959 l 1,28,-1
 7914 4959 l 1,29,-1
 10041 8333 l 1,26,-1
11942 8333 m 1,30,-1
 12497 8333 l 1,31,-1
 10369 4959 l 1,32,-1
 9814 4959 l 1,33,-1
 11942 8333 l 1,30,-1
14002 8333 m 1,34,-1
 14556 8333 l 1,35,-1
 12428 4959 l 1,36,-1
 11874 4959 l 1,37,-1
 14002 8333 l 1,34,-1
16062 8333 m 1,38,-1
 16616 8333 l 1,39,-1
 14488 4959 l 1,40,-1
 13934 4959 l 1,41,-1
 16062 8333 l 1,38,-1
EndSplineSet
Validated: 33
EndChar

StartChar: asterisk
Encoding: 42 42 9
Width: 16383
Flags: W
LayerCount: 2
Fore
SplineSet
8253 9091 m 1,0,-1
 8253 10386 l 1,1,-1
 7711 10386 l 1,2,-1
 8494 11089 l 1,3,-1
 9277 10386 l 1,4,-1
 8735 10386 l 1,5,-1
 8735 9084 l 1,6,7
 10910 9009 10910 9009 12573.5 8240.5 c 128,-1,8
 14237 7472 14237 7472 14411 6393 c 1,9,-1
 15830 6393 l 1,10,-1
 15830 6917 l 1,11,-1
 16510 6159 l 1,12,-1
 15830 5401 l 1,13,-1
 15830 5926 l 1,14,-1
 14412 5926 l 1,15,16
 14239 4846 14239 4846 12574.5 4077 c 128,-1,17
 10910 3308 10910 3308 8735 3233 c 1,18,-1
 8735 1931 l 1,19,-1
 9277 1931 l 1,20,-1
 8494 1228 l 1,21,-1
 7711 1931 l 1,22,-1
 8253 1931 l 1,23,-1
 8253 3227 l 1,24,25
 5661 3240 5661 3240 4401.5 4068 c 128,-1,26
 3142 4896 3142 4896 3005 5928 c 1,27,-1
 1688 5928 l 1,28,-1
 1688 5408 l 1,29,-1
 1013 6159 l 1,30,-1
 1688 6911 l 1,31,-1
 1688 6391 l 1,32,-1
 3005 6391 l 1,33,34
 3143 7422 3143 7422 4402 8249.5 c 128,-1,35
 5661 9077 5661 9077 8253 9091 c 1,0,-1
8535 8344 m 0,36,37
 6598 8344 6598 8344 5222.5 7702.5 c 128,-1,38
 3847 7061 3847 7061 3847 6159 c 0,39,40
 3847 5256 3847 5256 5222.5 4615 c 128,-1,41
 6598 3974 6598 3974 8535 3974 c 0,42,43
 10471 3974 10471 3974 11846.5 4615 c 128,-1,44
 13222 5256 13222 5256 13222 6159 c 0,45,46
 13222 7061 13222 7061 11846.5 7702.5 c 128,-1,47
 10471 8344 10471 8344 8535 8344 c 0,36,37
EndSplineSet
Validated: 1
EndChar

StartChar: comma
Encoding: 44 44 10
Width: 16383
Flags: W
LayerCount: 2
Fore
SplineSet
5795 8144 m 1,0,-1
 2908 8144 l 1,1,-1
 4352 10497 l 1,2,-1
 5795 8144 l 1,0,-1
7649 4870 m 1,3,-1
 4761 4870 l 1,4,-1
 6205 7223 l 1,5,-1
 7649 4870 l 1,3,-1
10366 8295 m 1,6,-1
 7479 8295 l 1,7,-1
 8922 10649 l 1,8,-1
 10366 8295 l 1,6,-1
12872 4797 m 1,9,-1
 9983 4797 l 1,10,-1
 11427 7150 l 1,11,-1
 12872 4797 l 1,9,-1
14568 8278 m 1,12,-1
 11679 8278 l 1,13,-1
 13123 10632 l 1,14,-1
 14568 8278 l 1,12,-1
5352 1809 m 1,15,-1
 2463 1809 l 1,16,-1
 3907 4163 l 1,17,-1
 5352 1809 l 1,15,-1
14956 1679 m 1,18,-1
 12067 1679 l 1,19,-1
 13511 4034 l 1,20,-1
 14956 1679 l 1,18,-1
10445 1669 m 1,21,-1
 7558 1669 l 1,22,-1
 9001 4022 l 1,23,-1
 10445 1669 l 1,21,-1
EndSplineSet
Validated: 1
EndChar

StartChar: hyphen
Encoding: 45 45 11
Width: 16383
Flags: W
LayerCount: 2
Fore
SplineSet
5670 8006 m 1,0,-1
 2311 8006 l 1,1,-1
 3991 10744 l 1,2,-1
 5670 8006 l 1,0,-1
5215 8225 m 1,3,-1
 3991 10373 l 1,4,-1
 2766 8225 l 1,5,-1
 5215 8225 l 1,3,-1
10257 8006 m 1,6,-1
 6898 8006 l 1,7,-1
 8578 10744 l 1,8,-1
 10257 8006 l 1,6,-1
9801 8225 m 1,9,-1
 8578 10373 l 1,10,-1
 7354 8225 l 1,11,-1
 9801 8225 l 1,9,-1
15107 8006 m 1,12,-1
 11749 8006 l 1,13,-1
 13428 10744 l 1,14,-1
 15107 8006 l 1,12,-1
14652 8225 m 1,15,-1
 13428 10373 l 1,16,-1
 12204 8225 l 1,17,-1
 14652 8225 l 1,15,-1
7937 4632 m 1,18,-1
 4579 4632 l 1,19,-1
 6258 7369 l 1,20,-1
 7937 4632 l 1,18,-1
7482 4851 m 1,21,-1
 6258 6997 l 1,22,-1
 5034 4851 l 1,23,-1
 7482 4851 l 1,21,-1
12629 4632 m 1,24,-1
 9270 4632 l 1,25,-1
 10950 7369 l 1,26,-1
 12629 4632 l 1,24,-1
12174 4851 m 1,27,-1
 10950 6997 l 1,28,-1
 9726 4851 l 1,29,-1
 12174 4851 l 1,27,-1
5670 1574 m 1,30,-1
 2311 1574 l 1,31,-1
 3991 4312 l 1,32,-1
 5670 1574 l 1,30,-1
5215 1793 m 1,33,-1
 3991 3940 l 1,34,-1
 2766 1793 l 1,35,-1
 5215 1793 l 1,33,-1
10257 1574 m 1,36,-1
 6898 1574 l 1,37,-1
 8578 4312 l 1,38,-1
 10257 1574 l 1,36,-1
9801 1793 m 1,39,-1
 8578 3940 l 1,40,-1
 7354 1793 l 1,41,-1
 9801 1793 l 1,39,-1
15107 1574 m 1,42,-1
 11749 1574 l 1,43,-1
 13428 4312 l 1,44,-1
 15107 1574 l 1,42,-1
14652 1793 m 1,45,-1
 13428 3940 l 1,46,-1
 12204 1793 l 1,47,-1
 14652 1793 l 1,45,-1
EndSplineSet
Validated: 1
EndChar

StartChar: period
Encoding: 46 46 12
Width: 16383
Flags: W
LayerCount: 2
Fore
SplineSet
8703 11547 m 1,0,-1
 9721 10026 l 1,1,2
 9720 10026 9720 10026 9774 10021 c 0,3,4
 11649 9817 11649 9817 13034 8978 c 0,5,6
 13085 8943 13085 8943 13088 8944 c 2,7,-1
 15019 9248 l 1,8,-1
 14681 7299 l 1,9,10
 14701 7257 14701 7257 14710 7235 c 0,11,12
 14934 6724 14934 6724 14925 6182 c 0,13,14
 14907 5307 14907 5307 14317 4526 c 0,15,16
 14280 4476 14280 4476 14280 4477 c 1,17,-1
 14489 2748 l 1,18,-1
 12667 3187 l 1,19,20
 12655 3179 12655 3179 12629 3167 c 0,21,22
 11385 2524 11385 2524 9815 2348 c 0,23,24
 9748 2341 9748 2341 9748 2341 c 1,25,-1
 8718 770 l 1,26,-1
 7557 2357 l 1,27,28
 7548 2357 7548 2357 7539 2358.5 c 128,-1,29
 7530 2360 7530 2360 7521 2361 c 0,30,31
 5697 2587 5697 2587 4364 3413 c 0,32,33
 4286 3459 4286 3459 4290 3460 c 1,34,-1
 2400 3238 l 1,35,-1
 2724 5178 l 1,36,37
 2706 5220 2706 5220 2698 5241 c 0,38,39
 2514 5702 2514 5702 2514 6182 c 0,40,41
 2514 7093 2514 7093 3158 7908 c 0,42,43
 3198 7954 3198 7954 3198 7957 c 2,44,-1
 3089 9648 l 1,45,-1
 4803 9199 l 1,46,47
 4799 9199 4799 9199 4901 9249 c 0,48,49
 6071 9823 6071 9823 7511 10003 c 0,50,51
 7547 10005 7547 10005 7548 10007 c 2,52,-1
 8703 11547 l 1,0,-1
8719 9212 m 256,53,54
 6681 9212 6681 9212 5169.5 8296 c 128,-1,55
 3658 7380 3658 7380 3658 6182 c 256,56,57
 3658 4984 3658 4984 5169.5 4068.5 c 128,-1,58
 6681 3153 6681 3153 8719 3153 c 256,59,60
 10757 3153 10757 3153 12269 4068.5 c 128,-1,61
 13781 4984 13781 4984 13781 6182 c 256,62,63
 13781 7380 13781 7380 12269 8296 c 128,-1,64
 10757 9212 10757 9212 8719 9212 c 256,53,54
EndSplineSet
Validated: 37
EndChar

StartChar: slash
Encoding: 47 47 13
Width: 16383
Flags: W
LayerCount: 2
Fore
SplineSet
1454 6839 m 1,0,-1
 12255 6839 l 1,1,-1
 12255 8369 l 1,2,-1
 15965 6159 l 1,3,-1
 12255 3949 l 1,4,-1
 12255 5478 l 1,5,-1
 1454 5478 l 1,6,-1
 1454 6839 l 1,0,-1
EndSplineSet
Validated: 1
EndChar

StartChar: zero
Encoding: 48 48 14
Width: 16383
Flags: W
LayerCount: 2
Fore
SplineSet
803 7130 m 1,0,-1
 12575 7130 l 1,1,-1
 12575 9312 l 1,2,-1
 16616 6159 l 1,3,-1
 12575 3006 l 1,4,-1
 12575 5187 l 1,5,-1
 803 5187 l 1,6,-1
 803 7130 l 1,0,-1
1239 6728 m 1,7,-1
 1239 5590 l 1,8,-1
 12959 5590 l 1,9,-1
 12959 3788 l 1,10,-1
 16043 6159 l 1,11,-1
 12959 8529 l 1,12,-1
 12959 6728 l 1,13,-1
 1239 6728 l 1,7,-1
EndSplineSet
Validated: 1
EndChar

StartChar: one
Encoding: 49 49 15
Width: 16383
Flags: W
LayerCount: 2
Fore
SplineSet
14534 5852 m 1,0,-1
 815 5852 l 1,1,-1
 803 6538 l 1,2,3
 2975 6538 2975 6538 4581 6538 c 128,-1,4
 6187 6538 6187 6538 7677.5 6538 c 128,-1,5
 9168 6538 9168 6538 10768.5 6538 c 128,-1,6
 12369 6538 12369 6538 14530 6538 c 1,7,-1
 13308 7128 l 1,8,-1
 13310 7725 l 1,9,-1
 16616 6215 l 1,10,-1
 13308 4592 l 1,11,-1
 13308 5157 l 1,12,-1
 14534 5852 l 1,0,-1
EndSplineSet
Validated: 1
EndChar

StartChar: two
Encoding: 50 50 16
Width: 16383
Flags: W
LayerCount: 2
Fore
SplineSet
14139 5873 m 1,0,-1
 10221 5873 l 1,1,2
 10090 5090 10090 5090 9558.5 4680.5 c 128,-1,3
 9027 4271 9027 4271 8409 4259 c 128,-1,4
 7791 4247 7791 4247 7244 4644.5 c 128,-1,5
 6697 5042 6697 5042 6536 5873 c 1,6,-1
 1351 5873 l 1,7,-1
 1338 6512 l 1,8,-1
 6548 6512 l 1,9,10
 6926 7949 6926 7949 8335 7989.5 c 128,-1,11
 9744 8030 9744 8030 10221 6512 c 1,12,-1
 14135 6512 l 1,13,-1
 12996 7062 l 1,14,-1
 12998 7619 l 1,15,-1
 16081 6211 l 1,16,-1
 12996 4699 l 1,17,-1
 12996 5224 l 1,18,-1
 14139 5873 l 1,0,-1
EndSplineSet
Validated: 33
EndChar

StartChar: three
Encoding: 51 51 17
Width: 16383
Flags: W
LayerCount: 2
Fore
SplineSet
14534 5862 m 1,0,-1
 9075 5855 l 1,1,-1
 9075 4286 l 1,2,-1
 8501 4267 l 1,3,-1
 8501 5862 l 1,4,-1
 7400 5862 l 1,5,-1
 7400 4286 l 1,6,-1
 6805 4286 l 1,7,-1
 6810 5855 l 1,8,-1
 815 5855 l 1,9,-1
 803 6548 l 1,10,-1
 6825 6548 l 1,11,-1
 6825 8050 l 1,12,-1
 7389 8051 l 1,13,-1
 7400 6522 l 1,14,-1
 8501 6535 l 1,15,-1
 8501 8051 l 1,16,-1
 9075 8051 l 1,17,-1
 9075 6539 l 1,18,-1
 14530 6521 l 1,19,-1
 13308 7137 l 1,20,-1
 13310 7735 l 1,21,-1
 16616 6224 l 1,22,-1
 13308 4603 l 1,23,-1
 13308 5166 l 1,24,-1
 14534 5862 l 1,0,-1
EndSplineSet
Validated: 1
EndChar

StartChar: four
Encoding: 52 52 18
Width: 16383
Flags: W
LayerCount: 2
Fore
SplineSet
7061 1872 m 1,0,-1
 3362 1872 l 1,1,-1
 8709 10445 l 1,2,-1
 14057 1872 l 1,3,-1
 10358 1872 l 1,4,-1
 7061 1872 l 1,0,-1
EndSplineSet
Validated: 1
EndChar

StartChar: five
Encoding: 53 53 19
Width: 16383
Flags: W
LayerCount: 2
Fore
SplineSet
4202 9801 m 1,0,1
 4349 9257 4349 9257 4692 8677 c 0,2,3
 5012 8134 5012 8134 5395 7455 c 1,4,5
 5757 6805 5757 6805 6029 6128 c 0,6,7
 6305 5444 6305 5444 6305 4691 c 0,8,9
 6305 4266 6305 4266 6139 3870 c 0,10,11
 5973 3475 5973 3475 5686 3172 c 0,12,13
 5397 2868 5397 2868 5015 2693 c 0,14,15
 4628 2517 4628 2517 4202 2517 c 0,16,17
 3774 2517 3774 2517 3396 2683 c 0,18,19
 3014 2850 3014 2850 2735 3130 c 0,20,21
 2456 3406 2456 3406 2287 3792 c 0,22,23
 2121 4172 2121 4172 2121 4597 c 0,24,25
 2121 5346 2121 5346 2376 6050 c 0,26,27
 2633 6756 2633 6756 2974 7407 c 0,28,29
 3338 8099 3338 8099 3666 8667 c 0,30,31
 4016 9273 4016 9273 4202 9801 c 1,0,1
4206 8210 m 1,32,33
 4078 7851 4078 7851 3843 7442 c 0,34,35
 3593 7007 3593 7007 3374 6589 c 0,36,37
 3142 6143 3142 6143 2969 5670 c 0,38,39
 2796 5193 2796 5193 2796 4687 c 0,40,41
 2796 4399 2796 4399 2909 4140 c 0,42,43
 3024 3881 3024 3881 3212 3694 c 0,44,45
 3404 3501 3404 3501 3660 3390 c 0,46,47
 3919 3277 3919 3277 4206 3277 c 0,48,49
 4496 3277 4496 3277 4756 3398 c 0,50,51
 5015 3516 5015 3516 5211 3721 c 0,52,53
 5405 3927 5405 3927 5517 4194 c 0,54,55
 5630 4462 5630 4462 5630 4750 c 0,56,57
 5630 5259 5630 5259 5443 5723 c 0,58,59
 5255 6188 5255 6188 5014 6620 c 0,60,61
 4775 7044 4775 7044 4537 7449 c 0,62,63
 4304 7846 4304 7846 4206 8210 c 1,32,33
8630 9801 m 1,64,65
 8773 9260 8773 9260 9118 8677 c 0,66,67
 9443 8128 9443 8128 9821 7455 c 0,68,69
 10182 6808 10182 6808 10456 6128 c 0,70,71
 10732 5437 10732 5437 10732 4691 c 0,72,73
 10732 4266 10732 4266 10566 3870 c 0,74,75
 10397 3473 10397 3473 10113 3172 c 0,76,77
 9826 2870 9826 2870 9441 2693 c 0,78,79
 9054 2517 9054 2517 8630 2517 c 0,80,81
 8202 2517 8202 2517 7823 2683 c 0,82,83
 7443 2849 7443 2849 7163 3130 c 0,84,85
 6882 3409 6882 3409 6715 3792 c 0,86,87
 6549 4168 6549 4168 6549 4597 c 0,88,89
 6549 5346 6549 5346 6804 6050 c 0,90,91
 7056 6747 7056 6747 7402 7407 c 0,92,93
 7749 8069 7749 8069 8094 8667 c 0,94,95
 8440 9267 8440 9267 8630 9801 c 1,64,65
8633 8210 m 1,96,97
 8507 7853 8507 7853 8271 7442 c 0,98,99
 8036 7036 8036 7036 7802 6589 c 0,100,101
 7567 6143 7567 6143 7397 5670 c 0,102,103
 7224 5193 7224 5193 7224 4687 c 0,104,105
 7224 4399 7224 4399 7337 4140 c 0,106,107
 7448 3884 7448 3884 7640 3694 c 1,108,109
 7827 3503 7827 3503 8088 3390 c 0,110,111
 8344 3277 8344 3277 8633 3277 c 256,112,113
 8922 3277 8922 3277 9182 3398 c 0,114,115
 9443 3516 9443 3516 9637 3721 c 0,116,117
 9830 3926 9830 3926 9944 4194 c 0,118,119
 10057 4462 10057 4462 10057 4750 c 0,120,121
 10057 5260 10057 5260 9869 5723 c 0,122,123
 9681 6191 9681 6191 9439 6620 c 0,124,125
 9192 7061 9192 7061 8964 7449 c 0,126,127
 8736 7832 8736 7832 8633 8210 c 1,96,97
13195 9801 m 1,128,129
 13340 9258 13340 9258 13684 8677 c 0,130,131
 13977 8182 13977 8182 14387 7455 c 0,132,133
 14748 6808 14748 6808 15022 6128 c 0,134,135
 15298 5437 15298 5437 15298 4691 c 0,136,137
 15298 4265 15298 4265 15131 3870 c 0,138,139
 14964 3473 14964 3473 14678 3172 c 0,140,141
 14393 2871 14393 2871 14007 2693 c 0,142,143
 13620 2517 13620 2517 13195 2517 c 0,144,145
 12767 2517 12767 2517 12388 2683 c 0,146,147
 12008 2849 12008 2849 11728 3130 c 0,148,149
 11444 3411 11444 3411 11280 3792 c 0,150,151
 11113 4171 11113 4171 11113 4597 c 0,152,153
 11113 5342 11113 5342 11368 6050 c 0,154,155
 11623 6750 11623 6750 11967 7407 c 0,156,157
 12298 8042 12298 8042 12659 8667 c 0,158,159
 13005 9267 13005 9267 13195 9801 c 1,128,129
13198 8210 m 1,160,161
 13072 7853 13072 7853 12836 7442 c 0,162,163
 12601 7036 12601 7036 12367 6589 c 0,164,165
 12134 6146 12134 6146 11961 5670 c 0,166,167
 11789 5191 11789 5191 11789 4687 c 0,168,169
 11789 4400 11789 4400 11901 4140 c 0,170,171
 12015 3880 12015 3880 12205 3694 c 1,172,173
 12392 3503 12392 3503 12653 3390 c 0,174,175
 12909 3277 12909 3277 13198 3277 c 0,176,177
 13488 3277 13488 3277 13748 3398 c 0,178,179
 14009 3516 14009 3516 14203 3721 c 0,180,181
 14396 3926 14396 3926 14510 4194 c 0,182,183
 14623 4462 14623 4462 14623 4750 c 0,184,185
 14623 5256 14623 5256 14435 5723 c 0,186,187
 14251 6181 14251 6181 14005 6620 c 0,188,189
 13758 7061 13758 7061 13530 7449 c 0,190,191
 13300 7835 13300 7835 13198 8210 c 1,160,161
EndSplineSet
Validated: 1
EndChar

StartChar: six
Encoding: 54 54 20
Width: 16383
Flags: W
LayerCount: 2
Fore
SplineSet
3999 9801 m 1,0,1
 4147 9252 4147 9252 4489 8677 c 0,2,3
 4770 8199 4770 8199 5192 7455 c 1,4,5
 5554 6805 5554 6805 5826 6128 c 0,6,7
 6102 5441 6102 5441 6102 4691 c 0,8,9
 6102 4265 6102 4265 5935 3870 c 0,10,11
 5770 3475 5770 3475 5482 3172 c 0,12,13
 5196 2870 5196 2870 4811 2693 c 0,14,15
 4424 2517 4424 2517 3999 2517 c 0,16,17
 3571 2517 3571 2517 3193 2683 c 0,18,19
 2812 2849 2812 2849 2532 3130 c 0,20,21
 2251 3409 2251 3409 2084 3792 c 0,22,23
 1917 4171 1917 4171 1917 4597 c 0,24,25
 1917 5342 1917 5342 2172 6050 c 0,26,27
 2433 6763 2433 6763 2772 7407 c 0,28,29
 3117 8068 3117 8068 3464 8667 c 0,30,31
 3814 9275 3814 9275 3999 9801 c 1,0,1
8700 9801 m 1,32,33
 8843 9260 8843 9260 9188 8677 c 0,34,35
 9550 8059 9550 8059 9890 7455 c 0,36,37
 10249 6811 10249 6811 10526 6128 c 0,38,39
 10800 5442 10800 5442 10800 4691 c 0,40,41
 10800 4259 10800 4259 10634 3870 c 0,42,43
 10466 3471 10466 3471 10182 3172 c 0,44,45
 9891 2868 9891 2868 9510 2693 c 0,46,47
 9124 2517 9124 2517 8700 2517 c 0,48,49
 8271 2517 8271 2517 7893 2683 c 0,50,51
 7511 2850 7511 2850 7232 3130 c 0,52,53
 6949 3412 6949 3412 6785 3792 c 1,54,55
 6618 4167 6618 4167 6618 4597 c 0,56,57
 6618 5350 6618 5350 6873 6050 c 0,58,59
 7130 6756 7130 6756 7471 7407 c 0,60,61
 7822 8078 7822 8078 8164 8667 c 1,62,63
 8511 9273 8511 9273 8700 9801 c 1,32,33
13398 9801 m 1,64,65
 13542 9263 13542 9263 13887 8677 c 0,66,67
 14212 8128 14212 8128 14590 7455 c 0,68,69
 14951 6808 14951 6808 15225 6128 c 0,70,71
 15501 5441 15501 5441 15501 4691 c 0,72,73
 15501 4266 15501 4266 15335 3870 c 0,74,75
 15166 3473 15166 3473 14882 3172 c 0,76,77
 14595 2870 14595 2870 14211 2693 c 0,78,79
 13824 2517 13824 2517 13398 2517 c 0,80,81
 12970 2517 12970 2517 12591 2683 c 0,82,83
 12210 2850 12210 2850 11931 3130 c 0,84,85
 11650 3409 11650 3409 11483 3792 c 0,86,87
 11317 4172 11317 4172 11317 4597 c 0,88,89
 11317 5346 11317 5346 11572 6050 c 0,90,91
 11824 6747 11824 6747 12170 7407 c 0,92,93
 12531 8096 12531 8096 12862 8667 c 0,94,95
 13208 9267 13208 9267 13398 9801 c 1,64,65
EndSplineSet
Validated: 1
EndChar

StartChar: seven
Encoding: 55 55 21
Width: 16383
Flags: W
LayerCount: 2
Fore
SplineSet
6981 1453 m 1,0,-1
 3099 1453 l 1,1,-1
 8709 10865 l 1,2,-1
 14319 1453 l 1,3,-1
 10438 1453 l 1,4,-1
 6981 1453 l 1,0,-1
3693 1815 m 1,5,-1
 13683 1815 l 1,6,-1
 8709 10112 l 1,7,-1
 3693 1815 l 1,5,-1
EndSplineSet
Validated: 1
EndChar

StartChar: nine
Encoding: 57 57 22
Width: 16383
Flags: W
LayerCount: 2
Fore
SplineSet
803 5181 m 1,0,-1
 1764 5181 l 1,1,2
 2873 5358 2873 5358 3977.5 5998 c 128,-1,3
 5082 6638 5082 6638 5302 7373 c 1,4,-1
 5537 7370 l 1,5,6
 5432 6733 5432 6733 4557 6106.5 c 128,-1,7
 3682 5480 3682 5480 2624 5181 c 1,8,-1
 2949 5181 l 1,9,10
 4058 5358 4058 5358 5163.5 5998 c 128,-1,11
 6269 6638 6269 6638 6489 7373 c 1,12,-1
 6722 7370 l 1,13,14
 6618 6733 6618 6733 5743 6106.5 c 128,-1,15
 4868 5480 4868 5480 3811 5181 c 1,16,-1
 4135 5181 l 1,17,18
 5244 5358 5244 5358 6349.5 5998 c 128,-1,19
 7455 6638 7455 6638 7675 7373 c 1,20,-1
 7909 7370 l 1,21,22
 7805 6733 7805 6733 6929 6106.5 c 128,-1,23
 6053 5480 6053 5480 4997 5181 c 1,24,-1
 5415 5181 l 1,25,26
 6524 5358 6524 5358 7629 5998 c 128,-1,27
 8734 6638 8734 6638 8953 7373 c 1,28,-1
 9188 7370 l 1,29,30
 9084 6733 9084 6733 8208.5 6106.5 c 128,-1,31
 7333 5480 7333 5480 6276 5181 c 1,32,-1
 6663 5181 l 1,33,34
 7773 5358 7773 5358 8877.5 5998 c 128,-1,35
 9982 6638 9982 6638 10201 7373 c 1,36,-1
 10436 7370 l 1,37,38
 10332 6733 10332 6733 9456.5 6106.5 c 128,-1,39
 8581 5480 8581 5480 7524 5181 c 1,40,-1
 7818 5181 l 1,41,42
 8926 5358 8926 5358 10031.5 5998 c 128,-1,43
 11137 6638 11137 6638 11356 7373 c 1,44,-1
 11591 7370 l 1,45,46
 11487 6733 11487 6733 10611.5 6106.5 c 128,-1,47
 9736 5480 9736 5480 8680 5181 c 1,48,-1
 9221 5181 l 1,49,50
 10330 5358 10330 5358 11435.5 5998 c 128,-1,51
 12541 6638 12541 6638 12761 7373 c 1,52,-1
 12995 7370 l 1,53,54
 12891 6733 12891 6733 12016 6106.5 c 128,-1,55
 11141 5480 11141 5480 10083 5181 c 1,56,-1
 10470 5181 l 1,57,58
 11580 5358 11580 5358 12685 5998 c 128,-1,59
 13790 6638 13790 6638 14009 7373 c 1,60,-1
 14244 7370 l 1,61,62
 14139 6733 14139 6733 13264 6106.5 c 128,-1,63
 12389 5480 12389 5480 11331 5181 c 1,64,-1
 11656 5181 l 1,65,66
 12765 5358 12765 5358 13870.5 5998 c 128,-1,67
 14976 6638 14976 6638 15196 7373 c 1,68,-1
 15430 7370 l 1,69,70
 15326 6733 15326 6733 14450 6106.5 c 128,-1,71
 13574 5480 13574 5480 12518 5181 c 1,72,-1
 12842 5181 l 1,73,74
 13951 5358 13951 5358 15056.5 5998 c 128,-1,75
 16162 6638 16162 6638 16381 7373 c 1,76,-1
 16616 7370 l 1,77,78
 16512 6733 16512 6733 15636.5 6106.5 c 128,-1,79
 14761 5480 14761 5480 13704 5181 c 1,80,-1
 16328 5181 l 1,81,-1
 16328 4812 l 1,82,-1
 803 4812 l 1,83,-1
 803 5181 l 1,0,-1
EndSplineSet
Validated: 1
EndChar

StartChar: colon
Encoding: 58 58 23
Width: 16383
Flags: W
LayerCount: 2
Fore
SplineSet
1612 7796 m 1,0,-1
 5958 7796 l 1,1,-1
 5958 6509 l 1,2,-1
 1612 6509 l 1,3,-1
 1612 7796 l 1,0,-1
1939 7555 m 1,4,-1
 1939 6750 l 1,5,-1
 5630 6750 l 1,6,-1
 5630 7555 l 1,7,-1
 1939 7555 l 1,4,-1
7848 7796 m 1,8,-1
 12191 7796 l 1,9,-1
 12191 6509 l 1,10,-1
 7848 6509 l 1,11,-1
 7848 7796 l 1,8,-1
8175 7555 m 1,12,-1
 8175 6750 l 1,13,-1
 11863 6750 l 1,14,-1
 11863 7555 l 1,15,-1
 8175 7555 l 1,12,-1
5227 5809 m 1,16,-1
 9571 5809 l 1,17,-1
 9571 4522 l 1,18,-1
 5227 4522 l 1,19,-1
 5227 5809 l 1,16,-1
5555 5568 m 1,20,-1
 5555 4762 l 1,21,-1
 9243 4762 l 1,22,-1
 9243 5568 l 1,23,-1
 5555 5568 l 1,20,-1
11461 5809 m 1,24,-1
 15807 5809 l 1,25,-1
 15807 4522 l 1,26,-1
 11461 4522 l 1,27,-1
 11461 5809 l 1,24,-1
11789 5568 m 1,28,-1
 11789 4762 l 1,29,-1
 15479 4762 l 1,30,-1
 15479 5568 l 1,31,-1
 11789 5568 l 1,28,-1
EndSplineSet
Validated: 1
EndChar

StartChar: semicolon
Encoding: 59 59 24
Width: 16383
Flags: W
LayerCount: 2
Fore
SplineSet
1612 7796 m 1,0,-1
 5958 7796 l 1,1,-1
 5958 6509 l 1,2,-1
 1612 6509 l 1,3,-1
 1612 7796 l 1,0,-1
7848 7796 m 1,4,-1
 12191 7796 l 1,5,-1
 12191 6509 l 1,6,-1
 7848 6509 l 1,7,-1
 7848 7796 l 1,4,-1
5227 5809 m 1,8,-1
 9571 5809 l 1,9,-1
 9571 4522 l 1,10,-1
 5227 4522 l 1,11,-1
 5227 5809 l 1,8,-1
11461 5809 m 1,12,-1
 15807 5809 l 1,13,-1
 15807 4522 l 1,14,-1
 11461 4522 l 1,15,-1
 11461 5809 l 1,12,-1
EndSplineSet
Validated: 1
EndChar

StartChar: less
Encoding: 60 60 25
Width: 16383
Flags: W
LayerCount: 2
Fore
SplineSet
803 6008 m 1,0,-1
 6984 6008 l 1,1,-1
 8623 7938 l 1,2,-1
 10261 6008 l 1,3,-1
 16616 6008 l 1,4,-1
 16616 5398 l 1,5,-1
 803 5398 l 1,6,-1
 803 6008 l 1,0,-1
803 4990 m 1,7,8
 3374 4990 3374 4990 5195.5 4990 c 128,-1,9
 7017 4990 7017 4990 8692 4990 c 128,-1,10
 10367 4990 10367 4990 12197 4990 c 128,-1,11
 14027 4990 14027 4990 16616 4990 c 1,12,-1
 16616 4379 l 1,13,-1
 803 4379 l 1,14,-1
 803 4990 l 1,7,8
EndSplineSet
Validated: 1
EndChar

StartChar: equal
Encoding: 61 61 26
Width: 16383
Flags: W
LayerCount: 2
Fore
SplineSet
803 5499 m 1,0,-1
 6984 5499 l 1,1,-1
 8623 7429 l 1,2,-1
 10261 5499 l 1,3,-1
 16616 5499 l 1,4,-1
 16616 4888 l 1,5,-1
 803 4888 l 1,6,-1
 803 5499 l 1,0,-1
EndSplineSet
Validated: 1
EndChar

StartChar: greater
Encoding: 62 62 27
Width: 16383
Flags: W
LayerCount: 2
Fore
SplineSet
803 7243 m 1,0,-1
 6984 7243 l 1,1,-1
 8623 9174 l 1,2,-1
 10261 7243 l 1,3,-1
 16616 7243 l 1,4,-1
 16616 6633 l 1,5,-1
 803 6633 l 1,6,-1
 803 7243 l 1,0,-1
803 5075 m 1,7,-1
 803 5685 l 1,8,-1
 16616 5685 l 1,9,-1
 16616 5075 l 1,10,-1
 10261 5075 l 1,11,-1
 8623 3144 l 1,12,-1
 6984 5075 l 1,13,-1
 803 5075 l 1,7,-1
EndSplineSet
Validated: 1
EndChar

StartChar: at
Encoding: 64 64 28
Width: 16383
Flags: W
LayerCount: 2
Fore
SplineSet
803 5845 m 1,0,-1
 803 5863 l 1,1,-1
 803 6455 l 1,2,-1
 803 6473 l 1,3,-1
 7194 6473 l 1,4,-1
 8623 8613 l 1,5,-1
 10050 6473 l 1,6,-1
 16616 6473 l 1,7,-1
 16616 6455 l 1,8,-1
 16616 5863 l 1,9,-1
 16616 5845 l 1,10,-1
 10050 5845 l 1,11,-1
 8623 3704 l 1,12,-1
 7194 5845 l 1,13,-1
 803 5845 l 1,0,-1
EndSplineSet
Validated: 1
EndChar

StartChar: A
Encoding: 65 65 29
Width: 16383
Flags: W
LayerCount: 2
Fore
SplineSet
803 5499 m 1,0,-1
 6984 5499 l 1,1,-1
 8623 7429 l 1,2,-1
 10261 5499 l 1,3,-1
 16616 5499 l 1,4,-1
 16616 4888 l 1,5,-1
 803 4888 l 1,6,-1
 803 5499 l 1,0,-1
9714 5489 m 1,7,-1
 8616 6726 l 1,8,-1
 7516 5489 l 1,9,-1
 9714 5489 l 1,7,-1
EndSplineSet
Validated: 1
EndChar

StartChar: B
Encoding: 66 66 30
Width: 16383
Flags: W
LayerCount: 2
Fore
SplineSet
803 5499 m 1,0,1
 3405 5499 3405 5499 5179.5 5499 c 128,-1,2
 6954 5499 6954 5499 8550.5 5499 c 128,-1,3
 10147 5499 10147 5499 11888.5 5499 c 128,-1,4
 13630 5499 13630 5499 16167 5499 c 1,5,6
 16133 5736 16133 5736 16050 5978 c 0,7,8
 15915 6366 15915 6366 15632 6795 c 1,9,-1
 16248 6795 l 1,10,11
 16498 6406 16498 6406 16623 6006 c 0,12,13
 16749 5602 16749 5602 16749 5193 c 0,14,15
 16749 4782 16749 4782 16623 4380 c 0,16,17
 16499 3982 16499 3982 16248 3591 c 1,18,-1
 15632 3591 l 1,19,20
 15916 4022 15916 4022 16050 4411 c 0,21,22
 16134 4651 16134 4651 16167 4888 c 1,23,-1
 803 4888 l 1,24,-1
 803 5499 l 1,0,1
EndSplineSet
Validated: 1
EndChar

StartChar: C
Encoding: 67 67 31
Width: 16383
Flags: W
LayerCount: 2
Fore
SplineSet
808 6796 m 1,0,-1
 1394 6810 l 1,1,-1
 1394 5597 l 1,2,-1
 6002 5597 l 1,3,4
 6445 6475 6445 6475 7071 7032.5 c 128,-1,5
 7697 7590 7697 7590 8732 7581 c 0,6,7
 9901 7569 9901 7569 10579.5 6921.5 c 128,-1,8
 11258 6274 11258 6274 11487 5597 c 1,9,-1
 15994 5597 l 1,10,-1
 15994 6811 l 1,11,-1
 16622 6811 l 1,12,-1
 16595 3593 l 1,13,-1
 15994 3593 l 1,14,-1
 15994 4988 l 1,15,-1
 1394 4988 l 1,16,-1
 1394 3614 l 1,17,-1
 822 3614 l 1,18,-1
 808 6796 l 1,0,-1
EndSplineSet
Validated: 33
EndChar

StartChar: D
Encoding: 68 68 32
Width: 16383
Flags: W
LayerCount: 2
Fore
SplineSet
980 5509 m 1,0,-1
 6161 5509 l 1,1,2
 6579 6339 6579 6339 7172.5 6867 c 128,-1,3
 7766 7395 7766 7395 8746 7386 c 0,4,5
 9852 7375 9852 7375 10495 6762 c 128,-1,6
 11138 6149 11138 6149 11356 5509 c 1,7,-1
 16439 5509 l 1,8,-1
 16439 4931 l 1,9,-1
 980 4931 l 1,10,-1
 980 5509 l 1,0,-1
EndSplineSet
Validated: 33
EndChar

StartChar: J
Encoding: 74 74 33
Width: 16383
Flags: W
LayerCount: 2
Fore
SplineSet
803 6463 m 1,0,1
 2223 6463 2223 6463 3375 6463 c 128,-1,2
 4527 6463 4527 6463 5517 6463 c 1,3,4
 5716 7090 5716 7090 6614 7514.5 c 128,-1,5
 7512 7939 7512 7939 8709 7939 c 0,6,7
 9905 7939 9905 7939 10803.5 7514.5 c 128,-1,8
 11702 7090 11702 7090 11901 6463 c 1,9,10
 12889 6463 12889 6463 14042.5 6463 c 128,-1,11
 15196 6463 15196 6463 16616 6463 c 1,12,-1
 16616 5854 l 1,13,-1
 11901 5854 l 1,14,15
 11702 5227 11702 5227 10803.5 4802.5 c 128,-1,16
 9905 4378 9905 4378 8709 4378 c 0,17,18
 7512 4378 7512 4378 6614 4802.5 c 128,-1,19
 5716 5227 5716 5227 5517 5854 c 1,20,-1
 803 5854 l 1,21,-1
 803 6463 l 1,0,1
EndSplineSet
Validated: 1
EndChar

StartChar: K
Encoding: 75 75 34
Width: 16383
Flags: W
LayerCount: 2
Fore
SplineSet
11119 3897 m 1,0,-1
 16616 3897 l 1,1,-1
 16616 3235 l 1,2,-1
 8621 3235 l 1,3,-1
 8621 3235 l 1,4,5
 8606 3235 8606 3235 8592 3235 c 128,-1,6
 8578 3235 8578 3235 8565 3235 c 0,7,8
 6895 3235 6895 3235 5709.5 4093 c 128,-1,9
 4524 4951 4524 4951 4524 6159 c 0,10,11
 4524 7539 4524 7539 6009 8421 c 1,12,-1
 803 8421 l 1,13,-1
 803 9082 l 1,14,-1
 8565 9082 l 1,15,-1
 8798 9082 l 1,16,-1
 8798 9077 l 1,17,18
 10385 9010 10385 9010 11494.5 8166.5 c 128,-1,19
 12604 7323 12604 7323 12604 6159 c 0,20,21
 12604 4777 12604 4777 11119 3897 c 1,0,-1
8565 8413 m 0,22,23
 7210 8413 7210 8413 6311.5 7775.5 c 128,-1,24
 5413 7138 5413 7138 5413 6159 c 0,25,26
 5413 5178 5413 5178 6311.5 4541 c 128,-1,27
 7210 3904 7210 3904 8565 3904 c 0,28,29
 9918 3904 9918 3904 10816.5 4541 c 128,-1,30
 11715 5178 11715 5178 11715 6159 c 0,31,32
 11715 7138 11715 7138 10816.5 7775.5 c 128,-1,33
 9918 8413 9918 8413 8565 8413 c 0,22,23
EndSplineSet
Validated: 1
EndChar

StartChar: L
Encoding: 76 76 35
Width: 16383
Flags: W
LayerCount: 2
Fore
SplineSet
16616 4478 m 1,0,1
 15596 3722 15596 3722 14011 3113.5 c 128,-1,2
 12426 2505 12426 2505 10817 2390.5 c 128,-1,3
 9208 2276 9208 2276 7846.5 2829.5 c 128,-1,4
 6485 3383 6485 3383 5912 4953 c 1,5,6
 5038 6370 5038 6370 4409.5 7112.5 c 128,-1,7
 3781 7855 3781 7855 3227.5 8202.5 c 128,-1,8
 2674 8550 2674 8550 2110.5 8641.5 c 128,-1,9
 1547 8733 1547 8733 803 8848 c 1,10,11
 2302 9672 2302 9672 4199.5 9881 c 128,-1,12
 6097 10090 6097 10090 7558 9643 c 1,13,14
 8649 9363 8649 9363 9418.5 8505.5 c 128,-1,15
 10188 7648 10188 7648 11091.5 6739.5 c 128,-1,16
 11995 5831 11995 5831 13262 5134 c 128,-1,17
 14529 4437 14529 4437 16616 4478 c 1,0,1
EndSplineSet
Validated: 33
EndChar

StartChar: M
Encoding: 77 77 36
Width: 16383
Flags: W
LayerCount: 2
Fore
SplineSet
16616 4478 m 1,0,1
 15596 3722 15596 3722 14011 3113.5 c 128,-1,2
 12426 2505 12426 2505 10817 2390.5 c 128,-1,3
 9208 2276 9208 2276 7846.5 2829.5 c 128,-1,4
 6485 3383 6485 3383 5912 4953 c 1,5,6
 5038 6370 5038 6370 4409.5 7112.5 c 128,-1,7
 3781 7855 3781 7855 3227.5 8202.5 c 128,-1,8
 2674 8550 2674 8550 2110.5 8641.5 c 128,-1,9
 1547 8733 1547 8733 803 8848 c 1,10,11
 2302 9672 2302 9672 4199.5 9881 c 128,-1,12
 6097 10090 6097 10090 7558 9643 c 1,13,14
 8649 9363 8649 9363 9418.5 8505.5 c 128,-1,15
 10188 7648 10188 7648 11091.5 6739.5 c 128,-1,16
 11995 5831 11995 5831 13262 5134 c 128,-1,17
 14529 4437 14529 4437 16616 4478 c 1,0,1
14426 4089 m 1,18,19
 12866 4276 12866 4276 11994.5 4927 c 128,-1,20
 11123 5578 11123 5578 10544 6349.5 c 128,-1,21
 9965 7121 9965 7121 9481 7839.5 c 128,-1,22
 8997 8558 8997 8558 8213 8881 c 1,23,24
 7172 9366 7172 9366 5736 9408.5 c 128,-1,25
 4300 9451 4300 9451 3096 8993 c 1,26,27
 4182 8667 4182 8667 4836.5 8259.5 c 128,-1,28
 5491 7852 5491 7852 6499 5557 c 1,29,30
 6762 4328 6762 4328 7719 3773.5 c 128,-1,31
 8676 3219 8676 3219 9886.5 3137 c 128,-1,32
 11097 3055 11097 3055 12341.5 3343.5 c 128,-1,33
 13586 3632 13586 3632 14426 4089 c 1,18,19
EndSplineSet
Validated: 33
EndChar

StartChar: N
Encoding: 78 78 37
Width: 16383
Flags: W
LayerCount: 2
Fore
SplineSet
16616 6253 m 1,0,1
 13301 4071 13301 4071 10974.5 3571.5 c 128,-1,2
 8648 3072 8648 3072 6884.5 3435.5 c 128,-1,3
 5121 3799 5121 3799 3707 4616 c 128,-1,4
 2293 5433 2293 5433 803 5885 c 1,5,6
 3733 7850 3733 7850 5745.5 8520.5 c 128,-1,7
 7758 9191 7758 9191 9440.5 9013 c 128,-1,8
 11123 8835 11123 8835 12770 8033 c 128,-1,9
 14417 7231 14417 7231 16616 6253 c 1,0,1
EndSplineSet
Validated: 33
EndChar

StartChar: O
Encoding: 79 79 38
Width: 16383
Flags: W
LayerCount: 2
Fore
SplineSet
16616 6253 m 1,0,1
 13301 4071 13301 4071 10974.5 3571.5 c 128,-1,2
 8648 3072 8648 3072 6885 3435.5 c 128,-1,3
 5122 3799 5122 3799 3708 4616 c 128,-1,4
 2294 5433 2294 5433 803 5885 c 1,5,6
 3733 7850 3733 7850 5745.5 8520.5 c 128,-1,7
 7758 9191 7758 9191 9440.5 9013 c 128,-1,8
 11123 8835 11123 8835 12770 8033 c 128,-1,9
 14417 7231 14417 7231 16616 6253 c 1,0,1
15001 6234 m 1,10,11
 13251 7012 13251 7012 11940.5 7650.5 c 128,-1,12
 10630 8289 10630 8289 9291.5 8430.5 c 128,-1,13
 7953 8572 7953 8572 6351.5 8038.5 c 128,-1,14
 4750 7505 4750 7505 2418 5941 c 1,15,16
 3604 5582 3604 5582 4729 4931.5 c 128,-1,17
 5854 4281 5854 4281 7257.5 3991.5 c 128,-1,18
 8661 3702 8661 3702 10512 4099.5 c 128,-1,19
 12363 4497 12363 4497 15001 6234 c 1,10,11
EndSplineSet
Validated: 33
EndChar

StartChar: P
Encoding: 80 80 39
Width: 16383
Flags: W
LayerCount: 2
Fore
SplineSet
7302 1356 m 1,0,1
 7060 1152 7060 1152 6518 1235.5 c 128,-1,2
 5976 1319 5976 1319 5490 1557.5 c 128,-1,3
 5004 1796 5004 1796 4751.5 2123.5 c 128,-1,4
 4499 2451 4499 2451 4836 2738 c 0,5,6
 5829 3581 5829 3581 6940 4302 c 128,-1,7
 8051 5023 8051 5023 8171 5656 c 1,8,9
 8238 5887 8238 5887 8214 6144 c 128,-1,10
 8190 6401 8190 6401 8163 6661 c 1,11,12
 7974 7577 7974 7577 6691.5 8387.5 c 128,-1,13
 5409 9198 5409 9198 4849 10045 c 0,14,15
 4513 10552 4513 10552 5247 10895 c 128,-1,16
 5981 11238 5981 11238 6839 11031 c 1,17,18
 8812 10435 8812 10435 10604 9241 c 128,-1,19
 12396 8047 12396 8047 12705 6661 c 0,20,21
 12826 6119 12826 6119 12681 5656 c 1,22,23
 12488 4523 12488 4523 10870.5 3404.5 c 128,-1,24
 9253 2286 9253 2286 7302 1356 c 1,0,1
7323 2042 m 1,25,26
 8895 2791 8895 2791 10322 3815.5 c 128,-1,27
 11749 4840 11749 4840 11905 5754 c 1,28,29
 12009 6157 12009 6157 11925 6563 c 0,30,31
 11688 7683 11688 7683 10045 8859.5 c 128,-1,32
 8402 10036 8402 10036 6812 10516 c 1,33,34
 6120 10682 6120 10682 5771.5 10348.5 c 128,-1,35
 5423 10015 5423 10015 6318 9445 c 0,36,37
 7008 9004 7008 9004 8029 8152.5 c 128,-1,38
 9050 7301 9050 7301 9202 6563 c 1,39,40
 9296 6130 9296 6130 9209 5754 c 1,41,42
 9112 5244 9112 5244 7755.5 4324 c 128,-1,43
 6399 3404 6399 3404 5598 2724 c 0,44,45
 5055 2262 5055 2262 5994.5 1988.5 c 128,-1,46
 6934 1715 6934 1715 7323 2042 c 1,25,26
EndSplineSet
Validated: 33
EndChar

StartChar: Q
Encoding: 81 81 40
Width: 16383
Flags: W
LayerCount: 2
Fore
SplineSet
8919 7683 m 1,0,-1
 9007 7683 l 1,1,2
 9738 8737 9738 8737 10421 9168 c 0,3,4
 11323 9735 11323 9735 12550 9735 c 0,5,6
 14326 9735 14326 9735 15469 8700 c 1,7,8
 16616 7671 16616 7671 16616 5959 c 0,9,10
 16616 4407 16616 4407 15731 3522 c 0,11,12
 14841 2634 14841 2634 13491 2634 c 0,13,14
 12469 2634 12469 2634 11605 3107 c 1,15,16
 10747 3582 10747 3582 9793 4877 c 1,17,-1
 9697 4877 l 1,18,19
 8758 3213 8758 3213 7909 2677 c 0,20,21
 7065 2140 7065 2140 5784 2140 c 0,22,23
 3750 2140 3750 2140 2279 3418 c 0,24,25
 803 4697 803 4697 803 6532 c 0,26,27
 803 8153 803 8153 1939 9164 c 0,28,29
 3074 10178 3074 10178 4780 10178 c 0,30,31
 7432 10178 7432 10178 8919 7683 c 1,0,-1
10066 5561 m 1,32,33
 10670 4695 10670 4695 11417 4314 c 0,34,35
 12164 3931 12164 3931 13136 3931 c 0,36,37
 14397 3931 14397 3931 15118 4521 c 0,38,39
 15837 5109 15837 5109 15837 6108 c 256,40,41
 15837 7107 15837 7107 15174 7712 c 0,42,43
 14510 8313 14510 8313 13440 8313 c 0,44,45
 12408 8313 12408 8313 11709 7806 c 0,46,47
 11006 7295 11006 7295 10066 5561 c 1,32,33
8606 6955 m 1,48,49
 7918 7923 7918 7923 7223 8323 c 1,50,51
 6224 8890 6224 8890 4898 8890 c 0,52,53
 3390 8890 3390 8890 2481 8156 c 0,54,55
 1581 7425 1581 7425 1581 6261 c 0,56,57
 1581 5059 1581 5059 2466 4309 c 0,58,59
 3352 3562 3352 3562 4769 3562 c 0,60,61
 6065 3562 6065 3562 6791 4235 c 0,62,63
 7514 4902 7514 4902 8606 6955 c 1,48,49
EndSplineSet
Validated: 1
EndChar

StartChar: R
Encoding: 82 82 41
Width: 16383
Flags: W
LayerCount: 2
Fore
SplineSet
13232 2913 m 1,0,1
 11475 2370 11475 2370 9563 2099 c 128,-1,2
 7651 1828 7651 1828 5988 2233 c 0,3,4
 3798 2767 3798 2767 4266.5 3835 c 128,-1,5
 4735 4903 4735 4903 7566 5202 c 1,6,7
 8369 5312 8369 5312 9954 5358.5 c 128,-1,8
 11539 5405 11539 5405 11930 6205 c 0,9,10
 12096 6547 12096 6547 11710 6885.5 c 128,-1,11
 11324 7224 11324 7224 10127.5 7414 c 128,-1,12
 8931 7604 8931 7604 6794.5 7573.5 c 128,-1,13
 4658 7543 4658 7543 1324 7146 c 1,14,-1
 1344 7498 l 1,15,16
 1707 7558 1707 7558 2083 7621.5 c 128,-1,17
 2459 7685 2459 7685 2519 7694 c 0,18,19
 8534 8575 8534 8575 10667.5 7822 c 128,-1,20
 12801 7069 12801 7069 12589 6162 c 0,21,22
 12447 5556 12447 5556 11812 5271.5 c 128,-1,23
 11177 4987 11177 4987 10374 4870 c 128,-1,24
 9571 4753 9571 4753 8762 4727 c 128,-1,25
 7953 4701 7953 4701 7463 4611 c 1,26,27
 5160 4294 5160 4294 5016.5 3678.5 c 128,-1,28
 4873 3063 4873 3063 6652 2739 c 0,29,30
 8092 2475 8092 2475 9784 2695.5 c 128,-1,31
 11476 2916 11476 2916 13004 3405 c 1,32,33
 14181 3777 14181 3777 14841 4767.5 c 128,-1,34
 15501 5758 15501 5758 15239.5 6826.5 c 128,-1,35
 14978 7895 14978 7895 13593.5 8770.5 c 128,-1,36
 12209 9646 12209 9646 9297 9787 c 0,37,38
 8154 9842 8154 9842 6757 9808.5 c 128,-1,39
 5360 9775 5360 9775 3684 9499 c 1,40,41
 3310 9461 3310 9461 2639.5 9270.5 c 128,-1,42
 1969 9080 1969 9080 1425 8924 c 1,43,-1
 1451 9356 l 1,44,45
 1863 9496 1863 9496 2279 9622.5 c 128,-1,46
 2695 9749 2695 9749 2920 9800 c 1,47,48
 8889 10781 8889 10781 11863.5 10022.5 c 128,-1,49
 14838 9264 14838 9264 15690.5 7857.5 c 128,-1,50
 16543 6451 16543 6451 15710 4942 c 128,-1,51
 14877 3433 14877 3433 13232 2913 c 1,0,1
EndSplineSet
Validated: 33
EndChar

StartChar: S
Encoding: 83 83 42
Width: 16383
Flags: W
LayerCount: 2
Fore
SplineSet
10516 7094 m 1,0,-1
 7784 7094 l 1,1,-1
 7166 4745 l 1,2,-1
 9874 4745 l 1,3,-1
 10516 7094 l 1,0,-1
13018 3794 m 1,4,-1
 10749 3794 l 1,5,-1
 10217 1680 l 1,6,-1
 9035 1680 l 1,7,-1
 9596 3794 l 1,8,-1
 6932 3794 l 1,9,-1
 6367 1680 l 1,10,-1
 5144 1680 l 1,11,-1
 5682 3794 l 1,12,-1
 3510 3794 l 1,13,-1
 3596 4706 l 1,14,-1
 5955 4706 l 1,15,-1
 6596 7052 l 1,16,-1
 4383 7052 l 1,17,-1
 4471 8002 l 1,18,-1
 6831 8002 l 1,19,-1
 7542 10637 l 1,20,-1
 8742 10637 l 1,21,-1
 8011 8002 l 1,22,-1
 10747 8002 l 1,23,-1
 11421 10501 l 1,24,25
 11459 10499 11459 10499 11479 10499 c 0,26,27
 11957 10499 11957 10499 12607 10464 c 1,28,-1
 11926 8002 l 1,29,-1
 13908 8002 l 1,30,-1
 13819 7052 l 1,31,-1
 11672 7052 l 1,32,-1
 11023 4706 l 1,33,-1
 13103 4706 l 1,34,-1
 13018 3794 l 1,4,-1
EndSplineSet
Validated: 1
EndChar

StartChar: U
Encoding: 85 85 43
Width: 16383
Flags: W
LayerCount: 2
Fore
SplineSet
803 6176 m 1,0,-1
 8452 6176 l 1,1,-1
 8452 9179 l 1,2,-1
 8976 9181 l 1,3,-1
 8995 6176 l 1,4,-1
 16616 6176 l 1,5,-1
 16616 5566 l 1,6,-1
 8991 5566 l 1,7,-1
 8991 3142 l 1,8,-1
 8452 3136 l 1,9,-1
 8452 5566 l 1,10,-1
 803 5566 l 1,11,-1
 803 6176 l 1,0,-1
EndSplineSet
Validated: 1
EndChar

StartChar: W
Encoding: 87 87 44
Width: 16383
Flags: W
LayerCount: 2
Fore
SplineSet
803 7753 m 1,0,-1
 1387 7767 l 1,1,-1
 1387 6554 l 1,2,3
 5038 6554 5038 6554 8687.5 6554 c 128,-1,4
 12337 6554 12337 6554 15988 6554 c 1,5,-1
 15988 7767 l 1,6,-1
 16616 7767 l 1,7,-1
 16589 4550 l 1,8,-1
 15988 4550 l 1,9,-1
 15988 5945 l 1,10,-1
 1387 5945 l 1,11,-1
 1387 4570 l 1,12,-1
 816 4570 l 1,13,-1
 803 7753 l 1,0,-1
EndSplineSet
Validated: 1
EndChar

StartChar: X
Encoding: 88 88 45
Width: 16383
Flags: W
LayerCount: 2
Fore
SplineSet
803 7946 m 1,0,-1
 1387 7959 l 1,1,-1
 1387 4956 l 1,2,3
 5038 4956 5038 4956 8687.5 4956 c 128,-1,4
 12337 4956 12337 4956 15988 4956 c 1,5,-1
 15988 7959 l 1,6,-1
 16616 7959 l 1,7,-1
 16601 4358 l 1,8,-1
 810 4358 l 1,9,-1
 803 7946 l 1,0,-1
EndSplineSet
Validated: 1
EndChar

StartChar: Z
Encoding: 90 90 46
Width: 16383
Flags: W
LayerCount: 2
Fore
SplineSet
16616 4936 m 1,0,-1
 16616 4275 l 1,1,2
 11659 4275 11659 4275 9781.5 4275 c 128,-1,3
 7904 4275 7904 4275 6986.5 4275 c 128,-1,4
 6069 4275 6069 4275 5052.5 4275 c 128,-1,5
 4036 4275 4036 4275 803 4275 c 1,6,-1
 803 4936 l 1,7,-1
 5683 4936 l 1,8,9
 5697 5713 5697 5713 6303 6891 c 128,-1,10
 6909 8069 6909 8069 8724 8042 c 0,11,12
 10173 8020 10173 8020 10897 7112 c 128,-1,13
 11621 6204 11621 6204 11624 4936 c 1,14,-1
 16616 4936 l 1,0,-1
10923 4924 m 1,15,16
 10920 5956 10920 5956 10365.5 6694 c 128,-1,17
 9811 7432 9811 7432 8702 7450 c 0,18,19
 7303 7473 7303 7473 6805.5 6515 c 128,-1,20
 6308 5557 6308 5557 6371 4924 c 1,21,-1
 10923 4924 l 1,15,16
11177 8009 m 1,22,-1
 13179 7804 l 1,23,-1
 12845 7429 l 1,24,-1
 11956 7500 l 1,25,-1
 13907 5647 l 1,26,-1
 13571 5270 l 1,27,-1
 10988 7797 l 1,28,-1
 11177 8009 l 1,22,-1
6242 8009 m 1,29,-1
 6431 7797 l 1,30,-1
 3847 5270 l 1,31,-1
 3511 5647 l 1,32,-1
 5462 7500 l 1,33,-1
 4573 7429 l 1,34,-1
 4239 7804 l 1,35,-1
 6242 8009 l 1,29,-1
EndSplineSet
Validated: 33
EndChar

StartChar: bracketleft
Encoding: 91 91 47
Width: 16383
Flags: W
LayerCount: 2
Fore
SplineSet
3275 7799 m 1,0,-1
 3401 7901 l 1,1,-1
 5929 5320 l 1,2,-1
 5667 5013 l 1,3,-1
 3756 6963 l 1,4,-1
 3883 6073 l 1,5,-1
 3596 5855 l 1,6,-1
 3275 7799 l 1,0,-1
14143 7551 m 1,7,-1
 13494 5691 l 1,8,-1
 13248 5956 l 1,9,-1
 13527 6810 l 1,10,-1
 11308 5217 l 1,11,-1
 11103 5565 l 1,12,-1
 14037 7674 l 1,13,-1
 14143 7551 l 1,7,-1
16616 4767 m 1,14,-1
 16616 4108 l 1,15,16
 11659 4108 11659 4108 9781.5 4108 c 128,-1,17
 7904 4108 7904 4108 6986.5 4108 c 128,-1,18
 6069 4108 6069 4108 5052.5 4108 c 128,-1,19
 4036 4108 4036 4108 803 4108 c 1,20,-1
 803 4767 l 1,21,-1
 7746 4767 l 1,22,-1
 3885 8210 l 1,23,-1
 4924 8210 l 1,24,-1
 8252 5222 l 1,25,-1
 12500 8087 l 1,26,-1
 13582 8086 l 1,27,-1
 8784 4767 l 1,28,-1
 16616 4767 l 1,14,-1
EndSplineSet
Validated: 1
EndChar

StartChar: backslash
Encoding: 92 92 48
Width: 16383
Flags: W
LayerCount: 2
Fore
SplineSet
16616 5625 m 1,0,-1
 16616 4965 l 1,1,2
 11659 4965 11659 4965 9781.5 4965 c 128,-1,3
 7904 4965 7904 4965 6986.5 4965 c 128,-1,4
 6069 4965 6069 4965 5052.5 4965 c 128,-1,5
 4036 4965 4036 4965 803 4965 c 1,6,-1
 803 5625 l 1,7,-1
 8563 5625 l 1,8,-1
 6908 7344 l 1,9,10
 8120 7343 8120 7343 8384.5 7344.5 c 128,-1,11
 8649 7346 8649 7346 8724 7348 c 128,-1,12
 8799 7350 8799 7350 9063.5 7351.5 c 128,-1,13
 9328 7353 9328 7353 10540 7352 c 1,14,-1
 8622 5625 l 1,15,-1
 16616 5625 l 1,0,-1
EndSplineSet
Validated: 33
EndChar

StartChar: bracketright
Encoding: 93 93 49
Width: 16383
Flags: W
LayerCount: 2
Fore
SplineSet
16616 5625 m 1,0,-1
 16616 4965 l 1,1,2
 11659 4965 11659 4965 9781.5 4965 c 128,-1,3
 7904 4965 7904 4965 6986.5 4965 c 128,-1,4
 6069 4965 6069 4965 5052.5 4965 c 128,-1,5
 4036 4965 4036 4965 803 4965 c 1,6,-1
 803 5625 l 1,7,-1
 6907 5625 l 1,8,-1
 6908 7344 l 1,9,10
 8120 7343 8120 7343 8384.5 7344.5 c 128,-1,11
 8649 7346 8649 7346 8724 7348 c 128,-1,12
 8799 7350 8799 7350 9063.5 7351.5 c 128,-1,13
 9328 7353 9328 7353 10540 7352 c 1,14,-1
 10546 5625 l 1,15,-1
 16616 5625 l 1,0,-1
7406 6905 m 1,16,-1
 7406 5628 l 1,17,-1
 10012 5628 l 1,18,-1
 10012 6905 l 1,19,-1
 7406 6905 l 1,16,-1
EndSplineSet
Validated: 33
EndChar

StartChar: asciicircum
Encoding: 94 94 50
Width: 16383
Flags: W
LayerCount: 2
Fore
SplineSet
16616 4384 m 1,0,1
 13757 4384 13757 4384 12003 4384 c 128,-1,2
 10249 4384 10249 4384 8714.5 4384 c 128,-1,3
 7180 4384 7180 4384 5423 4384 c 128,-1,4
 3666 4384 3666 4384 803 4384 c 1,5,-1
 803 5044 l 1,6,7
 4036 5044 4036 5044 5052.5 5044 c 128,-1,8
 6069 5044 6069 5044 6986.5 5044 c 128,-1,9
 7904 5044 7904 5044 9781.5 5044 c 128,-1,10
 11659 5044 11659 5044 16616 5044 c 1,11,-1
 16616 4384 l 1,0,1
16616 6205 m 1,12,-1
 16616 5546 l 1,13,14
 11659 5546 11659 5546 9781.5 5546 c 128,-1,15
 7904 5546 7904 5546 6986.5 5546 c 128,-1,16
 6069 5546 6069 5546 5052.5 5546 c 128,-1,17
 4036 5546 4036 5546 803 5546 c 1,18,-1
 803 6205 l 1,19,-1
 6907 6205 l 1,20,-1
 6908 7925 l 1,21,22
 8120 7923 8120 7923 8384.5 7924.5 c 128,-1,23
 8649 7926 8649 7926 8724 7928.5 c 128,-1,24
 8799 7931 8799 7931 9063.5 7932.5 c 128,-1,25
 9328 7934 9328 7934 10540 7933 c 1,26,-1
 10546 6205 l 1,27,-1
 16616 6205 l 1,12,-1
7406 7485 m 1,28,-1
 7406 6208 l 1,29,-1
 10012 6208 l 1,30,-1
 10012 7485 l 1,31,-1
 7406 7485 l 1,28,-1
EndSplineSet
Validated: 33
EndChar

StartChar: underscore
Encoding: 95 95 51
Width: 16383
Flags: W
LayerCount: 2
Fore
SplineSet
16616 6205 m 1,0,-1
 16616 5546 l 1,1,2
 11659 5546 11659 5546 9781.5 5546 c 128,-1,3
 7904 5546 7904 5546 6986.5 5546 c 128,-1,4
 6069 5546 6069 5546 5052.5 5546 c 128,-1,5
 4036 5546 4036 5546 803 5546 c 1,6,-1
 803 6205 l 1,7,-1
 6907 6205 l 1,8,-1
 6908 7925 l 1,9,10
 8120 7923 8120 7923 8384.5 7924.5 c 128,-1,11
 8649 7926 8649 7926 8724 7928.5 c 128,-1,12
 8799 7931 8799 7931 9063.5 7932.5 c 128,-1,13
 9328 7934 9328 7934 10540 7933 c 1,14,-1
 10546 6205 l 1,15,-1
 16616 6205 l 1,0,-1
16616 4384 m 1,16,17
 13757 4384 13757 4384 12003 4384 c 128,-1,18
 10249 4384 10249 4384 8714.5 4384 c 128,-1,19
 7180 4384 7180 4384 5423 4384 c 128,-1,20
 3666 4384 3666 4384 803 4384 c 1,21,-1
 803 5044 l 1,22,23
 4036 5044 4036 5044 5052.5 5044 c 128,-1,24
 6069 5044 6069 5044 6986.5 5044 c 128,-1,25
 7904 5044 7904 5044 9781.5 5044 c 128,-1,26
 11659 5044 11659 5044 16616 5044 c 1,27,-1
 16616 4384 l 1,16,17
EndSplineSet
Validated: 33
EndChar

StartChar: grave
Encoding: 96 96 52
Width: 16383
Flags: W
LayerCount: 2
Fore
SplineSet
16616 5625 m 1,0,-1
 16616 4965 l 1,1,2
 11659 4965 11659 4965 9781.5 4965 c 128,-1,3
 7904 4965 7904 4965 6986.5 4965 c 128,-1,4
 6069 4965 6069 4965 5052.5 4965 c 128,-1,5
 4036 4965 4036 4965 803 4965 c 1,6,-1
 803 5625 l 1,7,-1
 6907 5625 l 1,8,-1
 6908 7344 l 1,9,10
 8120 7343 8120 7343 8384.5 7344.5 c 128,-1,11
 8649 7346 8649 7346 8724 7348 c 128,-1,12
 8799 7350 8799 7350 9063.5 7351.5 c 128,-1,13
 9328 7353 9328 7353 10540 7352 c 1,14,-1
 10546 5625 l 1,15,-1
 16616 5625 l 1,0,-1
EndSplineSet
Validated: 33
EndChar

StartChar: a
Encoding: 97 97 53
Width: 16383
Flags: W
LayerCount: 2
Fore
SplineSet
16616 5625 m 1,0,-1
 16616 4965 l 1,1,2
 11659 4965 11659 4965 9781.5 4965 c 128,-1,3
 7904 4965 7904 4965 6986.5 4965 c 128,-1,4
 6069 4965 6069 4965 5052.5 4965 c 128,-1,5
 4036 4965 4036 4965 803 4965 c 1,6,-1
 803 5625 l 1,7,-1
 10181 5625 l 1,8,-1
 10183 7344 l 1,9,10
 11395 7343 11395 7343 11659.5 7344.5 c 128,-1,11
 11924 7346 11924 7346 11999 7348 c 128,-1,12
 12074 7350 12074 7350 12338.5 7351.5 c 128,-1,13
 12603 7353 12603 7353 13816 7352 c 1,14,-1
 13822 5625 l 1,15,-1
 16616 5625 l 1,0,-1
10681 6905 m 1,16,-1
 10681 5628 l 1,17,-1
 13289 5628 l 1,18,-1
 13289 6905 l 1,19,-1
 10681 6905 l 1,16,-1
3597 5625 m 1,20,-1
 3603 7352 l 1,21,22
 4815 7353 4815 7353 5079 7351.5 c 128,-1,23
 5343 7350 5343 7350 5418 7348 c 128,-1,24
 5493 7346 5493 7346 5757.5 7344.5 c 128,-1,25
 6022 7343 6022 7343 7235 7344 c 1,26,-1
 7238 5625 l 1,27,-1
 3597 5625 l 1,20,-1
6737 6905 m 1,28,-1
 4130 6905 l 1,29,-1
 4130 5628 l 1,30,-1
 6737 5628 l 1,31,-1
 6737 6905 l 1,28,-1
EndSplineSet
Validated: 37
EndChar

StartChar: b
Encoding: 98 98 54
Width: 16383
Flags: W
LayerCount: 2
Fore
SplineSet
16616 4424 m 1,0,1
 13757 4424 13757 4424 12003 4424 c 128,-1,2
 10249 4424 10249 4424 8714.5 4424 c 128,-1,3
 7180 4424 7180 4424 5423 4424 c 128,-1,4
 3666 4424 3666 4424 803 4424 c 1,5,-1
 803 5083 l 1,6,7
 4036 5083 4036 5083 5052.5 5083 c 128,-1,8
 6069 5083 6069 5083 6986.5 5083 c 128,-1,9
 7904 5083 7904 5083 9781.5 5083 c 128,-1,10
 11659 5083 11659 5083 16616 5083 c 1,11,-1
 16616 4424 l 1,0,1
16616 6165 m 1,12,-1
 16616 5507 l 1,13,14
 11659 5507 11659 5507 9781.5 5507 c 128,-1,15
 7904 5507 7904 5507 6986.5 5507 c 128,-1,16
 6069 5507 6069 5507 5052.5 5507 c 128,-1,17
 4036 5507 4036 5507 803 5507 c 1,18,-1
 803 6165 l 1,19,-1
 10181 6165 l 1,20,-1
 10183 7885 l 1,21,22
 11395 7883 11395 7883 11659.5 7884.5 c 128,-1,23
 11924 7886 11924 7886 11999 7888.5 c 128,-1,24
 12074 7891 12074 7891 12338.5 7892.5 c 128,-1,25
 12603 7894 12603 7894 13816 7894 c 1,26,-1
 13822 6165 l 1,27,-1
 16616 6165 l 1,12,-1
10681 7446 m 1,28,-1
 10681 6168 l 1,29,-1
 13289 6168 l 1,30,-1
 13289 7446 l 1,31,-1
 10681 7446 l 1,28,-1
3597 6165 m 1,32,-1
 3603 7894 l 1,33,34
 4815 7894 4815 7894 5079 7892.5 c 128,-1,35
 5343 7891 5343 7891 5418 7888.5 c 128,-1,36
 5493 7886 5493 7886 5757.5 7884.5 c 128,-1,37
 6022 7883 6022 7883 7235 7885 c 1,38,-1
 7238 6165 l 1,39,-1
 3597 6165 l 1,32,-1
6737 7446 m 1,40,-1
 4130 7446 l 1,41,-1
 4130 6168 l 1,42,-1
 6737 6168 l 1,43,-1
 6737 7446 l 1,40,-1
EndSplineSet
Validated: 37
EndChar

StartChar: c
Encoding: 99 99 55
Width: 16383
Flags: W
LayerCount: 2
Fore
SplineSet
14528 6583 m 1,0,-1
 13305 7128 l 1,1,-1
 13308 7726 l 1,2,-1
 16616 6215 l 1,3,-1
 13305 4591 l 1,4,-1
 13305 5156 l 1,5,-1
 14533 5817 l 1,6,7
 13438 5816 13438 5816 12397 5815 c 128,-1,8
 11356 5814 11356 5814 10342 5814 c 1,9,10
 10133 5382 10133 5382 9477 5096.5 c 128,-1,11
 8821 4811 8821 4811 7972 4811 c 256,12,13
 7123 4811 7123 4811 6468 5095 c 128,-1,14
 5813 5379 5813 5379 5603 5810 c 1,15,16
 4453 5809 4453 5809 3262.5 5808 c 128,-1,17
 2072 5807 2072 5807 803 5806 c 1,18,-1
 815 6542 l 1,19,20
 2102 6546 2102 6546 3295 6551 c 128,-1,21
 4488 6556 4488 6556 5632 6562 c 1,22,23
 6173 7506 6173 7506 7972 7506 c 0,24,25
 9742 7506 9742 7506 10300 6582 c 1,26,27
 11313 6584 11313 6584 12361.5 6584.5 c 128,-1,28
 13410 6585 13410 6585 14528 6583 c 1,0,-1
EndSplineSet
Validated: 33
EndChar

StartChar: d
Encoding: 100 100 56
Width: 16383
Flags: W
LayerCount: 2
Fore
SplineSet
823 6534 m 1,0,-1
 5377 6534 l 1,1,-1
 5377 7942 l 1,2,-1
 10023 7942 l 1,3,-1
 10023 6534 l 1,4,-1
 14517 6534 l 1,5,-1
 13310 7117 l 1,6,-1
 13310 7718 l 1,7,-1
 16596 6209 l 1,8,-1
 13310 4600 l 1,9,-1
 13310 5165 l 1,10,-1
 14517 5877 l 1,11,-1
 13310 5877 l 1,12,-1
 10023 5877 l 1,13,-1
 10023 4375 l 1,14,-1
 5377 4375 l 1,15,-1
 5377 5877 l 1,16,-1
 823 5877 l 1,17,-1
 823 6534 l 1,0,-1
5800 7520 m 1,18,-1
 5800 6534 l 1,19,-1
 9648 6534 l 1,20,-1
 9648 7520 l 1,21,-1
 5800 7520 l 1,18,-1
5800 5877 m 1,22,-1
 5800 4751 l 1,23,-1
 9648 4751 l 1,24,-1
 9648 5877 l 1,25,-1
 5800 5877 l 1,22,-1
EndSplineSet
Validated: 1
EndChar

StartChar: f
Encoding: 102 102 57
Width: 16383
Flags: W
LayerCount: 2
Fore
SplineSet
6854 4725 m 0,0,1
 6863 4102 6863 4102 7629 3823.5 c 128,-1,2
 8395 3545 8395 3545 9253 3531 c 1,3,-1
 9144 2929 l 1,4,5
 8781 2872 8781 2872 8272.5 2970.5 c 128,-1,6
 7764 3069 7764 3069 7500 3138 c 0,7,8
 7130 3236 7130 3236 6802 3502 c 1,9,10
 6041 4062 6041 4062 6081 4724.5 c 128,-1,11
 6121 5387 6121 5387 6740 5947 c 1,12,13
 6740 5947 6740 5947 6732 5947 c 2,14,-1
 803 5947 l 1,15,-1
 803 6396 l 1,16,-1
 7361 6396 l 1,17,18
 7361 6396 7361 6396 7362.5 6396 c 128,-1,19
 7364 6396 7364 6396 7365 6396 c 0,20,21
 7368 6396 7368 6396 7368 6396 c 1,22,23
 7609 6533 7609 6533 7870 6645 c 0,24,25
 8200 6787 8200 6787 8438 6878 c 128,-1,26
 8676 6969 8676 6969 8790 7053 c 0,27,28
 9459 7542 9459 7542 8990 8149.5 c 128,-1,29
 8521 8757 8521 8757 7633 8787 c 0,30,31
 7465 8793 7465 8793 7206 8791.5 c 128,-1,32
 6947 8790 6947 8790 6769 8799 c 1,33,-1
 6868 9390 l 1,34,35
 7105 9374 7105 9374 7311.5 9398 c 128,-1,36
 7518 9422 7518 9422 7860 9393 c 1,37,38
 7946 9390 7946 9390 8204.5 9335 c 128,-1,39
 8463 9280 8463 9280 8609 9232 c 0,40,41
 8612 9230 8612 9230 8822.5 9151.5 c 128,-1,42
 9033 9073 9033 9073 9156 9000 c 0,43,44
 9725 8655 9725 8655 9921.5 8021 c 128,-1,45
 10118 7387 10118 7387 9707 6904 c 0,46,47
 9486 6644 9486 6644 8978 6396 c 1,48,49
 8978 6396 8978 6396 9024 6396 c 2,50,-1
 15552 6396 l 1,51,-1
 15552 6722 l 1,52,-1
 16616 6170 l 1,53,-1
 15552 5630 l 1,54,-1
 15552 5947 l 1,55,-1
 8038 5947 l 1,56,57
 7901 5922 7901 5922 7963 5947 c 1,58,59
 7505 5734 7505 5734 7176.5 5456.5 c 128,-1,60
 6848 5179 6848 5179 6854 4725 c 0,0,1
EndSplineSet
Validated: 37
EndChar

StartChar: i
Encoding: 105 105 58
Width: 16383
Flags: W
LayerCount: 2
Fore
SplineSet
3578 9332 m 1,0,-1
 5603 9332 l 1,1,-1
 2827 2986 l 1,2,-1
 803 2986 l 1,3,-1
 3578 9332 l 1,0,-1
3833 8904 m 1,4,-1
 1446 3413 l 1,5,-1
 2621 3413 l 1,6,-1
 5007 8904 l 1,7,-1
 3833 8904 l 1,4,-1
7250 9332 m 1,8,-1
 9273 9332 l 1,9,-1
 6498 2986 l 1,10,-1
 4474 2986 l 1,11,-1
 7250 9332 l 1,8,-1
7504 8904 m 1,12,-1
 5118 3413 l 1,13,-1
 6293 3413 l 1,14,-1
 8679 8904 l 1,15,-1
 7504 8904 l 1,12,-1
10921 9332 m 1,16,-1
 12944 9332 l 1,17,-1
 10168 2986 l 1,18,-1
 8146 2986 l 1,19,-1
 10921 9332 l 1,16,-1
11174 8904 m 1,20,-1
 8788 3413 l 1,21,-1
 9963 3413 l 1,22,-1
 12350 8904 l 1,23,-1
 11174 8904 l 1,20,-1
14592 9332 m 1,24,-1
 16616 9332 l 1,25,-1
 13841 2986 l 1,26,-1
 11816 2986 l 1,27,-1
 14592 9332 l 1,24,-1
14846 8904 m 1,28,-1
 12460 3413 l 1,29,-1
 13634 3413 l 1,30,-1
 16022 8904 l 1,31,-1
 14846 8904 l 1,28,-1
EndSplineSet
Validated: 1
EndChar

StartChar: j
Encoding: 106 106 59
Width: 16383
Flags: W
LayerCount: 2
Fore
SplineSet
3578 9332 m 1,0,-1
 5603 9332 l 1,1,-1
 2827 2986 l 1,2,-1
 803 2986 l 1,3,-1
 3578 9332 l 1,0,-1
7250 9332 m 1,4,-1
 9273 9332 l 1,5,-1
 6498 2986 l 1,6,-1
 4474 2986 l 1,7,-1
 7250 9332 l 1,4,-1
10921 9332 m 1,8,-1
 12944 9332 l 1,9,-1
 10168 2986 l 1,10,-1
 8146 2986 l 1,11,-1
 10921 9332 l 1,8,-1
14592 9332 m 1,12,-1
 16616 9332 l 1,13,-1
 13841 2986 l 1,14,-1
 11816 2986 l 1,15,-1
 14592 9332 l 1,12,-1
EndSplineSet
Validated: 1
EndChar

StartChar: m
Encoding: 109 109 60
Width: 16383
Flags: W
LayerCount: 2
Fore
SplineSet
16616 5581 m 1,0,-1
 15898 4876 l 1,1,-1
 15167 5607 l 1,2,-1
 14436 4876 l 1,3,-1
 14383 4876 l 1,4,-1
 13652 5607 l 1,5,-1
 12921 4876 l 1,6,-1
 12869 4876 l 1,7,-1
 12137 5607 l 1,8,-1
 11406 4876 l 1,9,-1
 11354 4876 l 1,10,-1
 10622 5607 l 1,11,-1
 9891 4876 l 1,12,-1
 9839 4876 l 1,13,-1
 9108 5607 l 1,14,-1
 8377 4876 l 1,15,-1
 8325 4876 l 1,16,-1
 7594 5607 l 1,17,-1
 6863 4876 l 1,18,-1
 6810 4876 l 1,19,-1
 6079 5607 l 1,20,-1
 5348 4876 l 1,21,-1
 5295 4876 l 1,22,-1
 4564 5607 l 1,23,-1
 3833 4876 l 1,24,-1
 3780 4876 l 1,25,-1
 3049 5607 l 1,26,-1
 2318 4876 l 1,27,-1
 2265 4876 l 1,28,-1
 1534 5607 l 1,29,-1
 803 4876 l 1,30,-1
 809 4876 l 1,31,-1
 809 5290 l 1,32,-1
 1590 6050 l 1,33,-1
 2281 5358 l 1,34,-1
 2973 6050 l 1,35,-1
 3104 6050 l 1,36,-1
 3796 5358 l 1,37,-1
 4488 6050 l 1,38,-1
 4619 6050 l 1,39,-1
 5311 5358 l 1,40,-1
 6003 6050 l 1,41,-1
 6133 6050 l 1,42,-1
 6826 5358 l 1,43,-1
 7518 6050 l 1,44,-1
 7524 7442 l 1,45,-1
 10677 7442 l 1,46,-1
 10677 6050 l 1,47,-1
 11369 5358 l 1,48,-1
 12062 6050 l 1,49,-1
 12192 6050 l 1,50,-1
 12884 5358 l 1,51,-1
 13576 6050 l 1,52,-1
 13707 6050 l 1,53,-1
 14399 5358 l 1,54,-1
 15091 6050 l 1,55,-1
 15222 6050 l 1,56,-1
 15914 5358 l 1,57,-1
 16606 6050 l 1,58,-1
 16616 5581 l 1,0,-1
EndSplineSet
Validated: 5
EndChar

StartChar: n
Encoding: 110 110 61
Width: 16383
Flags: W
LayerCount: 2
Fore
SplineSet
2660 7391 m 1,0,-1
 1166 4923 l 1,1,-1
 1609 4923 l 1,2,-1
 3103 7391 l 1,3,-1
 2660 7391 l 1,0,-1
5202 7391 m 1,4,-1
 3708 4923 l 1,5,-1
 4150 4923 l 1,6,-1
 5644 7391 l 1,7,-1
 5202 7391 l 1,4,-1
7743 7391 m 1,8,-1
 6249 4923 l 1,9,-1
 6691 4923 l 1,10,-1
 8185 7391 l 1,11,-1
 7743 7391 l 1,8,-1
10283 7391 m 1,12,-1
 8789 4923 l 1,13,-1
 9232 4923 l 1,14,-1
 10726 7391 l 1,15,-1
 10283 7391 l 1,12,-1
12824 7391 m 1,16,-1
 11330 4923 l 1,17,-1
 11773 4923 l 1,18,-1
 13267 7391 l 1,19,-1
 12824 7391 l 1,16,-1
15366 7391 m 1,20,-1
 13873 4923 l 1,21,-1
 14314 4923 l 1,22,-1
 15808 7391 l 1,23,-1
 15366 7391 l 1,20,-1
803 7772 m 1,24,-1
 16616 7772 l 1,25,-1
 16616 7385 l 1,26,-1
 803 7385 l 1,27,-1
 803 7772 l 1,24,-1
803 4932 m 1,28,-1
 16616 4932 l 1,29,-1
 16616 4546 l 1,30,-1
 803 4546 l 1,31,-1
 803 4932 l 1,28,-1
EndSplineSet
Validated: 5
EndChar

StartChar: o
Encoding: 111 111 62
Width: 16383
Flags: W
LayerCount: 2
Fore
SplineSet
6769 6687 m 1,0,-1
 6769 8490 l 1,1,-1
 5598 8490 l 1,2,-1
 7290 11329 l 1,3,-1
 8981 8490 l 1,4,-1
 7812 8490 l 1,5,-1
 7812 6683 l 1,6,-1
 13777 6680 l 1,7,-1
 13777 7851 l 1,8,-1
 16616 6159 l 1,9,-1
 13777 4467 l 1,10,-1
 13777 5637 l 1,11,-1
 7812 5639 l 1,12,-1
 7812 3827 l 1,13,-1
 8981 3827 l 1,14,-1
 7290 988 l 1,15,-1
 5598 3827 l 1,16,-1
 6769 3827 l 1,17,-1
 6779 5658 l 1,18,-1
 803 5637 l 1,19,-1
 803 6680 l 1,20,-1
 6769 6687 l 1,0,-1
7152 6303 m 1,21,-1
 1314 6297 l 1,22,-1
 1314 6021 l 1,23,-1
 7164 6042 l 1,24,-1
 7152 3571 l 1,25,-1
 6109 3571 l 1,26,-1
 7290 1499 l 1,27,-1
 8471 3571 l 1,28,-1
 7428 3571 l 1,29,-1
 7428 6023 l 1,30,-1
 14160 6021 l 1,31,-1
 14160 5234 l 1,32,-1
 15849 6159 l 1,33,-1
 14160 7084 l 1,34,-1
 14160 6297 l 1,35,-1
 7428 6300 l 1,36,-1
 7428 8746 l 1,37,-1
 8471 8746 l 1,38,-1
 7290 10818 l 1,39,-1
 6109 8746 l 1,40,-1
 7152 8746 l 1,41,-1
 7152 6303 l 1,21,-1
EndSplineSet
Validated: 1
EndChar

StartChar: p
Encoding: 112 112 63
Width: 16383
Flags: W
LayerCount: 2
Fore
SplineSet
6769 6687 m 1,0,-1
 6769 8490 l 1,1,-1
 5598 8490 l 1,2,-1
 7290 11329 l 1,3,-1
 8981 8490 l 1,4,-1
 7812 8490 l 1,5,-1
 7812 6683 l 1,6,-1
 13777 6680 l 1,7,-1
 13777 7851 l 1,8,-1
 16616 6159 l 1,9,-1
 13777 4467 l 1,10,-1
 13777 5637 l 1,11,-1
 7812 5639 l 1,12,-1
 7812 3827 l 1,13,-1
 8981 3827 l 1,14,-1
 7290 988 l 1,15,-1
 5598 3827 l 1,16,-1
 6769 3827 l 1,17,-1
 6779 5658 l 1,18,-1
 803 5637 l 1,19,-1
 803 6680 l 1,20,-1
 6769 6687 l 1,0,-1
EndSplineSet
Validated: 1
EndChar

StartChar: q
Encoding: 113 113 64
Width: 16383
Flags: W
LayerCount: 2
Fore
SplineSet
8268 6607 m 1,0,-1
 8268 8135 l 1,1,-1
 7275 8135 l 1,2,-1
 8709 10542 l 1,3,-1
 10143 8135 l 1,4,-1
 9151 8135 l 1,5,-1
 9151 6604 l 1,6,-1
 14209 6600 l 1,7,-1
 14209 7593 l 1,8,-1
 16616 6159 l 1,9,-1
 14209 4725 l 1,10,-1
 14209 5717 l 1,11,-1
 9151 5718 l 1,12,-1
 9151 4182 l 1,13,-1
 10143 4182 l 1,14,-1
 8709 1775 l 1,15,-1
 7275 4182 l 1,16,-1
 8268 4182 l 1,17,-1
 8277 5734 l 1,18,-1
 3210 5717 l 1,19,-1
 3210 4725 l 1,20,-1
 803 6159 l 1,21,-1
 3210 7593 l 1,22,-1
 3210 6600 l 1,23,-1
 8268 6607 l 1,0,-1
8592 6281 m 1,24,-1
 2884 6276 l 1,25,-1
 2884 7051 l 1,26,-1
 1344 6159 l 1,27,-1
 2884 5266 l 1,28,-1
 2884 6042 l 1,29,-1
 8602 6060 l 1,30,-1
 8592 3965 l 1,31,-1
 7708 3965 l 1,32,-1
 8709 2208 l 1,33,-1
 9710 3965 l 1,34,-1
 8826 3965 l 1,35,-1
 8826 6044 l 1,36,-1
 14534 6042 l 1,37,-1
 14534 5375 l 1,38,-1
 15966 6159 l 1,39,-1
 14534 6943 l 1,40,-1
 14534 6276 l 1,41,-1
 8826 6279 l 1,42,-1
 8826 8352 l 1,43,-1
 9710 8352 l 1,44,-1
 8709 10109 l 1,45,-1
 7708 8352 l 1,46,-1
 8592 8352 l 1,47,-1
 8592 6281 l 1,24,-1
EndSplineSet
Validated: 1
EndChar

StartChar: r
Encoding: 114 114 65
Width: 16383
Flags: W
LayerCount: 2
Fore
SplineSet
8268 6607 m 1,0,-1
 8268 8135 l 1,1,-1
 7275 8135 l 1,2,-1
 8709 10542 l 1,3,-1
 10143 8135 l 1,4,-1
 9151 8135 l 1,5,-1
 9151 6604 l 1,6,-1
 14209 6600 l 1,7,-1
 14209 7593 l 1,8,-1
 16616 6159 l 1,9,-1
 14209 4725 l 1,10,-1
 14209 5717 l 1,11,-1
 9151 5718 l 1,12,-1
 9151 4182 l 1,13,-1
 10143 4182 l 1,14,-1
 8709 1775 l 1,15,-1
 7275 4182 l 1,16,-1
 8268 4182 l 1,17,-1
 8277 5734 l 1,18,-1
 3210 5717 l 1,19,-1
 3210 4725 l 1,20,-1
 803 6159 l 1,21,-1
 3210 7593 l 1,22,-1
 3210 6600 l 1,23,-1
 8268 6607 l 1,0,-1
EndSplineSet
Validated: 1
EndChar

StartChar: s
Encoding: 115 115 66
Width: 16383
Flags: W
LayerCount: 2
Fore
SplineSet
16421 7804 m 1,0,-1
 16421 7096 l 1,1,-1
 9151 7097 l 1,2,-1
 9151 5562 l 1,3,-1
 9722 5562 l 1,4,-1
 8884 4507 l 1,5,-1
 8013 5562 l 1,6,-1
 8584 5562 l 1,7,-1
 8593 7114 l 1,8,-1
 998 7096 l 1,9,-1
 998 7804 l 1,10,11
 4322 7808 4322 7808 5901.5 7809 c 128,-1,12
 7481 7810 7481 7810 8711 7809.5 c 128,-1,13
 9941 7809 9941 7809 11519.5 7807.5 c 128,-1,14
 13098 7806 13098 7806 16421 7804 c 1,0,-1
EndSplineSet
Validated: 33
EndChar

StartChar: t
Encoding: 116 116 67
Width: 16383
Flags: W
LayerCount: 2
Fore
SplineSet
16421 4513 m 1,0,1
 13098 4511 13098 4511 11519.5 4509 c 128,-1,2
 9941 4507 9941 4507 8711 4506.5 c 128,-1,3
 7481 4506 7481 4506 5901.5 4507.5 c 128,-1,4
 4322 4509 4322 4509 998 4513 c 1,5,-1
 998 5221 l 1,6,-1
 8593 5203 l 1,7,-1
 8584 6755 l 1,8,-1
 8013 6755 l 1,9,-1
 8884 7811 l 1,10,-1
 9722 6755 l 1,11,-1
 9151 6755 l 1,12,-1
 9151 5220 l 1,13,-1
 16421 5221 l 1,14,-1
 16421 4513 l 1,0,1
EndSplineSet
Validated: 33
EndChar

StartChar: u
Encoding: 117 117 68
Width: 16383
Flags: W
LayerCount: 2
Fore
SplineSet
998 7804 m 1,0,1
 4320 7806 4320 7806 5898.5 7807.5 c 128,-1,2
 7477 7809 7477 7809 8707 7809.5 c 128,-1,3
 9937 7810 9937 7810 11517 7809 c 128,-1,4
 13097 7808 13097 7808 16421 7804 c 1,5,-1
 16421 7096 l 1,6,7
 14155 7101 14155 7101 12774.5 7104 c 128,-1,8
 11394 7107 11394 7107 10574.5 7108 c 128,-1,9
 9755 7109 9755 7109 9335.5 7109 c 128,-1,10
 8916 7109 8916 7109 8574 7108 c 1,11,-1
 9406 6060 l 1,12,-1
 8835 6060 l 1,13,-1
 8835 4523 l 1,14,-1
 8277 4507 l 1,15,-1
 8268 6060 l 1,16,-1
 7697 6060 l 1,17,-1
 8564 7108 l 1,18,19
 8229 7106 8229 7106 7813 7104.5 c 128,-1,20
 7397 7103 7397 7103 6600.5 7101 c 128,-1,21
 5804 7099 5804 7099 4478 7097.5 c 128,-1,22
 3152 7096 3152 7096 998 7096 c 1,23,-1
 998 7804 l 1,0,1
EndSplineSet
Validated: 33
EndChar

StartChar: v
Encoding: 118 118 69
Width: 16383
Flags: W
LayerCount: 2
Fore
SplineSet
8263 2106 m 1,0,-1
 8263 3491 l 1,1,-1
 7364 3491 l 1,2,-1
 8709 5712 l 1,3,-1
 10055 3491 l 1,4,-1
 9156 3491 l 1,5,-1
 9156 2106 l 1,6,-1
 8263 2106 l 1,0,-1
8263 10212 m 1,7,-1
 9156 10212 l 1,8,-1
 9156 8826 l 1,9,-1
 10055 8826 l 1,10,-1
 8709 6592 l 1,11,-1
 7364 8826 l 1,12,-1
 8263 8826 l 1,13,-1
 8263 10212 l 1,7,-1
14209 6591 m 1,14,-1
 14209 7583 l 1,15,-1
 16616 6149 l 1,16,-1
 14209 4714 l 1,17,-1
 14209 5707 l 1,18,-1
 3210 5707 l 1,19,-1
 3210 4714 l 1,20,-1
 803 6149 l 1,21,-1
 3210 7583 l 1,22,-1
 3210 6591 l 1,23,24
 6270 6594 6270 6594 7223.5 6595 c 128,-1,25
 8177 6596 8177 6596 8709.5 6595.5 c 128,-1,26
 9242 6595 9242 6595 10195.5 6593.5 c 128,-1,27
 11149 6592 11149 6592 14209 6591 c 1,14,-1
EndSplineSet
Validated: 37
EndChar

StartChar: w
Encoding: 119 119 70
Width: 16383
Flags: W
LayerCount: 2
Fore
SplineSet
14209 6598 m 1,0,-1
 14209 7589 l 1,1,-1
 16616 6157 l 1,2,-1
 14209 4722 l 1,3,-1
 14209 5714 l 1,4,5
 12110 5714 12110 5714 10979.5 5716 c 128,-1,6
 9849 5718 9849 5718 9335 5720.5 c 128,-1,7
 8821 5723 8821 5723 8747 5725.5 c 128,-1,8
 8673 5728 8673 5728 8688.5 5729.5 c 128,-1,9
 8704 5731 8704 5731 8633 5731.5 c 128,-1,10
 8562 5732 8562 5732 8052.5 5730.5 c 128,-1,11
 7543 5729 7543 5729 6420.5 5725 c 128,-1,12
 5298 5721 5298 5721 3210 5714 c 1,13,-1
 3210 4722 l 1,14,-1
 803 6157 l 1,15,-1
 3210 7589 l 1,16,-1
 3210 6598 l 1,17,18
 6270 6601 6270 6601 7223.5 6602 c 128,-1,19
 8177 6603 8177 6603 8709.5 6602.5 c 128,-1,20
 9242 6602 9242 6602 10195.5 6600.5 c 128,-1,21
 11149 6599 11149 6599 14209 6598 c 1,0,-1
14534 6273 m 1,22,23
 11163 6274 11163 6274 10186 6275.5 c 128,-1,24
 9209 6277 9209 6277 8710 6277.5 c 128,-1,25
 8211 6278 8211 6278 7233 6277 c 128,-1,26
 6255 6276 6255 6276 2884 6273 c 1,27,-1
 2884 7048 l 1,28,-1
 1344 6157 l 1,29,-1
 2884 5263 l 1,30,-1
 2884 6039 l 1,31,32
 5166 6046 5166 6046 6381 6050 c 128,-1,33
 7596 6054 7596 6054 8131 6055.5 c 128,-1,34
 8666 6057 8666 6057 8715.5 6056.5 c 128,-1,35
 8765 6056 8765 6056 8717.5 6054.5 c 128,-1,36
 8670 6053 8670 6053 8718.5 6050.5 c 128,-1,37
 8767 6048 8767 6048 9300 6045.5 c 128,-1,38
 9833 6043 9833 6043 11044.5 6041 c 128,-1,39
 12256 6039 12256 6039 14534 6039 c 1,40,-1
 14534 5372 l 1,41,-1
 15966 6157 l 1,42,-1
 14534 6939 l 1,43,-1
 14534 6273 l 1,22,23
8104 10219 m 1,44,-1
 8997 10219 l 1,45,-1
 8997 8834 l 1,46,-1
 9897 8834 l 1,47,-1
 8551 6599 l 1,48,-1
 7205 8834 l 1,49,-1
 8104 8834 l 1,50,-1
 8104 10219 l 1,44,-1
8321 9893 m 1,51,-1
 8321 8560 l 1,52,-1
 7696 8560 l 1,53,-1
 8551 7032 l 1,54,-1
 9431 8560 l 1,55,-1
 8780 8560 l 1,56,-1
 8780 9893 l 1,57,-1
 8321 9893 l 1,51,-1
8104 2099 m 1,58,-1
 8104 3484 l 1,59,-1
 7205 3484 l 1,60,-1
 8551 5718 l 1,61,-1
 9897 3484 l 1,62,-1
 8997 3484 l 1,63,-1
 8997 2099 l 1,64,-1
 8104 2099 l 1,58,-1
8321 2424 m 1,65,-1
 8780 2424 l 1,66,-1
 8780 3758 l 1,67,-1
 9431 3758 l 1,68,-1
 8551 5285 l 1,69,-1
 7696 3758 l 1,70,-1
 8321 3758 l 1,71,-1
 8321 2424 l 1,65,-1
EndSplineSet
Validated: 37
EndChar

StartChar: x
Encoding: 120 120 71
Width: 16383
Flags: W
LayerCount: 2
Fore
SplineSet
803 8003 m 1,0,-1
 4293 8003 l 1,1,-1
 9907 8003 l 1,2,-1
 9917 8003 l 1,3,-1
 9917 7992 l 1,4,-1
 12617 4820 l 1,5,-1
 16616 4820 l 1,6,-1
 16616 4314 l 1,7,-1
 13048 4314 l 1,8,-1
 7502 4314 l 1,9,-1
 7435 4314 l 1,10,-1
 4724 7498 l 1,11,-1
 803 7498 l 1,12,-1
 803 8003 l 1,0,-1
7536 4820 m 1,13,-1
 7986 4820 l 1,14,-1
 5707 7498 l 1,15,-1
 5257 7498 l 1,16,-1
 7536 4820 l 1,13,-1
8701 4820 m 1,17,-1
 9151 4820 l 1,18,-1
 6872 7498 l 1,19,-1
 6422 7498 l 1,20,-1
 8701 4820 l 1,17,-1
10011 4820 m 1,21,-1
 10461 4820 l 1,22,-1
 8183 7498 l 1,23,-1
 7733 7498 l 1,24,-1
 10011 4820 l 1,21,-1
11385 4820 m 1,25,-1
 11835 4820 l 1,26,-1
 9555 7498 l 1,27,-1
 9105 7498 l 1,28,-1
 11385 4820 l 1,25,-1
EndSplineSet
Validated: 1
EndChar

StartChar: y
Encoding: 121 121 72
Width: 16383
Flags: W
LayerCount: 2
Fore
SplineSet
16616 6235 m 1,0,1
 16047 5938 16047 5938 15520 5689 c 1,2,-1
 14275 5136 l 2,3,4
 14162 5089 14162 5089 13900 4985 c 1,5,-1
 12919 4629 l 1,6,7
 12606 4524 12606 4524 12251 4420 c 1,8,-1
 11401 4198 l 1,9,10
 10895 4080 10895 4080 10425 4006 c 1,11,-1
 9909 3936 l 1,12,13
 9412 3878 9412 3878 8938 3863 c 1,14,-1
 8352 3861 l 1,15,16
 7768 3874 7768 3874 7213 3949 c 1,17,-1
 6887 3996 l 1,18,19
 6384 4079 6384 4079 5891 4207 c 1,20,-1
 5027 4458 l 1,21,22
 4746 4550 4746 4550 4459 4652 c 1,23,-1
 3277 5103 l 2,24,25
 3215 5127 3215 5127 3154 5150.5 c 128,-1,26
 3093 5174 3093 5174 3033 5198 c 2,27,-1
 1981 5591 l 1,28,29
 1837 5639 1837 5639 1796 5653 c 2,30,-1
 1534 5739 l 1,31,32
 1152 5857 1152 5857 803 5943 c 1,33,34
 1259 6186 1259 6186 1741 6426 c 1,35,-1
 2972 7012 l 1,36,37
 3239 7130 3239 7130 3380 7190 c 2,38,-1
 4315 7567 l 1,39,40
 4702 7711 4702 7711 5047 7825 c 1,41,42
 5313 7966 5313 7966 5493 7986 c 128,-1,43
 5673 8006 5673 8006 5815 8055 c 1,44,45
 6360 8203 6360 8203 6898 8301 c 1,46,-1
 7294 8364 l 1,47,48
 7852 8441 7852 8441 8383 8458 c 1,49,-1
 8845 8460 l 1,50,51
 9458 8447 9458 8447 10106 8350 c 1,52,-1
 10309 8316 l 2,53,54
 10827 8227 10827 8227 11417 8070 c 1,55,-1
 12173 7848 l 1,56,57
 12518 7737 12518 7737 12849 7623 c 1,58,-1
 13917 7235 l 2,59,60
 14052 7185 14052 7185 14281 7098 c 2,61,-1
 15228 6742 l 2,62,63
 15298 6715 15298 6715 15369.5 6689 c 128,-1,64
 15441 6663 15441 6663 15513 6636 c 2,65,-1
 15776 6538 l 2,66,67
 16220 6374 16220 6374 16616 6235 c 1,0,1
15022 6819 m 1,68,69
 14876 6874 14876 6874 14503 7015 c 1,70,-1
 15022 6819 l 1,68,69
13626 7344 m 1,71,-1
 13160 7513 l 1,72,73
 13416 7421 13416 7421 13626 7344 c 1,71,-1
11963 7914 m 1,74,-1
 11735 7981 l 1,75,76
 11887 7937 11887 7937 11963 7914 c 1,74,-1
5643 8008 m 1,77,78
 5547 7981 5547 7981 5438 7948 c 1,79,-1
 5643 8008 l 1,77,78
4134 7498 m 1,80,-1
 3652 7305 l 1,81,82
 3959 7430 3959 7430 4134 7498 c 1,80,-1
2765 6918 m 1,83,-1
 2060 6583 l 1,84,85
 2414 6757 2414 6757 2765 6918 c 1,83,-1
2175 5522 m 1,86,-1
 2813 5283 l 1,87,88
 2424 5432 2424 5432 2175 5522 c 1,86,-1
3567 4989 m 1,89,-1
 4149 4767 l 1,90,91
 3970 4833 3970 4833 3567 4989 c 1,89,-1
5240 4391 m 1,92,-1
 5578 4291 l 1,93,94
 5413 4336 5413 4336 5240 4391 c 1,92,-1
7013 3977 m 1,95,-1
 7064 3970 l 1,96,97
 7051 3971 7051 3971 7038 3973 c 128,-1,98
 7025 3975 7025 3975 7013 3977 c 1,95,-1
8613 3858 m 1,99,100
 8623 3858 8623 3858 8633.5 3858 c 128,-1,101
 8644 3858 8644 3858 8655 3858 c 1,102,-1
 8613 3858 l 1,99,100
10164 3967 m 1,103,-1
 10214 3975 l 1,104,105
 10198 3973 10198 3973 10164 3967 c 1,103,-1
11574 4238 m 1,106,107
 11646 4255 11646 4255 11719 4274.5 c 128,-1,108
 11792 4294 11792 4294 11866 4313 c 1,109,-1
 11574 4238 l 1,106,107
13101 4692 m 1,110,111
 13312 4764 13312 4764 13630 4882 c 1,112,-1
 13101 4692 l 1,110,111
14485 5224 m 1,113,114
 14844 5376 14844 5376 15204 5542 c 1,115,-1
 14485 5224 l 1,113,114
14157 6677 m 1,116,117
 14107 6694 14107 6694 14065 6711 c 1,118,-1
 14115 6533 l 1,119,-1
 14157 6677 l 1,116,117
12726 7212 m 1,120,121
 12563 7272 12563 7272 12318 7360 c 1,122,-1
 12543 6592 l 1,123,-1
 12726 7212 l 1,120,121
11305 7690 m 1,124,125
 10843 7824 10843 7824 10435 7912 c 1,126,-1
 10915 6361 l 1,127,-1
 11305 7690 l 1,124,125
9992 7995 m 1,128,129
 9459 8083 9459 8083 8949 8101 c 1,130,-1
 9463 6358 l 1,131,-1
 9992 7995 l 1,128,129
8276 8096 m 1,132,133
 7842 8074 7842 8074 7399 8007 c 1,134,-1
 7823 6554 l 1,135,-1
 8276 8096 l 1,132,133
6762 7887 m 1,136,137
 6319 7786 6319 7786 5929 7667 c 1,138,-1
 6288 6446 l 1,139,-1
 6762 7887 l 1,136,137
4898 7313 m 1,140,141
 4720 7246 4720 7246 4442 7131 c 1,142,-1
 4642 6443 l 1,143,-1
 4898 7313 l 1,140,141
3195 6572 m 1,144,145
 3167 6558 3167 6558 3113 6532 c 1,146,-1
 3148 6413 l 1,147,-1
 3195 6572 l 1,144,145
4587 5082 m 1,148,149
 4849 4983 4849 4983 4876 4974 c 1,150,-1
 4717 5516 l 1,151,-1
 4587 5082 l 1,148,149
6005 4595 m 1,152,153
 6379 4487 6379 4487 6759 4407 c 1,154,-1
 6344 5748 l 1,155,-1
 6005 4595 l 1,152,153
7329 4306 m 1,156,157
 7794 4239 7794 4239 8246 4221 c 1,158,-1
 7797 5751 l 1,159,-1
 7329 4306 l 1,156,157
9044 4223 m 1,160,161
 9432 4241 9432 4241 9806 4289 c 1,162,-1
 9435 5554 l 1,163,-1
 9044 4223 l 1,160,161
10558 4409 m 1,164,165
 10903 4476 10903 4476 11290 4575 c 1,166,-1
 10971 5663 l 1,167,-1
 10558 4409 l 1,164,165
12394 4909 m 1,168,169
 12605 4980 12605 4980 12796 5052 c 1,170,-1
 12617 5666 l 1,171,-1
 12394 4909 l 1,168,169
14076 5579 m 1,172,173
 14091 5586 14091 5586 14106.5 5593 c 128,-1,174
 14122 5600 14122 5600 14137 5608 c 1,175,-1
 14111 5695 l 1,176,-1
 14076 5579 l 1,172,173
15348 6199 m 1,177,178
 15360 6205 15360 6205 15372 6211 c 128,-1,179
 15384 6217 15384 6217 15396 6223 c 1,180,181
 15381 6227 15381 6227 15367 6232.5 c 128,-1,182
 15353 6238 15353 6238 15339 6243 c 1,183,-1
 15348 6199 l 1,177,178
13989 6107 m 1,184,-1
 13781 6818 l 1,185,186
 13589 6890 13589 6890 13403.5 6960 c 128,-1,187
 13218 7030 13218 7030 13038 7097 c 1,188,-1
 12716 6003 l 1,189,-1
 12975 5120 l 1,190,191
 13366 5268 13366 5268 13799 5457 c 1,192,-1
 13989 6107 l 1,184,-1
10841 6107 m 1,193,-1
 10302 7939 l 1,194,195
 10312 7936 10312 7936 10145 7969 c 1,196,-1
 9567 6003 l 1,197,-1
 10060 4324 l 1,198,199
 10211 4346 10211 4346 10330 4367 c 1,200,-1
 10841 6107 l 1,193,-1
7692 6107 m 1,201,-1
 7146 7964 l 1,202,203
 7136 7962 7136 7962 6986 7934 c 1,204,-1
 6419 6003 l 1,205,-1
 6895 4379 l 1,206,207
 6963 4367 6963 4367 7031.5 4354.5 c 128,-1,208
 7100 4342 7100 4342 7170 4330 c 1,209,-1
 7692 6107 l 1,201,-1
4543 6107 m 1,210,-1
 4264 7057 l 1,211,212
 3905 6906 3905 6906 3477 6706 c 1,213,-1
 3269 6003 l 1,214,-1
 3405 5539 l 1,215,216
 3622 5458 3622 5458 3839.5 5373 c 128,-1,217
 4057 5288 4057 5288 4277 5203 c 1,218,-1
 4543 6107 l 1,210,-1
2903 6428 m 1,219,220
 2509 6234 2509 6234 2050 5991 c 1,221,-1
 2056 5968 l 1,222,223
 2484 5862 2484 5862 2938 5707 c 1,224,-1
 3025 5998 l 1,225,-1
 2903 6428 l 1,219,220
4816 5849 m 1,226,-1
 5094 4894 l 1,227,228
 5400 4781 5400 4781 5708 4685 c 1,229,-1
 6205 6195 l 1,230,-1
 5764 7617 l 1,231,232
 5517 7538 5517 7538 5293 7460 c 1,233,-1
 4816 5849 l 1,226,-1
7934 6176 m 1,234,-1
 8509 4214 l 1,235,236
 8637 4212 8637 4212 8768 4214 c 1,237,-1
 9325 5932 l 1,238,-1
 8689 8106 l 1,239,240
 8656 8106 8656 8106 8623.5 8106 c 128,-1,241
 8591 8106 8591 8106 8559 8106 c 1,242,-1
 7934 6176 l 1,234,-1
11054 5914 m 1,243,-1
 11456 4620 l 1,244,245
 11688 4682 11688 4682 12005 4780 c 1,246,-1
 12444 6259 l 1,247,-1
 12102 7435 l 1,248,249
 11770 7546 11770 7546 11609 7597 c 1,250,-1
 11054 5914 l 1,243,-1
14234 6111 m 1,251,-1
 14349 5705 l 1,252,253
 14726 5881 14726 5881 15206 6127 c 1,254,-1
 15158 6307 l 1,255,256
 14839 6421 14839 6421 14378 6594 c 1,257,-1
 14234 6111 l 1,251,-1
EndSplineSet
Validated: 5
EndChar

StartChar: z
Encoding: 122 122 73
Width: 16383
Flags: W
LayerCount: 2
Fore
SplineSet
803 5243 m 1,0,-1
 16616 5243 l 1,1,-1
 16616 5002 l 1,2,-1
 803 5002 l 1,3,-1
 803 5243 l 1,0,-1
803 6279 m 1,4,-1
 16616 6279 l 1,5,-1
 16616 6039 l 1,6,-1
 803 6039 l 1,7,-1
 803 6279 l 1,4,-1
803 7316 m 1,8,-1
 16616 7316 l 1,9,-1
 16616 7074 l 1,10,-1
 803 7074 l 1,11,-1
 803 7316 l 1,8,-1
EndSplineSet
Validated: 1
EndChar

StartChar: braceleft
Encoding: 123 123 74
Width: 16383
Flags: W
LayerCount: 2
Fore
SplineSet
4177 7434 m 1,0,-1
 803 7434 l 1,1,-1
 803 7881 l 1,2,-1
 16616 7881 l 1,3,-1
 16616 7434 l 1,4,-1
 15650 7434 l 1,5,6
 14687 5873 14687 5873 13854.5 5532.5 c 128,-1,7
 13022 5192 13022 5192 12278 4884 c 1,8,-1
 16616 4884 l 1,9,-1
 16616 4436 l 1,10,-1
 803 4436 l 1,11,-1
 803 4884 l 1,12,-1
 1141 4884 l 1,13,14
 1936 6248 1936 6248 2585.5 6671 c 128,-1,15
 3235 7094 3235 7094 4177 7434 c 1,0,-1
12121 4884 m 1,16,17
 12916 6248 12916 6248 13565.5 6671 c 128,-1,18
 14215 7094 14215 7094 15157 7434 c 1,19,-1
 12097 7434 l 1,20,21
 11134 5873 11134 5873 10302 5532.5 c 128,-1,22
 9470 5192 9470 5192 8725 4884 c 1,23,-1
 12121 4884 l 1,16,17
15406 7375 m 1,24,25
 14394 6989 14394 6989 13794 6693 c 128,-1,26
 13194 6397 13194 6397 12444 5086 c 1,27,28
 13091 5398 13091 5398 13819.5 5650 c 128,-1,29
 14548 5902 14548 5902 15406 7375 c 1,24,25
8569 4884 m 1,30,31
 9363 6248 9363 6248 10012.5 6671 c 128,-1,32
 10662 7094 10662 7094 11604 7434 c 1,33,-1
 8437 7434 l 1,34,35
 7474 5873 7474 5873 6642 5532.5 c 128,-1,36
 5810 5192 5810 5192 5065 4884 c 1,37,-1
 8569 4884 l 1,30,31
11854 7375 m 1,38,39
 10841 6989 10841 6989 10241.5 6693 c 128,-1,40
 9642 6397 9642 6397 8892 5086 c 1,41,42
 9538 5398 9538 5398 10267 5650 c 128,-1,43
 10996 5902 10996 5902 11854 7375 c 1,38,39
4908 4884 m 1,44,45
 5703 6248 5703 6248 6353 6671 c 128,-1,46
 7003 7094 7003 7094 7946 7434 c 1,47,-1
 4670 7434 l 1,48,49
 3707 5873 3707 5873 2874.5 5532.5 c 128,-1,50
 2042 5192 2042 5192 1298 4884 c 1,51,-1
 4908 4884 l 1,44,45
8194 7375 m 1,52,53
 7182 6989 7182 6989 6582.5 6693 c 128,-1,54
 5983 6397 5983 6397 5232 5086 c 1,55,56
 5880 5398 5880 5398 6608 5650 c 128,-1,57
 7336 5902 7336 5902 8194 7375 c 1,52,53
4427 7375 m 1,58,59
 3414 6989 3414 6989 2814 6693 c 128,-1,60
 2214 6397 2214 6397 1464 5086 c 1,61,62
 2111 5398 2111 5398 2840 5650 c 128,-1,63
 3569 5902 3569 5902 4427 7375 c 1,58,59
EndSplineSet
Validated: 1
EndChar

StartChar: bar
Encoding: 124 124 75
Width: 16383
Flags: W
LayerCount: 2
Fore
SplineSet
6082 8198 m 1,0,1
 5318 6885 5318 6885 4614 6188 c 128,-1,2
 3910 5491 3910 5491 3255 5124.5 c 128,-1,3
 2600 4758 2600 4758 1989.5 4578 c 128,-1,4
 1379 4398 1379 4398 803 4119 c 1,5,6
 2141 6456 2141 6456 3209.5 6983.5 c 128,-1,7
 4278 7511 4278 7511 6082 8198 c 1,0,1
5540 7785 m 1,8,9
 4104 7239 4104 7239 3254 6819 c 128,-1,10
 2404 6399 2404 6399 1339 4540 c 1,11,12
 2257 4984 2257 4984 3290.5 5340 c 128,-1,13
 4324 5696 4324 5696 5540 7785 c 1,8,9
9746 8198 m 1,14,15
 8982 6885 8982 6885 8278 6188 c 128,-1,16
 7574 5491 7574 5491 6919.5 5124.5 c 128,-1,17
 6265 4758 6265 4758 5654 4578 c 128,-1,18
 5043 4398 5043 4398 4467 4119 c 1,19,20
 5805 6456 5805 6456 6873.5 6983.5 c 128,-1,21
 7942 7511 7942 7511 9746 8198 c 1,14,15
9203 7785 m 1,22,23
 7768 7239 7768 7239 6918 6819 c 128,-1,24
 6068 6399 6068 6399 5003 4540 c 1,25,26
 5921 4984 5921 4984 6954.5 5340 c 128,-1,27
 7988 5696 7988 5696 9203 7785 c 1,22,23
13257 8198 m 1,28,29
 12493 6885 12493 6885 11788.5 6188 c 128,-1,30
 11084 5491 11084 5491 10429.5 5124.5 c 128,-1,31
 9775 4758 9775 4758 9164.5 4578 c 128,-1,32
 8554 4398 8554 4398 7978 4119 c 1,33,34
 9316 6456 9316 6456 10384.5 6983.5 c 128,-1,35
 11453 7511 11453 7511 13257 8198 c 1,28,29
12715 7785 m 1,36,37
 11278 7239 11278 7239 10428 6819 c 128,-1,38
 9578 6399 9578 6399 8514 4540 c 1,39,40
 9432 4984 9432 4984 10465 5340 c 128,-1,41
 11498 5696 11498 5696 12715 7785 c 1,36,37
16616 8198 m 1,42,43
 15852 6885 15852 6885 15148 6188 c 128,-1,44
 14444 5491 14444 5491 13789 5124.5 c 128,-1,45
 13134 4758 13134 4758 12523.5 4578 c 128,-1,46
 11913 4398 11913 4398 11337 4119 c 1,47,48
 12674 6456 12674 6456 13743 6983.5 c 128,-1,49
 14812 7511 14812 7511 16616 8198 c 1,42,43
16074 7785 m 1,50,51
 14638 7239 14638 7239 13787.5 6819 c 128,-1,52
 12937 6399 12937 6399 11873 4540 c 1,53,54
 12791 4984 12791 4984 13824.5 5340 c 128,-1,55
 14858 5696 14858 5696 16074 7785 c 1,50,51
EndSplineSet
Validated: 1
EndChar

StartChar: braceright
Encoding: 125 125 76
Width: 16383
Flags: W
LayerCount: 2
Fore
SplineSet
14534 5813 m 1,0,-1
 10929 5813 l 1,1,2
 10757 5388 10757 5388 10146 5105 c 128,-1,3
 9535 4822 9535 4822 8734 4822 c 256,4,5
 7933 4822 7933 4822 7321.5 5105 c 128,-1,6
 6710 5388 6710 5388 6539 5813 c 1,7,-1
 2898 5813 l 1,8,-1
 4538 4951 l 1,9,-1
 3893 4354 l 1,10,-1
 803 6141 l 1,11,-1
 806 6502 l 1,12,-1
 2884 6504 l 1,13,-1
 6603 6504 l 1,14,15
 7125 7369 7125 7369 8734 7369 c 0,16,17
 10342 7369 10342 7369 10865 6504 c 1,18,-1
 13387 6504 l 1,19,-1
 13387 6499 l 1,20,21
 13657 6499 13657 6499 13942 6499 c 128,-1,22
 14227 6499 14227 6499 14530 6499 c 1,23,-1
 12880 7366 l 1,24,-1
 13526 7963 l 1,25,-1
 16616 6177 l 1,26,-1
 16613 5815 l 1,27,-1
 14534 5813 l 1,0,-1
EndSplineSet
Validated: 1
EndChar

StartChar: asciitilde
Encoding: 126 126 77
Width: 16383
Flags: W
LayerCount: 2
Fore
SplineSet
14534 6542 m 1,0,-1
 16613 6541 l 1,1,-1
 16616 6179 l 1,2,-1
 13526 4393 l 1,3,-1
 12880 4990 l 1,4,-1
 14530 5857 l 1,5,6
 14227 5857 14227 5857 13942 5857 c 128,-1,7
 13657 5857 13657 5857 13387 5857 c 1,8,-1
 13387 5852 l 1,9,-1
 10865 5852 l 1,10,11
 10341 4987 10341 4987 8734 4987 c 0,12,13
 7126 4987 7126 4987 6603 5852 c 1,14,-1
 2884 5852 l 1,15,-1
 806 5854 l 1,16,-1
 803 6215 l 1,17,-1
 3893 8002 l 1,18,-1
 4538 7405 l 1,19,-1
 2898 6542 l 1,20,-1
 6539 6542 l 1,21,22
 6710 6967 6710 6967 7321.5 7250.5 c 128,-1,23
 7933 7534 7933 7534 8734 7534 c 256,24,25
 9535 7534 9535 7534 10146 7250.5 c 128,-1,26
 10757 6967 10757 6967 10929 6542 c 1,27,-1
 14534 6542 l 1,0,-1
EndSplineSet
Validated: 1
EndChar

StartChar: exclamdown
Encoding: 161 161 78
Width: 16383
Flags: W
LayerCount: 2
Fore
SplineSet
14209 6491 m 1,0,-1
 13471 7587 l 1,1,-1
 16616 6155 l 1,2,-1
 13471 4720 l 1,3,-1
 14209 5817 l 1,4,-1
 10807 5817 l 1,5,6
 10278 4927 10278 4927 8709 4927 c 256,7,8
 7140 4927 7140 4927 6612 5817 c 1,9,-1
 3210 5817 l 1,10,-1
 3947 4720 l 1,11,-1
 803 6155 l 1,12,-1
 3947 7587 l 1,13,-1
 3210 6491 l 1,14,15
 4338 6491 4338 6491 5144 6492 c 128,-1,16
 5950 6493 5950 6493 6517 6494 c 1,17,18
 6655 6963 6655 6963 7272 7280.5 c 128,-1,19
 7889 7598 7889 7598 8709 7598 c 0,20,21
 9530 7598 9530 7598 10147 7280.5 c 128,-1,22
 10764 6963 10764 6963 10902 6493 c 1,23,24
 11469 6492 11469 6492 12274.5 6491.5 c 128,-1,25
 13080 6491 13080 6491 14209 6491 c 1,0,-1
EndSplineSet
Validated: 1
EndChar

StartChar: cent
Encoding: 162 162 79
Width: 16383
Flags: W
LayerCount: 2
Fore
SplineSet
14209 6485 m 1,0,-1
 13471 7583 l 1,1,-1
 16616 6149 l 1,2,-1
 13471 4714 l 1,3,-1
 14209 5812 l 1,4,-1
 3210 5812 l 1,5,-1
 3947 4714 l 1,6,-1
 803 6149 l 1,7,-1
 3947 7583 l 1,8,-1
 3210 6485 l 1,9,10
 6270 6488 6270 6488 7223.5 6489.5 c 128,-1,11
 8177 6491 8177 6491 8709.5 6490.5 c 128,-1,12
 9242 6490 9242 6490 10195.5 6488.5 c 128,-1,13
 11149 6487 11149 6487 14209 6485 c 1,0,-1
EndSplineSet
Validated: 33
EndChar

StartChar: currency
Encoding: 164 164 80
Width: 16383
Flags: W
LayerCount: 2
Fore
SplineSet
3498 6159 m 1,0,-1
 8709 11370 l 1,1,-1
 13921 6159 l 1,2,-1
 8709 947 l 1,3,-1
 3498 6159 l 1,0,-1
4925 6159 m 1,4,-1
 8709 2375 l 1,5,-1
 12493 6159 l 1,6,-1
 8709 9943 l 1,7,-1
 4925 6159 l 1,4,-1
EndSplineSet
Validated: 1
EndChar

StartChar: yen
Encoding: 165 165 81
Width: 16383
Flags: W
LayerCount: 2
Fore
SplineSet
8709 7916 m 256,0,1
 9348 7916 9348 7916 9830.5 7509.5 c 128,-1,2
 10313 7103 10313 7103 10433 6498 c 1,3,4
 11443 6498 11443 6498 14209 6495 c 1,5,-1
 13471 7593 l 1,6,-1
 16616 6159 l 1,7,-1
 13471 4725 l 1,8,-1
 14209 5823 l 1,9,-1
 10434 5823 l 1,10,11
 10315 5217 10315 5217 9831.5 4809.5 c 128,-1,12
 9348 4402 9348 4402 8709 4402 c 256,13,14
 8070 4402 8070 4402 7586.5 4809.5 c 128,-1,15
 7103 5217 7103 5217 6985 5823 c 1,16,-1
 3210 5823 l 1,17,-1
 3947 4725 l 1,18,-1
 803 6159 l 1,19,-1
 3947 7593 l 1,20,-1
 3210 6495 l 1,21,22
 4592 6496 4592 6496 5496.5 6497.5 c 128,-1,23
 6401 6499 6401 6499 6986 6500 c 1,24,25
 7106 7103 7106 7103 7588 7509.5 c 128,-1,26
 8070 7916 8070 7916 8709 7916 c 256,0,1
EndSplineSet
Validated: 1
EndChar

StartChar: brokenbar
Encoding: 166 166 82
Width: 16383
Flags: W
LayerCount: 2
Fore
SplineSet
803 5499 m 1,0,1
 3388 5499 3388 5499 5155.5 5499 c 128,-1,2
 6923 5499 6923 5499 8508.5 5499 c 128,-1,3
 10094 5499 10094 5499 11816.5 5499 c 128,-1,4
 13539 5499 13539 5499 16034 5499 c 1,5,6
 15999 5743 15999 5743 15917 5978 c 0,7,8
 15782 6371 15782 6371 15499 6795 c 1,9,-1
 16115 6795 l 1,10,11
 16363 6409 16363 6409 16492 6006 c 0,12,13
 16569 5753 16569 5753 16599 5499 c 0,14,15
 16602 5499 16602 5499 16607 5499 c 128,-1,16
 16612 5499 16612 5499 16616 5499 c 1,17,-1
 16616 5193 l 1,18,-1
 16616 4888 l 1,19,-1
 16599 4888 l 1,20,21
 16570 4636 16570 4636 16492 4380 c 0,22,23
 16364 3979 16364 3979 16115 3591 c 1,24,-1
 15499 3591 l 1,25,26
 15783 4017 15783 4017 15917 4411 c 0,27,28
 16001 4648 16001 4648 16035 4888 c 1,29,-1
 8666 4888 l 1,30,-1
 8666 3696 l 1,31,-1
 9236 3696 l 1,32,-1
 8400 2640 l 1,33,-1
 7526 3696 l 1,34,-1
 8097 3696 l 1,35,-1
 8105 4888 l 1,36,-1
 803 4888 l 1,37,-1
 803 5499 l 1,0,1
EndSplineSet
Validated: 1
EndChar

StartChar: section
Encoding: 167 167 83
Width: 16383
Flags: W
LayerCount: 2
Fore
SplineSet
803 5499 m 1,0,1
 3223 5499 3223 5499 4918 5499 c 128,-1,2
 6613 5499 6613 5499 8104 5499 c 1,3,-1
 8107 6799 l 1,4,-1
 8666 6812 l 1,5,-1
 8666 5499 l 1,6,7
 10211 5499 10211 5499 11906 5499 c 128,-1,8
 13601 5499 13601 5499 16034 5499 c 1,9,10
 15999 5743 15999 5743 15917 5978 c 0,11,12
 15782 6371 15782 6371 15499 6795 c 1,13,-1
 16115 6795 l 1,14,15
 16363 6409 16363 6409 16492 6006 c 0,16,17
 16569 5753 16569 5753 16599 5499 c 0,18,19
 16602 5499 16602 5499 16607 5499 c 128,-1,20
 16612 5499 16612 5499 16616 5499 c 1,21,-1
 16616 5193 l 1,22,-1
 16616 4888 l 1,23,-1
 16599 4888 l 1,24,25
 16570 4636 16570 4636 16492 4380 c 0,26,27
 16364 3979 16364 3979 16115 3591 c 1,28,-1
 15499 3591 l 1,29,30
 15783 4017 15783 4017 15917 4411 c 0,31,32
 16001 4648 16001 4648 16035 4888 c 1,33,-1
 8666 4888 l 1,34,-1
 8666 3696 l 1,35,-1
 8097 3696 l 1,36,-1
 8101 4888 l 1,37,-1
 803 4888 l 1,38,-1
 803 5499 l 1,0,1
EndSplineSet
Validated: 1
EndChar

StartChar: plus
Encoding: 43 43 84
Width: 16383
Flags: W
LayerCount: 2
Fore
SplineSet
1809 6287 m 1,0,-1
 2990 6287 l 1,1,-1
 2990 6810 l 1,2,-1
 3668 6054 l 1,3,-1
 2990 5298 l 1,4,-1
 2990 5822 l 1,5,-1
 1823 5822 l 1,6,7
 2019 4563 2019 4563 3773 3746.5 c 128,-1,8
 5527 2930 5527 2930 8206 2854 c 1,9,-1
 8206 4096 l 1,10,-1
 7682 4096 l 1,11,-1
 8439 4774 l 1,12,-1
 9194 4096 l 1,13,-1
 8671 4096 l 1,14,-1
 8671 2847 l 1,15,16
 8680 2847 8680 2847 8690 2847 c 128,-1,17
 8700 2847 8700 2847 8709 2847 c 0,18,19
 11583 2847 11583 2847 13486 3676 c 128,-1,20
 15389 4505 15389 4505 15596 5822 c 1,21,-1
 14460 5822 l 1,22,-1
 14460 5298 l 1,23,-1
 13782 6054 l 1,24,-1
 14460 6810 l 1,25,-1
 14460 6287 l 1,26,-1
 15610 6287 l 1,27,28
 15479 7651 15479 7651 13560.5 8561 c 128,-1,29
 11642 9471 11642 9471 8709 9471 c 0,30,31
 8700 9471 8700 9471 8690 9471 c 128,-1,32
 8680 9471 8680 9471 8671 9471 c 1,33,-1
 8671 8190 l 1,34,-1
 9194 8190 l 1,35,-1
 8439 7510 l 1,36,-1
 7682 8190 l 1,37,-1
 8206 8190 l 1,38,-1
 8206 9464 l 1,39,40
 5470 9379 5470 9379 3701 8485.5 c 128,-1,41
 1932 7592 1932 7592 1809 6287 c 1,0,-1
8709 10152 m 256,42,43
 12174 10152 12174 10152 14395 8987 c 128,-1,44
 16616 7822 16616 7822 16616 6099 c 0,45,46
 16616 4374 16616 4374 14395 3270 c 128,-1,47
 12174 2166 12174 2166 8709 2166 c 256,48,49
 5244 2166 5244 2166 3023.5 3270 c 128,-1,50
 803 4374 803 4374 803 6099 c 0,51,52
 803 7822 803 7822 3023.5 8987 c 128,-1,53
 5244 10152 5244 10152 8709 10152 c 256,42,43
EndSplineSet
Validated: 1
EndChar

StartChar: dieresis
Encoding: 168 168 85
Width: 16383
Flags: W
LayerCount: 2
Fore
SplineSet
15815 6247 m 1,0,-1
 15809 5606 l 1,1,-1
 920 5600 l 1,2,-1
 917 6251 l 1,3,-1
 15815 6247 l 1,0,-1
EndSplineSet
Validated: 1
EndChar

StartChar: copyright
Encoding: 169 169 86
Width: 16383
Flags: W
LayerCount: 2
Fore
SplineSet
8709 4230 m 0,0,1
 7912 4230 7912 4230 7346 4796 c 128,-1,2
 6780 5362 6780 5362 6780 6159 c 0,3,4
 6780 6955 6780 6955 7346 7521.5 c 128,-1,5
 7912 8088 7912 8088 8709 8088 c 0,6,7
 9505 8088 9505 8088 10071.5 7521.5 c 128,-1,8
 10638 6955 10638 6955 10638 6159 c 0,9,10
 10638 5362 10638 5362 10071.5 4796 c 128,-1,11
 9505 4230 9505 4230 8709 4230 c 0,0,1
EndSplineSet
Validated: 1
EndChar

StartChar: ordfeminine
Encoding: 170 170 87
Width: 16383
Flags: W
LayerCount: 2
Fore
SplineSet
8709 4230 m 0,0,1
 7912 4230 7912 4230 7346 4796 c 128,-1,2
 6780 5362 6780 5362 6780 6159 c 0,3,4
 6780 6955 6780 6955 7346 7521.5 c 128,-1,5
 7912 8088 7912 8088 8709 8088 c 0,6,7
 9505 8088 9505 8088 10071.5 7521.5 c 128,-1,8
 10638 6955 10638 6955 10638 6159 c 0,9,10
 10638 5362 10638 5362 10071.5 4796 c 128,-1,11
 9505 4230 9505 4230 8709 4230 c 0,0,1
EndSplineSet
Validated: 1
EndChar

StartChar: guillemotleft
Encoding: 171 171 88
Width: 16383
Flags: W
LayerCount: 2
Fore
SplineSet
8982 2836 m 1,0,-1
 8436 2839 l 1,1,-1
 8432 9479 l 1,2,-1
 8986 9482 l 1,3,-1
 8982 2836 l 1,0,-1
EndSplineSet
Validated: 1
EndChar

StartChar: logicalnot
Encoding: 172 172 89
Width: 16383
Flags: W
LayerCount: 2
Fore
SplineSet
8709 4230 m 0,0,1
 7217 4230 7217 4230 6157.5 4796 c 128,-1,2
 5098 5362 5098 5362 5098 6159 c 0,3,4
 5098 6955 5098 6955 6157.5 7521.5 c 128,-1,5
 7217 8088 7217 8088 8709 8088 c 0,6,7
 10200 8088 10200 8088 11260.5 7521.5 c 128,-1,8
 12321 6955 12321 6955 12321 6159 c 0,9,10
 12321 5362 12321 5362 11260.5 4796 c 128,-1,11
 10200 4230 10200 4230 8709 4230 c 0,0,1
EndSplineSet
Validated: 1
EndChar

StartChar: registered
Encoding: 174 174 90
Width: 16383
Flags: W
LayerCount: 2
Fore
SplineSet
5048 9820 m 1,0,-1
 12370 9820 l 1,1,-1
 12370 2498 l 1,2,-1
 5048 2498 l 1,3,-1
 5048 9820 l 1,0,-1
5791 9077 m 1,4,-1
 5791 3241 l 1,5,-1
 11627 3241 l 1,6,-1
 11627 9077 l 1,7,-1
 5791 9077 l 1,4,-1
EndSplineSet
Validated: 1
EndChar

StartChar: macron
Encoding: 175 175 91
Width: 16383
Flags: W
LayerCount: 2
Fore
SplineSet
3960 8335 m 1,0,-1
 13458 8335 l 1,1,-1
 13458 3982 l 1,2,-1
 3960 3982 l 1,3,-1
 3960 8335 l 1,0,-1
4502 7894 m 1,4,-1
 4502 4424 l 1,5,-1
 12917 4424 l 1,6,-1
 12917 7894 l 1,7,-1
 4502 7894 l 1,4,-1
EndSplineSet
Validated: 1
EndChar

StartChar: degree
Encoding: 176 176 92
Width: 16383
Flags: W
LayerCount: 2
Fore
SplineSet
3960 3982 m 1,0,-1
 3960 8335 l 1,1,-1
 13458 8335 l 1,2,-1
 13458 3982 l 1,3,-1
 3960 3982 l 1,0,-1
EndSplineSet
Validated: 1
EndChar

StartChar: paragraph
Encoding: 182 182 93
Width: 16383
Flags: W
LayerCount: 2
Fore
SplineSet
16159 6479 m 1,0,-1
 16152 5837 l 1,1,2
 13630 5840 13630 5840 12175 5840.5 c 128,-1,3
 10720 5841 10720 5841 9349.5 5839.5 c 128,-1,4
 7979 5838 7979 5838 6202.5 5836 c 128,-1,5
 4426 5834 4426 5834 1263 5833 c 1,6,-1
 1260 6484 l 1,7,8
 3468 6480 3468 6480 4994 6480.5 c 128,-1,9
 6520 6481 6520 6481 8043.5 6482.5 c 128,-1,10
 9567 6484 9567 6484 11426 6484 c 128,-1,11
 13285 6484 13285 6484 16159 6479 c 1,0,-1
3243 7964 m 0,12,13
 3639 7964 3639 7964 3639 7568 c 256,14,15
 3639 7172 3639 7172 3243 7172 c 0,16,17
 2848 7172 2848 7172 2848 7568 c 256,18,19
 2848 7964 2848 7964 3243 7964 c 0,12,13
8709 7964 m 256,20,21
 9104 7964 9104 7964 9104 7568 c 256,22,23
 9104 7172 9104 7172 8709 7172 c 256,24,25
 8314 7172 8314 7172 8314 7568 c 256,26,27
 8314 7964 8314 7964 8709 7964 c 256,20,21
14176 7964 m 0,28,29
 14571 7964 14571 7964 14571 7568 c 256,30,31
 14571 7172 14571 7172 14176 7172 c 0,32,33
 13780 7172 13780 7172 13780 7568 c 256,34,35
 13780 7964 13780 7964 14176 7964 c 0,28,29
3243 5145 m 0,36,37
 3639 5145 3639 5145 3639 4749 c 256,38,39
 3639 4353 3639 4353 3243 4353 c 0,40,41
 2848 4353 2848 4353 2848 4749 c 256,42,43
 2848 5145 2848 5145 3243 5145 c 0,36,37
8709 5145 m 256,44,45
 9104 5145 9104 5145 9104 4749 c 256,46,47
 9104 4353 9104 4353 8709 4353 c 256,48,49
 8314 4353 8314 4353 8314 4749 c 256,50,51
 8314 5145 8314 5145 8709 5145 c 256,44,45
14176 5145 m 0,52,53
 14571 5145 14571 5145 14571 4749 c 256,54,55
 14571 4353 14571 4353 14176 4353 c 0,56,57
 13780 4353 13780 4353 13780 4749 c 256,58,59
 13780 5145 13780 5145 14176 5145 c 0,52,53
EndSplineSet
Validated: 33
EndChar

StartChar: periodcentered
Encoding: 183 183 94
Width: 16383
Flags: W
LayerCount: 2
Fore
SplineSet
803 8003 m 1,0,-1
 4293 8003 l 1,1,-1
 9907 8003 l 1,2,-1
 9917 8003 l 1,3,-1
 9917 7992 l 1,4,-1
 12617 4820 l 1,5,-1
 16616 4820 l 1,6,-1
 16616 4314 l 1,7,-1
 13048 4314 l 1,8,-1
 7502 4314 l 1,9,-1
 7435 4314 l 1,10,-1
 4724 7498 l 1,11,-1
 803 7498 l 1,12,-1
 803 8003 l 1,0,-1
5331 7548 m 1,13,-1
 7694 4769 l 1,14,-1
 12106 4769 l 1,15,-1
 9744 7548 l 1,16,-1
 5331 7548 l 1,13,-1
EndSplineSet
Validated: 1
EndChar

StartChar: cedilla
Encoding: 184 184 95
Width: 16383
Flags: W
LayerCount: 2
Fore
SplineSet
8709 2993 m 256,0,1
 7401 2993 7401 2993 6472.5 3922 c 128,-1,2
 5544 4851 5544 4851 5544 6159 c 0,3,4
 5544 7466 5544 7466 6472.5 8395.5 c 128,-1,5
 7401 9325 7401 9325 8709 9325 c 256,6,7
 10017 9325 10017 9325 10946 8395.5 c 128,-1,8
 11875 7466 11875 7466 11875 6159 c 0,9,10
 11875 4851 11875 4851 10946 3922 c 128,-1,11
 10017 2993 10017 2993 8709 2993 c 256,0,1
8709 3805 m 256,12,13
 9681 3805 9681 3805 10372 4496 c 128,-1,14
 11063 5187 11063 5187 11063 6159 c 256,15,16
 11063 7131 11063 7131 10372 7821.5 c 128,-1,17
 9681 8512 9681 8512 8709 8512 c 256,18,19
 7737 8512 7737 8512 7046.5 7821.5 c 128,-1,20
 6356 7131 6356 7131 6356 6159 c 256,21,22
 6356 5187 6356 5187 7046.5 4496 c 128,-1,23
 7737 3805 7737 3805 8709 3805 c 256,12,13
EndSplineSet
Validated: 1
EndChar

StartChar: quotesingle
Encoding: 39 39 96
Width: 17676
Flags: W
LayerCount: 2
Fore
SplineSet
6527 5460 m 0,0,1
 7557 5308 7557 5308 8042.5 6246 c 128,-1,2
 8528 7184 8528 7184 9278 7535 c 0,3,4
 9863 7807 9863 7807 10545 7544.5 c 128,-1,5
 11227 7282 11227 7282 11545 6751 c 0,6,7
 11614 6636 11614 6636 11675 6445.5 c 128,-1,8
 11736 6255 11736 6255 11740 6255 c 2,9,-1
 15163 6239 l 1,10,-1
 15163 6928 l 1,11,-1
 16835 5910 l 1,12,-1
 15163 4809 l 1,13,-1
 15163 5630 l 1,14,-1
 11821 5611 l 2,15,16
 11771 5611 11771 5611 11771 5599 c 0,17,18
 11771 5161 11771 5161 11716 4763 c 1,19,-1
 11047 4770 l 1,20,21
 11058 4922 11058 4922 11089.5 5139.5 c 128,-1,22
 11121 5357 11121 5357 11134 5499 c 0,23,24
 11203 6252 11203 6252 10581.5 6739.5 c 128,-1,25
 9960 7227 9960 7227 9339 6738 c 0,26,27
 9233 6654 9233 6654 9104 6467 c 128,-1,28
 8975 6280 8975 6280 8780 6025 c 0,29,30
 8016 5022 8016 5022 6951.5 4819.5 c 128,-1,31
 5887 4617 5887 4617 5161 5603 c 1,32,-1
 920 5600 l 1,33,-1
 917 6251 l 1,34,-1
 4813 6245 l 2,35,36
 4833 6245 4833 6245 4760.5 6808 c 128,-1,37
 4688 7371 4688 7371 4793 7664 c 1,38,-1
 5476 7664 l 1,39,40
 5392 6938 5392 6938 5613.5 6250 c 128,-1,41
 5835 5562 5835 5562 6527 5460 c 0,0,1
EndSplineSet
Validated: 33
EndChar

StartChar: parenright
Encoding: 41 41 97
Width: 17425
Flags: W
LayerCount: 2
Fore
SplineSet
6356 11245 m 1,0,-1
 7152 11245 l 1,1,-1
 7152 8956 l 1,2,3
 8416 8871 8416 8871 9031 8185.5 c 128,-1,4
 9646 7500 9646 7500 9879 6572 c 1,5,-1
 15025 6583 l 1,6,-1
 15025 7437 l 1,7,-1
 16596 6239 l 1,8,-1
 15025 5038 l 1,9,-1
 15025 5765 l 1,10,-1
 9867 5771 l 1,11,12
 9698 4893 9698 4893 9069 4197 c 128,-1,13
 8440 3501 8440 3501 7156 3410 c 1,14,-1
 7146 1092 l 1,15,-1
 6348 1072 l 1,16,-1
 6348 4217 l 1,17,18
 7307 3877 7307 3877 8150.5 4351 c 128,-1,19
 8994 4825 8994 4825 9175 5790 c 1,20,-1
 823 5765 l 1,21,-1
 835 6540 l 1,22,-1
 9177 6580 l 1,23,24
 9086 7238 9086 7238 8496.5 7761 c 128,-1,25
 7907 8284 7907 8284 7152 8290 c 1,26,27
 7087 8304 7087 8304 6699.5 8234 c 128,-1,28
 6312 8164 6312 8164 6356 8140 c 1,29,-1
 6356 11245 l 1,0,-1
EndSplineSet
Validated: 37
EndChar

StartChar: eight
Encoding: 56 56 98
Width: 16133
Flags: W
LayerCount: 2
Fore
SplineSet
2053 10323 m 1,0,-1
 15365 10323 l 1,1,-1
 15365 9621 l 1,2,3
 15246 9620 15246 9620 15127 9619.5 c 128,-1,4
 15008 9619 15008 9619 14890 9618 c 1,5,6
 14652 9488 14652 9488 14438 9172 c 1,7,8
 14411 9123 14411 9123 14398 9109 c 1,9,10
 14398 9187 14398 9187 14339 8984 c 1,11,-1
 14332 8984 l 1,12,13
 14142 8554 14142 8554 14038 8072 c 1,14,15
 13991 7806 13991 7806 13875 7481 c 1,16,17
 13729 7146 13729 7146 13731 7153 c 1,18,-1
 13724 7153 l 1,19,20
 13494 6675 13494 6675 13202 6400 c 1,21,22
 13742 6398 13742 6398 14283.5 6397 c 128,-1,23
 14825 6396 14825 6396 15365 6394 c 1,24,-1
 15365 5992 l 1,25,26
 15246 5991 15246 5991 15127 5990.5 c 128,-1,27
 15008 5990 15008 5990 14890 5990 c 1,28,29
 14821 5947 14821 5947 14740 5891 c 1,30,31
 14569 5743 14569 5743 14394 5469 c 0,32,33
 14392 5463 14392 5463 14392 5456 c 1,34,-1
 14385 5456 l 1,35,36
 14343 5374 14343 5374 14342 5362 c 1,37,-1
 14335 5362 l 1,38,39
 14209 5072 14209 5072 14122 4792 c 1,40,41
 14077 4613 14077 4613 14036.5 4429.5 c 128,-1,42
 13996 4246 13996 4246 13950 4069 c 1,43,44
 13863 3820 13863 3820 13863 3820 c 1,45,46
 13759 3589 13759 3589 13759 3589 c 2,47,48
 13738 3548 13738 3548 13734 3531 c 1,49,-1
 13728 3531 l 1,50,51
 13564 3197 13564 3197 13278 2849 c 1,52,53
 13201 2770 13201 2770 13201 2762 c 1,54,-1
 15365 2762 l 1,55,-1
 15365 1994 l 1,56,-1
 2053 1994 l 1,57,-1
 2053 2764 l 1,58,59
 2465 2766 2465 2766 2671 2766 c 1,60,61
 3260 3192 3260 3192 3603 4294 c 1,62,63
 3623 4372 3623 4372 3637 4432.5 c 128,-1,64
 3651 4493 3651 4493 3715 4781 c 1,65,66
 3741 4874 3741 4874 3809 5105 c 1,67,68
 3834 5173 3834 5173 3892.5 5343.5 c 128,-1,69
 3951 5514 3951 5514 3991 5536 c 1,70,71
 4000 5574 4000 5574 4022.5 5603 c 128,-1,72
 4045 5632 4045 5632 4054 5668 c 1,73,-1
 4061 5668 l 1,74,75
 4080 5769 4080 5769 4153 5812 c 1,76,-1
 4153 5824 l 1,77,-1
 4273 5975 l 1,78,79
 4290 5986 4290 5986 4290 5992 c 1,80,-1
 2053 5992 l 1,81,-1
 2053 6395 l 1,82,83
 2259 6396 2259 6396 2671 6396 c 1,84,85
 2850 6512 2850 6512 3072 6805 c 1,86,87
 3195 6992 3195 6992 3205 6997 c 1,88,-1
 3205 7011 l 1,89,90
 3428 7377 3428 7377 3603 7921 c 1,91,92
 3623 8002 3623 8002 3662 8174.5 c 128,-1,93
 3701 8347 3701 8347 3743 8515 c 1,94,95
 3875 8949 3875 8949 4021 9236 c 1,96,97
 4026 9236 4026 9236 4043 9285 c 1,98,99
 4104 9378 4104 9378 4114 9384 c 1,100,-1
 4114 9397 l 1,101,102
 4235 9559 4235 9559 4284 9616 c 1,103,104
 3726 9616 3726 9616 3167.5 9658.5 c 128,-1,105
 2609 9701 2609 9701 2053 9672 c 1,106,-1
 2053 10323 l 1,0,-1
2952 2762 m 1,107,108
 3576 2766 3576 2766 3890 2766 c 1,109,110
 4064 2903 4064 2903 4238 3108 c 1,111,112
 4647 3676 4647 3676 4836 4355 c 1,113,114
 4896 4630 4896 4630 4947 4843 c 1,115,116
 5039 5162 5039 5162 5185 5505 c 1,117,-1
 5192 5505 l 1,118,119
 5208 5596 5208 5596 5296.5 5718.5 c 128,-1,120
 5385 5841 5385 5841 5421 5894 c 1,121,122
 5505 5990 5505 5990 5505 5990 c 1,123,-1
 4641 5990 l 1,124,125
 4420 5858 4420 5858 4222 5598 c 1,126,-1
 4222 5587 l 1,127,128
 4132 5507 4132 5507 4132 5437 c 0,129,130
 4129 5435 4129 5435 4127 5434 c 128,-1,131
 4125 5433 4125 5433 4123 5432 c 0,132,133
 3892 4978 3892 4978 3761 4299 c 1,134,135
 3617 3699 3617 3699 3321 3250 c 1,136,-1
 3321 3238 l 1,137,138
 3311 3233 3311 3233 3285 3193 c 1,139,-1
 3285 3183 l 1,140,141
 3293 3189 3293 3189 3090 2920 c 1,142,143
 2994 2811 2994 2811 2952 2762 c 1,107,108
4167 2762 m 1,144,145
 4455 2763 4455 2763 4744 2764.5 c 128,-1,146
 5033 2766 5033 2766 5322 2766 c 1,147,148
 5557 2949 5557 2949 5716 3171 c 0,149,150
 5721 3174 5721 3174 5725.5 3179 c 128,-1,151
 5730 3184 5730 3184 5736 3188 c 1,152,-1
 5736 3201 l 1,153,154
 6021 3555 6021 3555 6264 4337 c 1,155,156
 6312 4552 6312 4552 6377 4824 c 1,157,158
 6478 5183 6478 5183 6621 5512 c 1,159,-1
 6629 5512 l 1,160,161
 6629 5520 6629 5520 6631 5528 c 0,162,163
 6752 5768 6752 5768 6935 5988 c 1,164,165
 6665 5989 6665 5989 6395 5989.5 c 128,-1,166
 6125 5990 6125 5990 5855 5990 c 1,167,168
 5729 5909 5729 5909 5664 5857 c 1,169,170
 5557 5752 5557 5752 5401 5538 c 1,171,172
 5178 5140 5178 5140 5032 4568 c 1,173,174
 4976 4294 4976 4294 4947 4176 c 1,175,176
 4759 3517 4759 3517 4305 2920 c 1,177,178
 4241 2849 4241 2849 4167 2762 c 1,144,145
5603 2762 m 1,179,180
 5890 2763 5890 2763 6178.5 2764.5 c 128,-1,181
 6467 2766 6467 2766 6755 2766 c 1,182,183
 7096 3009 7096 3009 7380 3544 c 1,184,-1
 7387 3544 l 1,185,186
 7390 3566 7390 3566 7419 3619 c 1,187,-1
 7425 3619 l 1,188,189
 7423 3611 7423 3611 7565 3941 c 1,190,191
 7633 4131 7633 4131 7652 4181 c 1,192,193
 7715 4403 7715 4403 7767 4634 c 128,-1,194
 7819 4865 7819 4865 7887 5086 c 1,195,196
 7962 5304 7962 5304 8125 5649 c 1,197,198
 8169 5710 8169 5710 8170 5711 c 2,199,-1
 8170 5724 l 1,200,201
 8178 5731 8178 5731 8238 5825 c 1,202,-1
 8368 5988 l 1,203,204
 8098 5989 8098 5989 7829.5 5989.5 c 128,-1,205
 7561 5990 7561 5990 7292 5990 c 1,206,207
 7190 5928 7190 5928 7124 5877 c 1,208,209
 6906 5670 6906 5670 6765 5415 c 1,210,211
 6661 5198 6661 5198 6617 5085 c 1,212,213
 6499 4749 6499 4749 6401 4256 c 1,214,215
 6226 3603 6226 3603 5925 3176 c 0,216,217
 5923 3170 5923 3170 5923 3164 c 1,218,219
 5913 3158 5913 3158 5734 2914 c 1,220,221
 5608 2769 5608 2769 5603 2762 c 1,179,180
7035 2762 m 1,222,223
 7355 2763 7355 2763 7675.5 2764.5 c 128,-1,224
 7996 2766 7996 2766 8317 2766 c 1,225,226
 8439 2859 8439 2859 8567 2986 c 1,227,228
 8687 3133 8687 3133 8808 3301 c 1,229,-1
 8808 3313 l 1,230,231
 9041 3663 9041 3663 9249 4294 c 1,232,233
 9269 4372 9269 4372 9283 4432.5 c 128,-1,234
 9297 4493 9297 4493 9360 4781 c 1,235,236
 9464 5152 9464 5152 9605 5486 c 1,237,-1
 9612 5486 l 1,238,239
 9619 5525 9619 5525 9697.5 5662 c 128,-1,240
 9776 5799 9776 5799 9799 5812 c 1,241,-1
 9799 5824 l 1,242,243
 9865 5909 9865 5909 9936 5990 c 1,244,-1
 8724 5990 l 1,245,246
 8515 5857 8515 5857 8368 5680 c 1,247,-1
 8254 5518 l 1,248,-1
 8254 5505 l 1,249,250
 8254 5505 8254 5505 8246 5501 c 1,251,252
 8063 5177 8063 5177 7918 4650 c 1,253,254
 7874 4456 7874 4456 7806 4143 c 1,255,256
 7690 3749 7690 3749 7491 3398 c 0,257,258
 7488 3385 7488 3385 7484 3379.5 c 128,-1,259
 7480 3374 7480 3374 7478 3362 c 1,260,261
 7465 3351 7465 3351 7299 3085 c 1,262,263
 7199 2953 7199 2953 7035 2762 c 1,222,223
8599 2762 m 1,264,265
 8918 2763 8918 2763 9239.5 2764.5 c 128,-1,266
 9561 2766 9561 2766 9883 2766 c 1,267,268
 10201 3029 10201 3029 10390 3340 c 0,269,270
 10396 3344 10396 3344 10399 3344 c 1,271,-1
 10399 3356 l 1,272,273
 10625 3717 10625 3717 10818 4313 c 1,274,275
 11010 5183 11010 5183 11264 5663 c 1,276,277
 11315 5749 11315 5749 11373 5839 c 1,278,279
 11448 5931 11448 5931 11498 5990 c 1,280,-1
 10286 5990 l 1,281,282
 10127 5896 10127 5896 9918 5668 c 1,283,-1
 9918 5654 l 1,284,285
 9908 5651 9908 5651 9868 5598 c 1,286,-1
 9868 5587 l 1,287,288
 9778 5530 9778 5530 9778 5437 c 1,289,290
 9770 5433 9770 5433 9769 5432 c 0,291,292
 9539 4982 9539 4982 9407 4299 c 1,293,294
 9262 3695 9262 3695 8966 3250 c 1,295,-1
 8966 3238 l 1,296,297
 8957 3233 8957 3233 8931 3193 c 1,298,-1
 8931 3183 l 1,299,300
 8939 3189 8939 3189 8736 2920 c 1,301,302
 8665 2839 8665 2839 8599 2762 c 1,264,265
10160 2762 m 1,303,304
 10426 2763 10426 2763 10693 2764.5 c 128,-1,305
 10960 2766 10960 2766 11227 2766 c 1,306,307
 11411 2905 11411 2905 11615 3158 c 1,308,309
 11720 3313 11720 3313 11730 3320 c 1,310,-1
 11730 3332 l 1,311,312
 11849 3528 11849 3528 11891 3619 c 1,313,-1
 11898 3619 l 1,314,315
 11901 3636 11901 3636 12031 3922 c 1,316,317
 12078 4057 12078 4057 12121 4169 c 1,318,319
 12183 4385 12183 4385 12235 4612.5 c 128,-1,320
 12287 4840 12287 4840 12350 5059 c 1,321,322
 12431 5289 12431 5289 12530 5518 c 1,323,-1
 12538 5518 l 1,324,325
 12538 5523 12538 5523 12540 5535 c 0,326,327
 12669 5802 12669 5802 12846 5990 c 1,328,-1
 11853 5990 l 1,329,330
 11684 5894 11684 5894 11477 5663 c 1,331,-1
 11477 5649 l 1,332,333
 11311 5462 11311 5462 11207 5162 c 128,-1,334
 11103 4862 11103 4862 11022 4556 c 1,335,336
 10966 4280 10966 4280 10937 4162 c 1,337,338
 10847 3858 10847 3858 10619 3398 c 1,339,-1
 10616 3381 l 2,340,341
 10614 3381 10614 3381 10608 3378 c 0,342,343
 10578 3329 10578 3329 10552.5 3286 c 128,-1,344
 10527 3243 10527 3243 10414 3070 c 1,345,346
 10301 2923 10301 2923 10160 2762 c 1,303,304
11508 2762 m 1,347,348
 11861 2763 11861 2763 12215 2764.5 c 128,-1,349
 12569 2766 12569 2766 12923 2766 c 1,350,-1
 13050 2868 l 1,351,352
 13140 2956 13140 2956 13300 3145 c 1,353,354
 13552 3505 13552 3505 13766 4030 c 1,355,356
 13806 4143 13806 4143 13874 4369 c 1,357,358
 13929 4624 13929 4624 13985 4857 c 1,359,360
 14097 5246 14097 5246 14236 5538 c 0,361,362
 14240 5542 14240 5542 14244 5542 c 0,363,364
 14256 5605 14256 5605 14315 5691.5 c 128,-1,365
 14374 5778 14374 5778 14400 5820 c 1,366,367
 14501 5951 14501 5951 14539 5990 c 1,368,-1
 13197 5990 l 1,369,370
 12974 5848 12974 5848 12813 5644 c 1,371,372
 12477 5159 12477 5159 12304 4237 c 1,373,374
 12224 3961 12224 3961 12105 3674 c 1,375,376
 11992 3449 11992 3449 11972 3410 c 128,-1,377
 11952 3371 11952 3371 11944 3362 c 1,378,-1
 11944 3351 l 1,379,380
 11947 3353 11947 3353 11783 3102 c 1,381,-1
 11651 2928 l 1,382,383
 11511 2772 11511 2772 11508 2762 c 1,347,348
2952 6393 m 1,384,385
 3185 6393 3185 6393 3418 6394.5 c 128,-1,386
 3651 6396 3651 6396 3885 6396 c 1,387,388
 4307 6683 4307 6683 4665 7488 c 1,389,390
 4729 7658 4729 7658 4762 7740 c 1,391,392
 4822 7932 4822 7932 4869.5 8138 c 128,-1,393
 4917 8344 4917 8344 4968 8546 c 1,394,395
 5188 9272 5188 9272 5505 9618 c 1,396,-1
 4641 9618 l 1,397,398
 4380 9465 4380 9465 4156 9121 c 1,399,400
 4156 9091 4156 9091 4113 9042 c 1,401,402
 3974 8750 3974 8750 3859 8371 c 1,403,404
 3817 8198 3817 8198 3778 8018 c 128,-1,405
 3739 7838 3739 7838 3719 7759 c 0,406,407
 3687 7654 3687 7654 3616 7447 c 1,408,-1
 3608 7447 l 1,409,410
 3586 7387 3586 7387 3506 7204 c 1,411,-1
 3500 7204 l 1,412,413
 3478 7151 3478 7151 3425 7057 c 1,414,415
 3420 7033 3420 7033 3401 7016 c 1,416,-1
 3401 7004 l 1,417,418
 3405 7006 3405 7006 3321 6879 c 1,419,-1
 3321 6867 l 1,420,421
 3311 6860 3311 6860 3203 6699 c 1,422,423
 3062 6515 3062 6515 2952 6393 c 1,384,385
4167 6393 m 1,424,425
 4454 6393 4454 6393 4742 6394.5 c 128,-1,426
 5030 6396 5030 6396 5318 6396 c 1,427,428
 5496 6513 5496 6513 5742 6831 c 1,429,430
 5933 7131 5933 7131 5923 7122 c 1,431,432
 6017 7300 6017 7300 6154 7625 c 1,433,434
 6252 7906 6252 7906 6322 8213 c 128,-1,435
 6392 8520 6392 8520 6485 8808 c 0,436,437
 6511 8877 6511 8877 6582 9059 c 1,438,-1
 6590 9059 l 1,439,440
 6685 9317 6685 9317 6937 9618 c 1,441,-1
 5855 9618 l 1,442,443
 5737 9549 5737 9549 5579 9405 c 1,444,445
 5447 9232 5447 9232 5426 9203 c 0,446,447
 5250 8905 5250 8905 5145 8606 c 1,448,449
 5051 8295 5051 8295 4968 7890 c 1,450,451
 4885 7548 4885 7548 4671 7114 c 0,452,453
 4669 7102 4669 7102 4669 7097 c 1,454,455
 4665 7097 4665 7097 4661 7093 c 0,456,457
 4531 6852 4531 6852 4375 6636 c 1,458,459
 4323 6575 4323 6575 4270.5 6514.5 c 128,-1,460
 4218 6454 4218 6454 4167 6393 c 1,424,425
5603 6393 m 1,461,462
 5890 6393 5890 6393 6178.5 6394.5 c 128,-1,463
 6467 6396 6467 6396 6755 6396 c 1,464,465
 7007 6580 7007 6580 7257 6951 c 1,466,467
 7457 7284 7457 7284 7641 7777 c 1,468,469
 7710 8002 7710 8002 7764 8242.5 c 128,-1,470
 7818 8483 7818 8483 7884 8712 c 1,471,472
 7925 8827 7925 8827 8019 9065 c 1,473,-1
 8026 9065 l 1,474,475
 8029 9082 8029 9082 8125 9277 c 1,476,477
 8272 9511 8272 9511 8370 9618 c 1,478,-1
 7288 9618 l 1,479,480
 7066 9475 7066 9475 6896 9260 c 1,481,482
 6573 8769 6573 8769 6395 7853 c 1,483,484
 6299 7519 6299 7519 6112 7122 c 1,485,486
 5986 6902 5986 6902 5808 6636 c 1,487,488
 5676 6481 5676 6481 5603 6393 c 1,461,462
7032 6393 m 1,489,490
 7353 6393 7353 6393 7674.5 6394.5 c 128,-1,491
 7996 6396 7996 6396 8317 6396 c 1,492,493
 8458 6507 8458 6507 8616 6670 c 1,494,495
 8789 6899 8789 6899 8787 6898 c 1,496,-1
 8787 6910 l 1,497,498
 8745 6892 8745 6892 8850 6997 c 1,499,-1
 8850 7011 l 1,500,501
 8850 7011 8850 7011 8860 7021 c 0,502,503
 9050 7357 9050 7357 9200 7770 c 1,504,505
 9269 7992 9269 7992 9321 8229 c 128,-1,506
 9373 8466 9373 8466 9441 8690 c 1,507,-1
 9527 8932 l 2,508,509
 9544 8974 9544 8974 9598.5 9104 c 128,-1,510
 9653 9234 9653 9234 9672 9234 c 1,511,512
 9683 9338 9683 9338 9760 9384 c 1,513,-1
 9760 9397 l 1,514,515
 9856 9528 9856 9528 9929 9616 c 1,516,517
 9626 9617 9626 9617 9323.5 9617.5 c 128,-1,518
 9021 9618 9021 9618 8720 9618 c 1,519,520
 8615 9554 8615 9554 8484 9441 c 1,521,522
 8410 9359 8410 9359 8293 9210 c 1,523,-1
 8293 9196 l 1,524,525
 8293 9196 8293 9196 8276 9179 c 1,526,527
 8093 8871 8093 8871 7954 8414 c 1,528,529
 7901 8206 7901 8206 7855 7994 c 128,-1,530
 7809 7782 7809 7782 7746 7584 c 1,531,532
 7707 7484 7707 7484 7656.5 7364.5 c 128,-1,533
 7606 7245 7606 7245 7604 7233 c 1,534,-1
 7598 7233 l 1,535,536
 7596 7223 7596 7223 7488 7011 c 1,537,538
 7480 7005 7480 7005 7388 6850 c 1,539,540
 7198 6574 7198 6574 7032 6393 c 1,489,490
8599 6393 m 1,541,542
 8917 6393 8917 6393 9237.5 6394.5 c 128,-1,543
 9558 6396 9558 6396 9879 6396 c 1,544,545
 10239 6652 10239 6652 10588 7331 c 1,546,547
 10588 7331 10588 7331 10681 7541 c 1,548,549
 10765 7770 10765 7770 10808 7909 c 1,550,551
 10868 8170 10868 8170 10948 8498 c 1,552,553
 11050 8843 11050 8843 11200 9177 c 1,554,-1
 11206 9177 l 1,555,556
 11212 9200 11212 9200 11245 9266 c 1,557,558
 11261 9266 11261 9266 11275 9318.5 c 128,-1,559
 11289 9371 11289 9371 11316 9371 c 1,560,-1
 11316 9384 l 1,561,562
 11357 9445 11357 9445 11498 9618 c 1,563,-1
 10286 9618 l 1,564,565
 10026 9464 10026 9464 9802 9121 c 1,566,567
 9802 9097 9802 9097 9784.5 9089.5 c 128,-1,568
 9767 9082 9767 9082 9767 9046 c 1,569,570
 9759 9041 9759 9041 9653 8820 c 1,571,572
 9535 8507 9535 8507 9463 8203 c 1,573,574
 9407 7928 9407 7928 9378 7810 c 1,575,576
 9286 7512 9286 7512 9152 7204 c 1,577,-1
 9145 7204 l 1,578,579
 9057 6990 9057 6990 9067 7041 c 0,580,581
 9068 7041 9068 7041 9060 7037 c 1,582,583
 9057 7024 9057 7024 8966 6879 c 1,584,-1
 8966 6867 l 1,585,586
 8957 6860 8957 6860 8848 6699 c 1,587,588
 8696 6501 8696 6501 8599 6393 c 1,541,542
10160 6393 m 1,589,590
 10426 6393 10426 6393 10693 6394.5 c 128,-1,591
 10960 6396 10960 6396 11227 6396 c 1,592,593
 11379 6504 11379 6504 11627 6800 c 1,594,595
 11718 6945 11718 6945 11792 7057 c 1,596,597
 11850 7168 11850 7168 11849 7166 c 1,598,-1
 11856 7166 l 1,599,600
 11857 7178 11857 7178 11933 7326 c 1,601,602
 12088 7685 12088 7685 12156 7916 c 1,603,604
 12215 8176 12215 8176 12268 8396 c 1,605,606
 12365 8757 12365 8757 12508 9101 c 1,607,608
 12645 9381 12645 9381 12841 9616 c 1,609,610
 12592 9617 12592 9617 12344.5 9617.5 c 128,-1,611
 12097 9618 12097 9618 11849 9618 c 1,612,613
 11797 9586 11797 9586 11645 9475 c 1,614,615
 11646 9476 11646 9476 11505 9326 c 1,616,617
 11382 9158 11382 9158 11233 8857 c 1,618,619
 11078 8471 11078 8471 10962 7890 c 1,620,621
 10876 7540 10876 7540 10616 7011 c 0,622,623
 10610 7007 10610 7007 10608 7005 c 0,624,625
 10443 6737 10443 6737 10287 6537 c 0,626,627
 10264 6511 10264 6511 10160 6393 c 1,589,590
11508 6393 m 1,628,629
 11860 6393 11860 6393 12213 6394.5 c 128,-1,630
 12566 6396 12566 6396 12920 6396 c 1,631,632
 13218 6615 13218 6615 13437 6981 c 1,633,634
 13445 6985 13445 6985 13447 6985 c 1,635,-1
 13447 6997 l 1,636,637
 13454 7004 13454 7004 13454 7004 c 1,638,639
 13711 7461 13711 7461 13848 7909 c 1,640,641
 13907 8151 13907 8151 13965.5 8388.5 c 128,-1,642
 14024 8626 14024 8626 14101 8854 c 0,643,644
 14106 8866 14106 8866 14183.5 9059.5 c 128,-1,645
 14261 9253 14261 9253 14287 9253 c 1,646,647
 14302 9349 14302 9349 14360 9378 c 1,648,-1
 14360 9390 l 1,649,650
 14493 9569 14493 9569 14539 9618 c 1,651,-1
 13197 9618 l 1,652,653
 13090 9552 13090 9552 13075 9543 c 0,654,655
 12942 9431 12942 9431 12765 9210 c 1,656,-1
 12765 9196 l 1,657,658
 12753 9185 12753 9185 12670 9044 c 1,659,660
 12576 8844 12576 8844 12529 8731 c 1,661,662
 12394 8338 12394 8338 12304 7871 c 1,663,664
 12158 7293 12158 7293 11786 6740 c 1,665,-1
 11786 6730 l 1,666,667
 11712 6639 11712 6639 11695 6617 c 1,668,-1
 11695 6604 l 1,669,670
 11648 6552 11648 6552 11601.5 6498.5 c 128,-1,671
 11555 6445 11555 6445 11508 6393 c 1,628,629
EndSplineSet
Validated: 37
EndChar

StartChar: question
Encoding: 63 63 99
Width: 17446
Flags: W
LayerCount: 2
Fore
SplineSet
803 7055 m 1,0,-1
 7311 7055 l 1,1,-1
 8534 8675 l 1,2,-1
 8553 11363 l 1,3,-1
 8995 11363 l 1,4,-1
 8979 8696 l 1,5,-1
 10167 7055 l 1,6,-1
 16616 7055 l 1,7,-1
 16616 6550 l 1,8,-1
 803 6550 l 1,9,-1
 803 7055 l 1,0,-1
803 5214 m 1,10,-1
 803 5719 l 1,11,-1
 16616 5719 l 1,12,-1
 16616 5214 l 1,13,-1
 10167 5214 l 1,14,-1
 8979 3573 l 1,15,-1
 8995 954 l 1,16,-1
 8553 954 l 1,17,-1
 8534 3593 l 1,18,-1
 7311 5214 l 1,19,-1
 803 5214 l 1,10,-1
EndSplineSet
Validated: 1
EndChar

StartChar: V
Encoding: 86 86 100
Width: 17470
Flags: W
LayerCount: 2
Fore
SplineSet
8474 4680 m 1,0,-1
 8506 8335 l 1,1,-1
 7857 8111 l 1,2,-1
 8801 9844 l 1,3,-1
 9616 8111 l 1,4,-1
 8971 8297 l 1,5,-1
 8991 4680 l 1,6,-1
 16639 4684 l 1,7,-1
 16639 4197 l 1,8,-1
 9013 4197 l 1,9,-1
 8474 4197 l 1,10,-1
 825 4197 l 1,11,-1
 825 4680 l 1,12,-1
 8474 4680 l 1,0,-1
EndSplineSet
Validated: 1
EndChar

StartChar: g
Encoding: 103 103 101
Width: 17296
Flags: W
LayerCount: 2
Fore
SplineSet
6412 8386 m 1,0,-1
 10465 8386 l 1,1,-1
 10465 6568 l 1,2,-1
 14945 6568 l 1,3,-1
 14961 7437 l 1,4,-1
 16473 6239 l 1,5,-1
 14945 5038 l 1,6,-1
 14945 5801 l 1,7,-1
 10465 5798 l 1,8,-1
 10465 3964 l 1,9,-1
 6412 3955 l 1,10,-1
 6412 1027 l 1,11,-1
 5678 1041 l 1,12,-1
 5678 4645 l 1,13,-1
 9745 4641 l 1,14,-1
 9742 5823 l 1,15,-1
 1350 5823 l 1,16,-1
 1342 6553 l 1,17,-1
 9740 6548 l 1,18,-1
 9735 7682 l 1,19,-1
 5684 7696 l 1,20,-1
 5678 11279 l 1,21,-1
 6412 11290 l 1,22,-1
 6412 8386 l 1,0,-1
EndSplineSet
Validated: 1
EndChar

StartChar: h
Encoding: 104 104 102
Width: 17570
Flags: W
LayerCount: 2
Fore
SplineSet
15303 6461 m 1,0,-1
 15314 7180 l 1,1,-1
 16734 6239 l 1,2,-1
 15301 5128 l 1,3,-1
 15304 5857 l 1,4,-1
 10141 5857 l 1,5,-1
 6068 3770 l 1,6,-1
 5137 3776 l 1,7,-1
 9223 5857 l 1,8,-1
 803 5857 l 1,9,-1
 803 6461 l 1,10,-1
 9208 6461 l 1,11,-1
 5132 8547 l 1,12,-1
 6085 8546 l 1,13,-1
 10160 6461 l 1,14,-1
 15303 6461 l 1,0,-1
EndSplineSet
Validated: 1
EndChar

StartChar: plusminus
Encoding: 177 177 103
Width: 17587
Flags: W
LayerCount: 2
Fore
SplineSet
14716 5812 m 1,0,1
 12763 5815 12763 5815 11578 5815 c 128,-1,2
 10393 5815 10393 5815 9253 5813.5 c 128,-1,3
 8113 5812 8113 5812 6655.5 5810.5 c 128,-1,4
 5198 5809 5198 5809 2701 5808 c 1,5,6
 2455 5091 2455 5091 1714 5091 c 0,7,8
 1282 5091 1282 5091 975.5 5404.5 c 128,-1,9
 669 5718 669 5718 669 6159 c 256,10,11
 669 6600 669 6600 975.5 6913.5 c 128,-1,12
 1282 7227 1282 7227 1714 7227 c 0,13,14
 2438 7227 2438 7227 2694 6531 c 0,15,16
 2716 6477 2716 6477 2737 6405 c 1,17,18
 4449 6402 4449 6402 5689.5 6403 c 128,-1,19
 6930 6404 6930 6404 8182 6405 c 128,-1,20
 9434 6406 9434 6406 10939.5 6406 c 128,-1,21
 12445 6406 12445 6406 14687 6403 c 1,22,23
 14875 7227 14875 7227 15705 7227 c 0,24,25
 16137 7227 16137 7227 16443.5 6913.5 c 128,-1,26
 16750 6600 16750 6600 16750 6159 c 256,27,28
 16750 5718 16750 5718 16443.5 5404.5 c 128,-1,29
 16137 5091 16137 5091 15705 5091 c 0,30,31
 14960 5091 14960 5091 14716 5812 c 1,0,1
EndSplineSet
Validated: 33
EndChar

StartChar: uni00B2
Encoding: 178 178 104
Width: 17446
Flags: W
LayerCount: 2
Fore
SplineSet
6414 6913 m 0,0,1
 5721 6810 5721 6810 5499.5 6122.5 c 128,-1,2
 5278 5435 5278 5435 5362 4709 c 1,3,-1
 4680 4709 l 1,4,5
 4575 5000 4575 5000 4646.5 5563.5 c 128,-1,6
 4718 6127 4718 6127 4700 6127 c 2,7,-1
 803 6121 l 1,8,-1
 806 6772 l 1,9,-1
 5047 6770 l 1,10,11
 5772 7756 5772 7756 6837 7553 c 128,-1,12
 7902 7350 7902 7350 8667 6348 c 0,13,14
 8862 6091 8862 6091 8990 5904.5 c 128,-1,15
 9118 5718 9118 5718 9226 5634 c 0,16,17
 9847 5144 9847 5144 10468.5 5632 c 128,-1,18
 11090 6120 11090 6120 11021 6873 c 0,19,20
 11007 7016 11007 7016 10975 7233.5 c 128,-1,21
 10943 7451 10943 7451 10933 7603 c 1,22,-1
 11602 7609 l 1,23,24
 11657 7211 11657 7211 11657 6773 c 0,25,26
 11657 6761 11657 6761 11708 6761 c 2,27,-1
 15695 6768 l 1,28,-1
 15696 7463 l 1,29,-1
 16616 6473 l 1,30,-1
 15677 5533 l 1,31,-1
 15675 6126 l 1,32,-1
 11626 6119 l 2,33,34
 11622 6119 11622 6119 11560.5 5927 c 128,-1,35
 11499 5735 11499 5735 11432 5621 c 0,36,37
 11113 5089 11113 5089 10431 4827 c 128,-1,38
 9749 4565 9749 4565 9164 4839 c 0,39,40
 8414 5188 8414 5188 7928.5 6126 c 128,-1,41
 7443 7064 7443 7064 6414 6913 c 0,0,1
EndSplineSet
Validated: 33
EndChar

StartChar: uni00B3
Encoding: 179 179 105
Width: 17670
Flags: W
LayerCount: 2
Fore
SplineSet
7448 4435 m 1,0,-1
 7764 6125 l 1,1,2
 6145 6126 6145 6126 4949.5 6127 c 128,-1,3
 3754 6128 3754 6128 1435 6125 c 1,4,-1
 1425 6762 l 1,5,6
 1425 6762 1425 6762 1425 6762 c 1,7,8
 2061 6761 2061 6761 3027.5 6758 c 128,-1,9
 3994 6755 3994 6755 4961.5 6751 c 128,-1,10
 5929 6747 5929 6747 6735 6744 c 128,-1,11
 7541 6741 7541 6741 7857 6741 c 1,12,-1
 8074 7798 l 1,13,-1
 5914 7798 l 1,14,-1
 5914 8450 l 1,15,-1
 9126 8450 l 1,16,-1
 8742 6762 l 1,17,18
 9953 6761 9953 6761 11575 6757 c 128,-1,19
 13197 6753 13197 6753 15455 6756 c 1,20,-1
 15455 6829 l 1,21,-1
 15455 7481 l 1,22,-1
 16805 6466 l 1,23,-1
 15455 5505 l 1,24,-1
 15455 6125 l 1,25,-1
 15675 6126 l 2,26,27
 16829 6128 16829 6128 16131 6127 c 128,-1,28
 15433 6126 15433 6126 14002.5 6124.5 c 128,-1,29
 12572 6123 12572 6123 10970.5 6121.5 c 128,-1,30
 9369 6120 9369 6120 8716 6121 c 1,31,-1
 8661 6125 l 1,32,-1
 8478 5109 l 1,33,-1
 10662 5109 l 1,34,-1
 10662 4435 l 1,35,-1
 7448 4435 l 1,0,-1
EndSplineSet
Validated: 37
EndChar

StartChar: acute
Encoding: 180 180 106
Width: 18000
Flags: W
LayerCount: 2
Fore
SplineSet
803 5923 m 1,0,-1
 806 6574 l 1,1,2
 5174 6571 5174 6571 6633 6568 c 128,-1,3
 8092 6565 8092 6565 8481 6564 c 1,4,5
 8450 6750 8450 6750 8371 6947 c 0,6,7
 8240 7272 8240 7272 7968 7625 c 1,8,-1
 8376 7625 l 1,9,10
 8619 7299 8619 7299 8737 6971 c 0,11,12
 8810 6766 8810 6766 8839 6562 c 1,13,14
 8986 6561 8986 6561 9275.5 6561 c 128,-1,15
 9565 6561 9565 6561 10280.5 6561.5 c 128,-1,16
 10996 6562 10996 6562 12279 6564 c 128,-1,17
 13562 6566 13562 6566 15695 6570 c 1,18,-1
 15696 7266 l 1,19,-1
 17143 6239 l 1,20,-1
 15677 5335 l 1,21,-1
 15675 5928 l 1,22,23
 11916 5921 11916 5921 10672 5921.5 c 128,-1,24
 9428 5922 9428 5922 8820 5925 c 1,25,26
 8792 5777 8792 5777 8737 5628 c 0,27,28
 8619 5297 8619 5297 8376 4974 c 1,29,-1
 7968 4974 l 1,30,31
 8238 5323 8238 5323 8371 5652 c 0,32,33
 8425 5787 8425 5787 8459 5926 c 1,34,35
 7822 5929 7822 5929 6412.5 5929 c 128,-1,36
 5003 5929 5003 5929 803 5923 c 1,0,-1
EndSplineSet
Validated: 33
EndChar

StartChar: mu
Encoding: 181 181 107
Width: 17776
Flags: W
LayerCount: 2
Fore
SplineSet
489 5955 m 1,0,-1
 492 6607 l 1,1,2
 3576 6604 3576 6604 5022.5 6602 c 128,-1,3
 6469 6600 6469 6600 7352 6599 c 1,4,-1
 5981 8174 l 1,5,-1
 6756 8174 l 1,6,-1
 7653 7140 l 2,7,8
 7932 6816 7932 6816 8049 6645 c 1,9,10
 8206 6858 8206 6858 8439 7104 c 2,11,-1
 9431 8174 l 1,12,-1
 10141 8174 l 1,13,-1
 8703 6597 l 1,14,15
 9573 6596 9573 6596 10986.5 6573 c 128,-1,16
 12400 6550 12400 6550 15350 6554 c 1,17,-1
 15350 7362 l 1,18,-1
 16930 6303 l 1,19,-1
 15350 5279 l 1,20,-1
 15361 5961 l 1,21,22
 12519 5955 12519 5955 11075 5954.5 c 128,-1,23
 9631 5954 9631 5954 8688 5956 c 1,24,-1
 10276 4143 l 1,25,-1
 9468 4143 l 1,26,-1
 8228 5581 l 2,27,28
 8152 5669 8152 5669 8012 5851 c 1,29,30
 7833 5616 7833 5616 7776 5549 c 2,31,-1
 6538 4143 l 1,32,-1
 5754 4143 l 1,33,-1
 7403 5959 l 1,34,35
 6432 5960 6432 5960 4969 5960.5 c 128,-1,36
 3506 5961 3506 5961 489 5955 c 1,0,-1
EndSplineSet
Validated: 33
EndChar

StartChar: ordmasculine
Encoding: 186 186 108
Width: 18050
Flags: W
LayerCount: 2
Fore
SplineSet
17191 5985 m 1,0,1
 13604 4306 13604 4306 11087 3922 c 128,-1,2
 8570 3538 8570 3538 6662 3817.5 c 128,-1,3
 4754 4097 4754 4097 3224 4726 c 128,-1,4
 1694 5355 1694 5355 81 5702 c 1,5,6
 3252 7214 3252 7214 5429.5 7729.5 c 128,-1,7
 7607 8245 7607 8245 9427.5 8108 c 128,-1,8
 11248 7971 11248 7971 13030 7354.5 c 128,-1,9
 14812 6738 14812 6738 17191 5985 c 1,0,1
16565 5970 m 1,10,11
 14672 6568 14672 6568 12934 7051.5 c 128,-1,12
 11196 7535 11196 7535 9363.5 7634.5 c 128,-1,13
 7531 7734 7531 7734 5478 7316.5 c 128,-1,14
 3425 6899 3425 6899 902 5696 c 1,15,16
 2185 5420 2185 5420 3722.5 4927 c 128,-1,17
 5260 4434 5260 4434 7162 4220.5 c 128,-1,18
 9064 4007 9064 4007 11387 4320.5 c 128,-1,19
 13710 4634 13710 4634 16565 5970 c 1,10,11
EndSplineSet
Validated: 33
EndChar

StartChar: guillemotright
Encoding: 187 187 109
Width: 17616
Flags: W
LayerCount: 2
Fore
SplineSet
16778 6226 m 1,0,1
 13395 4643 13395 4643 11021 4281 c 128,-1,2
 8647 3919 8647 3919 6847.5 4183 c 128,-1,3
 5048 4447 5048 4447 3605 5039.5 c 128,-1,4
 2162 5632 2162 5632 641 5960 c 1,5,6
 3631 7386 3631 7386 5685 7872.5 c 128,-1,7
 7739 8359 7739 8359 9456 8230 c 128,-1,8
 11173 8101 11173 8101 12853.5 7518.5 c 128,-1,9
 14534 6936 14534 6936 16778 6226 c 1,0,1
15656 6355 m 1,10,-1
 15753 6351 l 1,11,12
 14103 6873 14103 6873 12566.5 7282.5 c 128,-1,13
 11030 7692 11030 7692 9412.5 7782 c 128,-1,14
 7795 7872 7795 7872 5999 7538 c 128,-1,15
 4203 7204 4203 7204 2036 6240 c 1,16,-1
 15656 6355 l 1,10,-1
1478 5985 m 1,17,18
 1404 5946 1404 5946 1583 5908 c 0,19,20
 2762 5648 2762 5648 4142 5204.5 c 128,-1,21
 5522 4761 5522 4761 7221.5 4556.5 c 128,-1,22
 8921 4352 8921 4352 10998.5 4599.5 c 128,-1,23
 13076 4847 13076 4847 15649 5970 c 1,24,-1
 1478 5985 l 1,17,18
EndSplineSet
Validated: 33
EndChar

StartChar: onequarter
Encoding: 188 188 110
Width: 17792
Flags: W
LayerCount: 2
Fore
SplineSet
16945 6228 m 1,0,1
 13492 4612 13492 4612 11069 4242.5 c 128,-1,2
 8646 3873 8646 3873 6809 4142.5 c 128,-1,3
 4972 4412 4972 4412 3499 5016.5 c 128,-1,4
 2026 5621 2026 5621 474 5956 c 1,5,6
 3526 7411 3526 7411 5622 7907.5 c 128,-1,7
 7718 8404 7718 8404 9470.5 8272 c 128,-1,8
 11223 8140 11223 8140 12938.5 7546 c 128,-1,9
 14654 6952 14654 6952 16945 6228 c 1,0,1
13317 7132 m 1,10,11
 12168 7443 12168 7443 11190 7613 c 1,12,-1
 11190 4602 l 1,13,14
 12235 4757 12235 4757 13317 5067 c 1,15,-1
 13317 7132 l 1,10,11
13717 5187 m 1,16,17
 15008 5592 15008 5592 16342 6214 c 1,18,19
 15662 6428 15662 6428 15009 6633 c 128,-1,20
 14356 6838 14356 6838 13717 7021 c 1,21,-1
 13717 5187 l 1,16,17
10765 7680 m 1,22,23
 9632 7844 9632 7844 8569 7837 c 1,24,-1
 8569 4442 l 1,25,26
 9774 4407 9774 4407 11000 4574 c 1,27,-1
 10765 4574 l 1,28,-1
 10765 7680 l 1,22,23
8144 7828 m 1,29,30
 7176 7788 7176 7788 6229 7620 c 1,31,-1
 6229 4686 l 1,32,33
 7214 4511 7214 4511 8144 4459 c 1,34,-1
 8144 7828 l 1,29,30
5804 7538 m 1,35,36
 4904 7351 4904 7351 3985 7051 c 1,37,-1
 3985 5210 l 1,38,39
 4968 4934 4968 4934 5804 4766 c 1,40,-1
 5804 7538 l 1,35,36
3560 6907 m 1,41,42
 2445 6513 2445 6513 1264 5950 c 1,43,44
 1794 5836 1794 5836 2366 5671.5 c 128,-1,45
 2938 5507 2938 5507 3560 5330 c 1,46,-1
 3560 6907 l 1,41,42
EndSplineSet
Validated: 33
EndChar

StartChar: onehalf
Encoding: 189 189 111
Width: 17446
Flags: W
LayerCount: 2
Fore
SplineSet
8592 5278 m 1,0,-1
 16616 5256 l 1,1,-1
 16616 4569 l 1,2,3
 11659 4569 11659 4569 9781.5 4569 c 128,-1,4
 7904 4569 7904 4569 6986.5 4569 c 128,-1,5
 6069 4569 6069 4569 5052.5 4569 c 128,-1,6
 4036 4569 4036 4569 803 4569 c 1,7,-1
 803 5263 l 1,8,-1
 8585 5278 l 1,9,-1
 6908 7737 l 1,10,11
 8120 7735 8120 7735 8384.5 7737 c 128,-1,12
 8649 7739 8649 7739 8724 7742 c 128,-1,13
 8799 7745 8799 7745 9063.5 7746.5 c 128,-1,14
 9328 7748 9328 7748 10540 7747 c 1,15,-1
 8592 5278 l 1,0,-1
9986 7511 m 1,16,-1
 7362 7511 l 1,17,-1
 8593 5735 l 1,18,-1
 9986 7511 l 1,16,-1
EndSplineSet
Validated: 33
EndChar

StartChar: threequarters
Encoding: 190 190 112
Width: 18126
Flags: W
LayerCount: 2
Fore
SplineSet
15099 5811 m 1,0,1
 12933 5814 12933 5814 11646.5 5813.5 c 128,-1,2
 10360 5813 10360 5813 9080 5813 c 1,3,-1
 9078 3201 l 1,4,-1
 8532 3204 l 1,5,-1
 8530 5812 l 1,6,7
 7442 5810 7442 5810 6006 5808.5 c 128,-1,8
 4570 5807 4570 5807 2318 5806 c 1,9,10
 2056 5043 2056 5043 1268 5043 c 0,11,12
 808 5043 808 5043 482 5376.5 c 128,-1,13
 156 5710 156 5710 156 6179 c 0,14,15
 156 6649 156 6649 482 6983 c 128,-1,16
 808 7317 808 7317 1268 7317 c 0,17,18
 2038 7317 2038 7317 2310 6576 c 0,19,20
 2340 6503 2340 6503 2356 6442 c 1,21,22
 4306 6439 4306 6439 5692 6440 c 128,-1,23
 7078 6441 7078 6441 8530 6442 c 1,24,-1
 8528 9115 l 1,25,-1
 9082 9117 l 1,26,-1
 9080 6443 l 1,27,28
 10243 6443 10243 6443 11666.5 6442.5 c 128,-1,29
 13090 6442 13090 6442 15068 6439 c 1,30,31
 15269 7317 15269 7317 16150 7317 c 0,32,33
 16609 7317 16609 7317 16936 6983 c 128,-1,34
 17263 6649 17263 6649 17263 6179 c 0,35,36
 17263 5710 17263 5710 16936 5376.5 c 128,-1,37
 16609 5043 16609 5043 16150 5043 c 0,38,39
 15357 5043 15357 5043 15099 5811 c 1,0,1
EndSplineSet
Validated: 33
EndChar

StartChar: questiondown
Encoding: 191 191 113
Width: 18126
Flags: W
LayerCount: 2
Fore
SplineSet
15099 4890 m 1,0,1
 12933 4893 12933 4893 11646.5 4893 c 128,-1,2
 10360 4893 10360 4893 9080 4891 c 2,3,-1
 8530 4891 l 2,4,5
 7442 4889 7442 4889 6006 4887.5 c 128,-1,6
 4570 4886 4570 4886 2318 4885 c 1,7,8
 2056 4122 2056 4122 1268 4122 c 0,9,10
 808 4122 808 4122 482 4455.5 c 128,-1,11
 156 4789 156 4789 156 5259 c 256,12,13
 156 5729 156 5729 482 6062 c 128,-1,14
 808 6395 808 6395 1268 6395 c 0,15,16
 2039 6395 2039 6395 2310 5656 c 0,17,18
 2339 5585 2339 5585 2356 5522 c 1,19,20
 4306 5519 4306 5519 5692 5519.5 c 128,-1,21
 7078 5520 7078 5520 8530 5522 c 1,22,-1
 8528 8194 l 1,23,-1
 9082 8195 l 1,24,-1
 9080 5522 l 1,25,26
 10243 5523 10243 5523 11666.5 5522.5 c 128,-1,27
 13090 5522 13090 5522 15068 5519 c 1,28,29
 15268 6395 15268 6395 16150 6395 c 0,30,31
 16609 6395 16609 6395 16936 6062 c 128,-1,32
 17263 5729 17263 5729 17263 5259 c 256,33,34
 17263 4789 17263 4789 16936 4455.5 c 128,-1,35
 16609 4122 16609 4122 16150 4122 c 0,36,37
 15357 4122 15357 4122 15099 4890 c 1,0,1
EndSplineSet
Validated: 33
EndChar

StartChar: Aacute
Encoding: 193 193 114
Width: 17296
Flags: W
LayerCount: 2
Fore
SplineSet
946 5244 m 1,0,-1
 1907 5244 l 1,1,2
 3016 5421 3016 5421 4121.5 6061 c 128,-1,3
 5227 6701 5227 6701 5446 7436 c 1,4,-1
 5680 7434 l 1,5,6
 5576 6795 5576 6795 4700.5 6169.5 c 128,-1,7
 3825 5544 3825 5544 2768 5244 c 1,8,9
 3676 5244 3676 5244 3821.5 5245 c 128,-1,10
 3967 5246 3967 5246 4279 5244 c 1,11,12
 5388 5421 5388 5421 6493 6061 c 128,-1,13
 7598 6701 7598 6701 7818 7436 c 1,14,-1
 8053 7434 l 1,15,16
 7948 6795 7948 6795 7073 6169.5 c 128,-1,17
 6198 5544 6198 5544 5140 5244 c 1,18,19
 6699 5244 6699 5244 6580.5 5244 c 128,-1,20
 6462 5244 6462 5244 6807 5244 c 1,21,22
 7916 5421 7916 5421 9021 6061 c 128,-1,23
 10126 6701 10126 6701 10345 7436 c 1,24,-1
 10579 7434 l 1,25,26
 10475 6795 10475 6795 9600 6169.5 c 128,-1,27
 8725 5544 8725 5544 7668 5244 c 1,28,-1
 7962 5244 l 1,29,30
 8747 5236 8747 5236 9008.5 5227 c 128,-1,31
 9270 5218 9270 5218 9299 5215 c 128,-1,32
 9328 5212 9328 5212 9271.5 5217.5 c 128,-1,33
 9215 5223 9215 5223 9366 5244 c 0,34,35
 10475 5421 10475 5421 11579.5 6061 c 128,-1,36
 12684 6701 12684 6701 12904 7436 c 1,37,-1
 13139 7434 l 1,38,39
 13034 6795 13034 6795 12159 6169.5 c 128,-1,40
 11284 5544 11284 5544 10226 5244 c 1,41,42
 12633 5234 12633 5234 13113.5 5232 c 128,-1,43
 13594 5230 13594 5230 13269.5 5231.5 c 128,-1,44
 12945 5233 12945 5233 12375.5 5236 c 128,-1,45
 11806 5239 11806 5239 12114 5239 c 1,46,47
 13107 5398 13107 5398 14081.5 5939 c 128,-1,48
 15056 6480 15056 6480 15437 7134 c 0,49,50
 15527 7289 15527 7289 15574 7442 c 1,51,-1
 15908 7442 l 1,52,53
 15908 7442 15908 7442 15869.5 7326 c 128,-1,54
 15831 7210 15831 7210 15762 7130 c 0,55,56
 15727 7089 15727 7089 15710 7044 c 128,-1,57
 15693 6999 15693 6999 15653 6948 c 0,58,59
 15586 6860 15586 6860 15502 6745.5 c 128,-1,60
 15418 6631 15418 6631 15245 6475 c 0,61,62
 14950 6208 14950 6208 14489 5896 c 0,63,64
 14363 5812 14363 5812 14208.5 5729 c 128,-1,65
 14054 5646 14054 5646 13928 5577 c 0,66,67
 13688 5445 13688 5445 13439.5 5360.5 c 128,-1,68
 13191 5276 13191 5276 13119 5239 c 1,69,-1
 16473 5244 l 1,70,-1
 16473 4876 l 1,71,-1
 946 4876 l 1,72,-1
 946 5244 l 1,0,-1
EndSplineSet
Validated: 37
EndChar

StartChar: Adieresis
Encoding: 196 196 115
Width: 10318
Flags: W
LayerCount: 2
Fore
SplineSet
8366 3727 m 1,0,-1
 8384 8590 l 1,1,-1
 7592 8590 l 1,2,-1
 8709 10452 l 1,3,-1
 9827 8590 l 1,4,-1
 9050 8590 l 1,5,-1
 9053 3727 l 1,6,-1
 9827 3727 l 1,7,-1
 8709 1866 l 1,8,-1
 7592 3727 l 1,9,-1
 8366 3727 l 1,0,-1
EndSplineSet
Validated: 1
EndChar

StartChar: Aring
Encoding: 197 197 116
Width: 10318
Flags: W
LayerCount: 2
Fore
SplineSet
8366 2709 m 1,0,-1
 8384 8063 l 1,1,-1
 7592 7537 l 1,2,-1
 8709 9609 l 1,3,-1
 9827 7537 l 1,4,-1
 9050 8063 l 1,5,-1
 9053 2709 l 1,6,-1
 8366 2709 l 1,0,-1
EndSplineSet
Validated: 1
EndChar

StartChar: AE
Encoding: 198 198 117
Width: 10318
Flags: W
LayerCount: 2
Fore
SplineSet
8366 2709 m 1,0,-1
 8384 8063 l 1,1,-1
 7592 7537 l 1,2,-1
 8709 9609 l 1,3,-1
 9827 7537 l 1,4,-1
 9050 8063 l 1,5,-1
 9053 2709 l 1,6,-1
 8366 2709 l 1,0,-1
EndSplineSet
Validated: 1
EndChar

StartChar: Ccedilla
Encoding: 199 199 118
Width: 10318
Flags: W
LayerCount: 2
Fore
SplineSet
9053 3529 m 1,0,-1
 9827 4043 l 1,1,-1
 8709 1971 l 1,2,-1
 7592 4043 l 1,3,-1
 8366 3519 l 1,4,-1
 8384 8801 l 1,5,-1
 7592 8274 l 1,6,-1
 8709 10346 l 1,7,-1
 9827 8274 l 1,8,-1
 9050 8801 l 1,9,-1
 9053 3529 l 1,0,-1
EndSplineSet
Validated: 1
EndChar

StartChar: Egrave
Encoding: 200 200 119
Width: 11390
Flags: W
LayerCount: 2
Fore
SplineSet
6571 4378 m 1,0,-1
 8709 7939 l 1,1,-1
 10848 4378 l 1,2,-1
 6571 4378 l 1,0,-1
EndSplineSet
Validated: 1
EndChar

StartChar: ampersand
Encoding: 38 38 120
Width: 17495
Flags: W
LayerCount: 2
Fore
SplineSet
5978 3716 m 1,0,-1
 5317 3716 l 1,1,-1
 5309 5893 l 1,2,-1
 759 5893 l 1,3,-1
 757 6260 l 1,4,-1
 756 6619 l 1,5,-1
 5309 6619 l 1,6,-1
 5312 8602 l 1,7,-1
 6280 8602 l 1,8,-1
 8129 4641 l 1,9,-1
 9830 8602 l 1,10,-1
 10790 8602 l 1,11,-1
 10805 6619 l 1,12,-1
 14906 6619 l 1,13,-1
 14906 7565 l 1,14,-1
 16662 6288 l 1,15,-1
 14906 4940 l 1,16,-1
 14906 5895 l 1,17,-1
 10805 5892 l 1,18,-1
 10835 3716 l 1,19,-1
 10093 3716 l 1,20,-1
 10093 7674 l 1,21,-1
 8547 3716 l 1,22,-1
 7760 3716 l 1,23,-1
 5969 7674 l 1,24,-1
 5978 3716 l 1,0,-1
EndSplineSet
Validated: 1
EndChar

StartChar: Igrave
Encoding: 204 204 121
Width: 17446
Flags: W
LayerCount: 2
Fore
SplineSet
803 8394 m 1,0,-1
 12575 8394 l 1,1,-1
 12575 10576 l 1,2,-1
 16616 6159 l 1,3,-1
 12575 1741 l 1,4,-1
 12575 3923 l 1,5,-1
 803 3923 l 1,6,-1
 803 8394 l 1,0,-1
1239 7992 m 1,7,-1
 1239 4326 l 1,8,-1
 12959 4326 l 1,9,-1
 12959 2524 l 1,10,-1
 16043 6159 l 1,11,-1
 12959 9793 l 1,12,-1
 12959 7992 l 1,13,-1
 1239 7992 l 1,7,-1
EndSplineSet
Validated: 1
EndChar

StartChar: E
Encoding: 69 69 122
Width: 15061
Flags: W
LayerCount: 2
Fore
SplineSet
8990 11853 m 1,0,1
 8990 10862 8990 10862 8990 10368 c 128,-1,2
 8990 9874 8990 9874 8990 9551 c 128,-1,3
 8990 9228 8990 9228 8990 8913.5 c 128,-1,4
 8990 8599 8990 8599 8990 7968 c 1,5,6
 10176 7755 10176 7755 10389 6569 c 1,7,-1
 14344 6569 l 1,8,-1
 14344 5960 l 1,9,10
 13226 5960 13226 5960 12180 5960 c 128,-1,11
 11134 5960 11134 5960 10389 5960 c 1,12,13
 10176 4771 10176 4771 8990 4561 c 1,14,15
 8990 3930 8990 3930 8990 3582.5 c 128,-1,16
 8990 3235 8990 3235 8990 2872.5 c 128,-1,17
 8990 2510 8990 2510 8990 1982.5 c 128,-1,18
 8990 1455 8990 1455 8990 465 c 1,19,-1
 8380 465 l 1,20,-1
 8380 4561 l 1,21,22
 7193 4771 7193 4771 6981 5960 c 1,23,24
 6236 5960 6236 5960 5214 5938 c 128,-1,25
 4192 5916 4192 5916 3074 5916 c 1,26,-1
 3074 6569 l 1,27,-1
 6981 6569 l 1,28,29
 7193 7755 7193 7755 8380 7968 c 1,30,-1
 8380 11853 l 1,31,-1
 8990 11853 l 1,0,1
EndSplineSet
Validated: 1
EndChar

StartChar: F
Encoding: 70 70 123
Width: 14728
Flags: W
LayerCount: 2
Fore
SplineSet
6904 7964 m 1,0,-1
 8405 7964 l 1,1,-1
 8405 11477 l 1,2,-1
 9014 11477 l 1,3,4
 9014 10396 9014 10396 9014 9543.5 c 128,-1,5
 9014 8691 9014 8691 9014 7964 c 1,6,-1
 10515 7964 l 1,7,8
 10509 7356 10509 7356 10505 7001 c 128,-1,9
 10501 6646 10501 6646 10500 6463 c 1,10,11
 11197 6463 11197 6463 12049.5 6463 c 128,-1,12
 12902 6463 12902 6463 14027 6463 c 1,13,-1
 14027 5854 l 1,14,15
 12934 5854 12934 5854 12081.5 5854 c 128,-1,16
 11229 5854 11229 5854 10511 5854 c 1,17,18
 10512 5647 10512 5647 10513.5 5287 c 128,-1,19
 10515 4927 10515 4927 10515 4353 c 1,20,-1
 9014 4353 l 1,21,22
 9014 3627 9014 3627 9014 2774 c 128,-1,23
 9014 1921 9014 1921 9014 841 c 1,24,-1
 8405 841 l 1,25,-1
 8405 4353 l 1,26,-1
 6904 4353 l 1,27,28
 6904 4909 6904 4909 6904 5272.5 c 128,-1,29
 6904 5636 6904 5636 6904 5854 c 1,30,31
 6186 5854 6186 5854 5334 5854 c 128,-1,32
 4482 5854 4482 5854 3391 5854 c 1,33,-1
 3391 6463 l 1,34,35
 4510 6463 4510 6463 5359 6463 c 128,-1,36
 6208 6463 6208 6463 6904 6463 c 1,37,38
 6904 6674 6904 6674 6904 7036.5 c 128,-1,39
 6904 7399 6904 7399 6904 7964 c 1,0,-1
EndSplineSet
Validated: 1
EndChar

StartChar: G
Encoding: 71 71 124
Width: 14728
Flags: W
LayerCount: 2
Fore
SplineSet
6904 7964 m 1,0,-1
 8405 7964 l 1,1,-1
 8405 11477 l 1,2,-1
 9014 11477 l 1,3,4
 9014 10396 9014 10396 9014 9543.5 c 128,-1,5
 9014 8691 9014 8691 9014 7964 c 1,6,-1
 10515 7964 l 1,7,8
 10509 7356 10509 7356 10505 7001 c 128,-1,9
 10501 6646 10501 6646 10500 6463 c 1,10,11
 11197 6463 11197 6463 12049.5 6463 c 128,-1,12
 12902 6463 12902 6463 14027 6463 c 1,13,-1
 14027 5854 l 1,14,15
 12934 5854 12934 5854 12081.5 5854 c 128,-1,16
 11229 5854 11229 5854 10511 5854 c 1,17,18
 10512 5647 10512 5647 10513.5 5287 c 128,-1,19
 10515 4927 10515 4927 10515 4353 c 1,20,-1
 9014 4353 l 1,21,22
 9014 3627 9014 3627 9014 2774 c 128,-1,23
 9014 1921 9014 1921 9014 841 c 1,24,-1
 8405 841 l 1,25,-1
 8405 4353 l 1,26,-1
 6904 4353 l 1,27,28
 6904 4909 6904 4909 6904 5272.5 c 128,-1,29
 6904 5636 6904 5636 6904 5854 c 1,30,31
 6186 5854 6186 5854 5334 5854 c 128,-1,32
 4482 5854 4482 5854 3391 5854 c 1,33,-1
 3391 6463 l 1,34,35
 4510 6463 4510 6463 5359 6463 c 128,-1,36
 6208 6463 6208 6463 6904 6463 c 1,37,38
 6904 6674 6904 6674 6904 7036.5 c 128,-1,39
 6904 7399 6904 7399 6904 7964 c 1,0,-1
7498 7370 m 1,40,-1
 7498 4947 l 1,41,-1
 9921 4947 l 1,42,-1
 9921 7370 l 1,43,-1
 7498 7370 l 1,40,-1
EndSplineSet
Validated: 1
EndChar

StartChar: H
Encoding: 72 72 125
Width: 14728
Flags: W
LayerCount: 2
Fore
SplineSet
6461 6463 m 1,0,-1
 8405 8407 l 1,1,-1
 8405 11477 l 1,2,-1
 9014 11477 l 1,3,4
 9014 10557 9014 10557 9014 9805.5 c 128,-1,5
 9014 9054 9014 9054 9014 8407 c 1,6,-1
 10957 6463 l 1,7,8
 11617 6463 11617 6463 12370.5 6463 c 128,-1,9
 13124 6463 13124 6463 14027 6463 c 1,10,-1
 14027 5854 l 1,11,12
 13123 5854 13123 5854 12370 5854 c 128,-1,13
 11617 5854 11617 5854 10957 5854 c 1,14,-1
 9014 3911 l 1,15,16
 9014 3264 9014 3264 9014 2512 c 128,-1,17
 9014 1760 9014 1760 9014 841 c 1,18,-1
 8405 841 l 1,19,-1
 8405 3911 l 1,20,-1
 6461 5854 l 1,21,22
 5801 5854 5801 5854 5047.5 5854 c 128,-1,23
 4294 5854 4294 5854 3391 5854 c 1,24,-1
 3391 6463 l 1,25,26
 4294 6463 4294 6463 5047 6463 c 128,-1,27
 5800 6463 5800 6463 6461 6463 c 1,0,-1
EndSplineSet
Validated: 1
EndChar

StartChar: I
Encoding: 73 73 126
Width: 14754
Flags: W
LayerCount: 2
Fore
SplineSet
9039 11477 m 1,0,1
 9039 10205 9039 10205 9039 9559.5 c 128,-1,2
 9039 8914 9039 8914 9039 8491.5 c 128,-1,3
 9039 8069 9039 8069 9039 7669 c 128,-1,4
 9039 7269 9039 7269 9039 6489 c 1,5,-1
 14052 6489 l 1,6,-1
 14052 5879 l 1,7,8
 12382 5879 12382 5879 11223.5 5879 c 128,-1,9
 10065 5879 10065 5879 9039 5879 c 1,10,11
 9039 5102 9039 5102 9039 4695 c 128,-1,12
 9039 4288 9039 4288 9039 3855.5 c 128,-1,13
 9039 3423 9039 3423 9039 2768 c 128,-1,14
 9039 2113 9039 2113 9039 841 c 1,15,-1
 8429 841 l 1,16,-1
 8429 5879 l 1,17,18
 7408 5879 7408 5879 6248 5879 c 128,-1,19
 5088 5879 5088 5879 3417 5879 c 1,20,-1
 3417 6489 l 1,21,-1
 8429 6489 l 1,22,-1
 8429 11477 l 1,23,-1
 9039 11477 l 1,0,1
EndSplineSet
Validated: 1
EndChar

StartChar: Iacute
Encoding: 205 205 127
Width: 17446
Flags: W
LayerCount: 2
Fore
SplineSet
803 4962 m 1,0,-1
 8452 4962 l 1,1,-1
 8452 7964 l 1,2,-1
 8976 7967 l 1,3,-1
 8995 4962 l 1,4,-1
 16616 4962 l 1,5,-1
 16616 4351 l 1,6,7
 12661 4351 12661 4351 11181 4351 c 128,-1,8
 9701 4351 9701 4351 8715 4351 c 128,-1,9
 7729 4351 7729 4351 6246 4351 c 128,-1,10
 4763 4351 4763 4351 803 4351 c 1,11,-1
 803 4962 l 1,0,-1
EndSplineSet
Validated: 1
EndChar

StartChar: Y
Encoding: 89 89 128
Width: 14773
Flags: W
LayerCount: 2
Fore
SplineSet
3417 7115 m 1,0,-1
 3797 7111 l 1,1,-1
 3797 6393 l 1,2,3
 4931 6393 4931 6393 6096.5 6393 c 128,-1,4
 7262 6393 7262 6393 8396 6393 c 1,5,-1
 8396 11154 l 1,6,-1
 7519 11154 l 1,7,-1
 7519 11494 l 1,8,-1
 9551 11501 l 1,9,-1
 9559 11154 l 1,10,-1
 8785 11154 l 1,11,12
 8785 10128 8785 10128 8785 8773 c 128,-1,13
 8785 7418 8785 7418 8785 6393 c 1,14,15
 9883 6393 9883 6393 11226 6393 c 128,-1,16
 12569 6393 12569 6393 13668 6393 c 1,17,-1
 13668 7111 l 1,18,-1
 14070 7111 l 1,19,-1
 14052 5206 l 1,20,-1
 13668 5206 l 1,21,-1
 13668 6032 l 1,22,-1
 8785 6032 l 1,23,24
 8785 4986 8785 4986 8785 3610 c 128,-1,25
 8785 2234 8785 2234 8785 1188 c 1,26,-1
 9559 1188 l 1,27,-1
 9559 816 l 1,28,-1
 7506 832 l 1,29,-1
 7506 1188 l 1,30,-1
 8396 1188 l 1,31,-1
 8396 6032 l 1,32,-1
 3797 6032 l 1,33,-1
 3797 5218 l 1,34,-1
 3417 5218 l 1,35,-1
 3417 7115 l 1,0,-1
EndSplineSet
Validated: 1
EndChar

StartChar: e
Encoding: 101 101 129
Width: 17745
Flags: W
LayerCount: 2
Fore
SplineSet
10991 2892 m 1,0,-1
 11022 2504 l 1,1,2
 10719 2502 10719 2502 10102.5 2524.5 c 128,-1,3
 9486 2547 9486 2547 8841.5 2643.5 c 128,-1,4
 8197 2740 8197 2740 7669 2935.5 c 128,-1,5
 7141 3131 7141 3131 7016 3476 c 0,6,7
 6464 4985 6464 4985 7608.5 5368 c 128,-1,8
 8753 5751 8753 5751 9790 5787 c 0,9,10
 10063 5795 10063 5795 10274 5860 c 1,11,12
 8975 5860 8975 5860 9079 5860 c 128,-1,13
 9183 5860 9183 5860 9008 5860 c 128,-1,14
 8833 5860 8833 5860 7539 5860 c 128,-1,15
 6245 5860 6245 5860 2150 5860 c 1,16,-1
 2135 4810 l 1,17,-1
 518 6086 l 1,18,-1
 2166 7266 l 1,19,-1
 2150 6308 l 1,20,21
 6390 6308 6390 6308 7828.5 6308 c 128,-1,22
 9267 6308 9267 6308 9490 6308 c 128,-1,23
 9713 6308 9713 6308 9512 6308 c 128,-1,24
 9311 6308 9311 6308 10271 6308 c 1,25,26
 10075 6363 10075 6363 9797 6389 c 0,27,28
 9455 6422 9455 6422 8894.5 6484.5 c 128,-1,29
 8334 6547 8334 6547 7838.5 6747 c 128,-1,30
 7343 6947 7343 6947 7054 7339 c 128,-1,31
 6765 7731 6765 7731 6966 8424 c 0,32,33
 7086 8842 7086 8842 7608 9119.5 c 128,-1,34
 8130 9397 8130 9397 8770 9557 c 128,-1,35
 9410 9717 9410 9717 10027.5 9773 c 128,-1,36
 10645 9829 10645 9829 10957 9806 c 1,37,-1
 10931 9366 l 1,38,39
 10685 9356 10685 9356 10128.5 9318 c 128,-1,40
 9572 9280 9572 9280 8993.5 9160.5 c 128,-1,41
 8415 9041 8415 9041 7958 8813 c 128,-1,42
 7501 8585 7501 8585 7455 8196 c 0,43,44
 7388 7648 7388 7648 7795.5 7387 c 128,-1,45
 8203 7126 8203 7126 8764 7007.5 c 128,-1,46
 9325 6889 9325 6889 9879 6840 c 128,-1,47
 10433 6791 10433 6791 10661 6668 c 0,48,49
 10953 6508 10953 6508 11061 6308 c 1,50,51
 11863 6308 11863 6308 13264 6308 c 128,-1,52
 14665 6308 14665 6308 16900 6308 c 1,53,-1
 16900 5860 l 1,54,55
 14745 5860 14745 5860 13330 5860 c 128,-1,56
 11915 5860 11915 5860 11047 5860 c 1,57,58
 10874 5571 10874 5571 10421 5470 c 0,59,60
 9982 5370 9982 5370 9365.5 5319 c 128,-1,61
 8749 5268 8749 5268 8243.5 5119.5 c 128,-1,62
 7738 4971 7738 4971 7486 4652.5 c 128,-1,63
 7234 4334 7234 4334 7525 3701 c 0,64,65
 7772 3161 7772 3161 9100 3071 c 128,-1,66
 10428 2981 10428 2981 10991 2892 c 1,0,-1
EndSplineSet
Validated: 37
EndChar

StartChar: uni00B9
Encoding: 185 185 130
Width: 17792
Flags: W
LayerCount: 2
Fore
SplineSet
9171 4725 m 0,0,1
 9178 4102 9178 4102 9944.5 3823.5 c 128,-1,2
 10711 3545 10711 3545 11571 3531 c 1,3,-1
 11462 2929 l 1,4,5
 11097 2872 11097 2872 10588.5 2970.5 c 128,-1,6
 10080 3069 10080 3069 9817 3138 c 0,7,8
 9447 3235 9447 3235 9119 3502 c 1,9,10
 8359 4062 8359 4062 8399 4725 c 128,-1,11
 8439 5388 8439 5388 9057 5947 c 1,12,13
 9057 5947 9057 5947 9049 5947 c 2,14,-1
 803 5947 l 1,15,-1
 803 6396 l 1,16,-1
 5043 6396 l 1,17,18
 5043 6396 5043 6396 5044.5 6396 c 128,-1,19
 5046 6396 5046 6396 5047 6396 c 2,20,21
 5047 6396 5047 6396 5048 6396 c 128,-1,22
 5049 6396 5049 6396 5050 6396 c 0,23,24
 5295 6536 5295 6536 5552 6645 c 0,25,26
 5882 6787 5882 6787 6120.5 6878.5 c 128,-1,27
 6359 6970 6359 6970 6474 7053 c 0,28,29
 7143 7542 7143 7542 6673.5 8150 c 128,-1,30
 6204 8758 6204 8758 5315 8788 c 0,31,32
 5147 8794 5147 8794 4888 8792 c 128,-1,33
 4629 8790 4629 8790 4451 8799 c 1,34,-1
 4550 9390 l 1,35,36
 4787 9374 4787 9374 4993.5 9398.5 c 128,-1,37
 5200 9423 5200 9423 5542 9393 c 1,38,39
 5628 9390 5628 9390 5887 9335 c 128,-1,40
 6146 9280 6146 9280 6292 9232 c 0,41,42
 6295 9230 6295 9230 6506 9151.5 c 128,-1,43
 6717 9073 6717 9073 6839 9000 c 0,44,45
 7407 8655 7407 8655 7604 8021 c 128,-1,46
 7801 7387 7801 7387 7391 6904 c 0,47,48
 7171 6645 7171 6645 6661 6396 c 1,49,50
 6661 6396 6661 6396 6708 6396 c 2,51,-1
 15431 6396 l 1,52,-1
 15430 7383 l 1,53,-1
 16945 6239 l 1,54,-1
 15430 5044 l 1,55,-1
 15439 5955 l 1,56,-1
 10355 5947 l 1,57,58
 10225 5923 10225 5923 10280 5947 c 1,59,60
 9822 5735 9822 5735 9493 5456.5 c 128,-1,61
 9164 5178 9164 5178 9171 4725 c 0,0,1
EndSplineSet
Validated: 41
EndChar

StartChar: k
Encoding: 107 107 131
Width: 17446
Flags: W
LayerCount: 2
Fore
SplineSet
16616 4525 m 1,0,-1
 16616 3864 l 1,1,2
 11659 3864 11659 3864 9781.5 3864 c 128,-1,3
 7904 3864 7904 3864 6986.5 3864 c 128,-1,4
 6069 3864 6069 3864 5052.5 3864 c 128,-1,5
 4036 3864 4036 3864 803 3864 c 1,6,-1
 803 4525 l 1,7,-1
 7746 4525 l 1,8,-1
 3885 7968 l 1,9,-1
 4924 7967 l 1,10,-1
 8252 4980 l 1,11,-1
 12500 7844 l 1,12,-1
 13582 7843 l 1,13,-1
 8784 4525 l 1,14,-1
 16616 4525 l 1,0,-1
8634 10635 m 1,15,-1
 8606 7018 l 1,16,-1
 9372 7018 l 1,17,-1
 8328 5570 l 1,18,-1
 7451 7018 l 1,19,-1
 8218 7018 l 1,20,-1
 8218 10635 l 1,21,-1
 8634 10635 l 1,15,-1
EndSplineSet
Validated: 1
EndChar

StartChar: l
Encoding: 108 108 132
Width: 17446
Flags: W
LayerCount: 2
Fore
SplineSet
16616 3433 m 1,0,-1
 16616 2774 l 1,1,2
 11659 2774 11659 2774 9781.5 2774 c 128,-1,3
 7904 2774 7904 2774 6986.5 2774 c 128,-1,4
 6069 2774 6069 2774 5052.5 2774 c 128,-1,5
 4036 2774 4036 2774 803 2774 c 1,6,-1
 803 3433 l 1,7,-1
 7746 3433 l 1,8,-1
 3885 6876 l 1,9,-1
 4924 6876 l 1,10,-1
 8252 3888 l 1,11,-1
 12500 6753 l 1,12,-1
 13582 6752 l 1,13,-1
 8784 3433 l 1,14,-1
 16616 3433 l 1,0,-1
8075 4479 m 1,15,-1
 8102 8095 l 1,16,-1
 7337 8095 l 1,17,-1
 8382 9544 l 1,18,-1
 9256 8095 l 1,19,-1
 8491 8095 l 1,20,-1
 8491 4479 l 1,21,-1
 8075 4479 l 1,15,-1
EndSplineSet
Validated: 1
EndChar

StartChar: sterling
Encoding: 163 163 133
Width: 16251
Flags: W
LayerCount: 2
Fore
SplineSet
1941 6463 m 1,0,1
 3119 6463 3119 6463 3728.5 6463 c 128,-1,2
 4338 6463 4338 6463 5517 6463 c 1,3,4
 5703 7050 5703 7050 6507 7462.5 c 128,-1,5
 7311 7875 7311 7875 8405 7932 c 1,6,7
 8405 8685 8405 8685 8405 9669 c 128,-1,8
 8405 10653 8405 10653 8405 11501 c 1,9,-1
 9014 11501 l 1,10,11
 9014 10652 9014 10652 9014 9668 c 128,-1,12
 9014 8684 9014 8684 9014 7932 c 1,13,14
 10107 7875 10107 7875 10911 7462.5 c 128,-1,15
 11715 7050 11715 7050 11901 6463 c 1,16,17
 13020 6463 13020 6463 13620.5 6463 c 128,-1,18
 14221 6463 14221 6463 15478 6463 c 1,19,-1
 15478 6159 l 1,20,-1
 15478 5854 l 1,21,-1
 11901 5854 l 1,22,23
 11715 5267 11715 5267 10911 4855 c 128,-1,24
 10107 4443 10107 4443 9014 4386 c 1,25,26
 9014 3633 9014 3633 9014 2649 c 128,-1,27
 9014 1665 9014 1665 9014 816 c 1,28,-1
 8405 816 l 1,29,30
 8405 1664 8405 1664 8405 2648.5 c 128,-1,31
 8405 3633 8405 3633 8405 4386 c 1,32,33
 7311 4443 7311 4443 6507 4855 c 128,-1,34
 5703 5267 5703 5267 5517 5854 c 1,35,36
 4338 5854 4338 5854 3728.5 5854 c 128,-1,37
 3119 5854 3119 5854 1941 5854 c 1,38,-1
 1941 6159 l 1,39,-1
 1941 6463 l 1,0,1
EndSplineSet
Validated: 1
EndChar

StartChar: Acircumflex
Encoding: 194 194 134
Width: 10318
Flags: W
LayerCount: 2
Fore
SplineSet
8366 2709 m 1,0,-1
 8384 7747 l 1,1,-1
 7592 7747 l 1,2,-1
 8709 9609 l 1,3,-1
 9827 7747 l 1,4,-1
 9050 7747 l 1,5,-1
 9053 2709 l 1,6,-1
 8366 2709 l 1,0,-1
EndSplineSet
Validated: 1
EndChar

StartChar: Atilde
Encoding: 195 195 135
Width: 10318
Flags: W
LayerCount: 2
Fore
SplineSet
8366 1285 m 1,0,-1
 8384 4324 l 1,1,-1
 7592 4324 l 1,2,-1
 8695 6159 l 1,3,-1
 7592 7994 l 1,4,-1
 8369 7994 l 1,5,-1
 8366 11032 l 1,6,-1
 9053 11032 l 1,7,-1
 9035 7994 l 1,8,-1
 9827 7994 l 1,9,-1
 8724 6159 l 1,10,-1
 9827 4324 l 1,11,-1
 9050 4324 l 1,12,-1
 9053 1285 l 1,13,-1
 8366 1285 l 1,0,-1
EndSplineSet
Validated: 1
EndChar

StartChar: T
Encoding: 84 84 136
Width: 17446
Flags: W
LayerCount: 2
Fore
SplineSet
803 5696 m 1,0,-1
 803 6355 l 1,1,-1
 11085 6355 l 1,2,-1
 11114 9725 l 1,3,-1
 11718 9729 l 1,4,-1
 11724 6355 l 1,5,-1
 16616 6355 l 1,6,-1
 16616 5696 l 1,7,-1
 11736 5696 l 1,8,9
 11721 4918 11721 4918 11114.5 3739.5 c 128,-1,10
 10508 2561 10508 2561 8695 2588 c 0,11,12
 7245 2610 7245 2610 6520.5 3518.5 c 128,-1,13
 5796 4427 5796 4427 5794 5696 c 1,14,-1
 803 5696 l 1,0,-1
6496 5707 m 1,15,16
 6498 4675 6498 4675 7052.5 3936 c 128,-1,17
 7607 3197 7607 3197 8717 3179 c 0,18,19
 10115 3157 10115 3157 10612 4115.5 c 128,-1,20
 11109 5074 11109 5074 11048 5707 c 1,21,-1
 6496 5707 l 1,15,16
EndSplineSet
Validated: 33
EndChar

StartChar: Eacute
Encoding: 201 201 137
Width: 14199
Flags: W
LayerCount: 2
Fore
SplineSet
10787 7417 m 1,0,-1
 11878 7417 l 1,1,-1
 11878 11398 l 1,2,-1
 12465 11398 l 1,3,-1
 12465 7417 l 1,4,-1
 13523 7417 l 1,5,-1
 12465 5513 l 1,6,-1
 12465 4221 l 2,7,8
 12465 3430 12465 3430 12207.5 2840.5 c 128,-1,9
 11950 2251 11950 2251 11572 1862 c 0,10,11
 11194 1474 11194 1474 10305 1197 c 128,-1,12
 9416 920 9416 920 8548 920 c 0,13,14
 7674 920 7674 920 6938.5 1193 c 128,-1,15
 6203 1466 6203 1466 5815 1847 c 0,16,17
 4951 2692 4951 2692 4951 4221 c 2,18,-1
 4951 5517 l 1,19,-1
 3896 7417 l 1,20,-1
 4951 7417 l 1,21,-1
 4951 11398 l 1,22,-1
 5552 11398 l 1,23,-1
 5552 7417 l 1,24,-1
 6632 7417 l 1,25,-1
 5552 5473 l 1,26,-1
 5552 4250 l 2,27,28
 5552 3641 5552 3641 5609 3355 c 0,29,30
 5670 3044 5670 3044 5800 2831 c 0,31,32
 6202 2163 6202 2163 6830 1787.5 c 128,-1,33
 7458 1412 7458 1412 8724 1437 c 256,34,35
 9990 1462 9990 1462 10535.5 1808.5 c 128,-1,36
 11081 2155 11081 2155 11348 2470 c 0,37,38
 11878 3095 11878 3095 11878 4418 c 2,39,-1
 11878 5452 l 1,40,-1
 10787 7417 l 1,0,-1
EndSplineSet
Validated: 33
EndChar

StartChar: Agrave
Encoding: 192 192 138
Width: 14062
Flags: W
LayerCount: 2
Fore
SplineSet
11878 4114 m 0,0,1
 11878 5146 11878 5146 11878 5769.5 c 128,-1,2
 11878 6393 11878 6393 11878 6942 c 128,-1,3
 11878 7491 11878 7491 11878 8133 c 128,-1,4
 11878 8775 11878 8775 11878 9845 c 1,5,-1
 11618 9845 l 1,6,-1
 11008 9845 l 1,7,-1
 12201 11807 l 1,8,-1
 13393 9845 l 1,9,-1
 12580 9845 l 1,10,-1
 12465 9845 l 1,11,12
 12465 8766 12465 8766 12465 8110.5 c 128,-1,13
 12465 7455 12465 7455 12465 6884.5 c 128,-1,14
 12465 6314 12465 6314 12465 5660.5 c 128,-1,15
 12465 5007 12465 5007 12465 3935 c 0,16,17
 12465 3212 12465 3212 12207.5 2673 c 128,-1,18
 11950 2134 11950 2134 11572 1779 c 0,19,20
 11194 1425 11194 1425 10305 1172.5 c 128,-1,21
 9416 920 9416 920 8548 920 c 0,22,23
 7674 920 7674 920 6938.5 1169 c 128,-1,24
 6203 1418 6203 1418 5815 1766 c 0,25,26
 4951 2539 4951 2539 4951 3935 c 0,27,28
 4951 5007 4951 5007 4951 5660.5 c 128,-1,29
 4951 6314 4951 6314 4951 6884.5 c 128,-1,30
 4951 7455 4951 7455 4951 8111 c 128,-1,31
 4951 8767 4951 8767 4951 9845 c 1,32,-1
 4661 9845 l 1,33,-1
 4051 9845 l 1,34,-1
 5243 11807 l 1,35,-1
 6436 9845 l 1,36,-1
 5623 9845 l 1,37,-1
 5552 9845 l 1,38,39
 5552 8763 5552 8763 5552 8109.5 c 128,-1,40
 5552 7456 5552 7456 5552 6891 c 128,-1,41
 5552 6326 5552 6326 5552 5678.5 c 128,-1,42
 5552 5031 5552 5031 5552 3961 c 0,43,44
 5552 3405 5552 3405 5609 3144 c 0,45,46
 5669 2859 5669 2859 5800 2664 c 0,47,48
 6202 2055 6202 2055 6830 1712 c 128,-1,49
 7458 1369 7458 1369 8724 1393 c 0,50,51
 9990 1415 9990 1415 10535.5 1731.5 c 128,-1,52
 11081 2048 11081 2048 11348 2336 c 0,53,54
 11878 2906 11878 2906 11878 4114 c 0,0,1
EndSplineSet
Validated: 33
EndChar

StartChar: Ecircumflex
Encoding: 202 202 139
Width: 16624
Flags: W
LayerCount: 2
Fore
SplineSet
15816 4946 m 1,0,-1
 15833 4548 l 1,1,-1
 1586 4529 l 1,2,-1
 1592 5105 l 1,3,-1
 14576 5104 l 1,4,-1
 11631 7178 l 1,5,-1
 11853 7789 l 1,6,-1
 15816 4946 l 1,0,-1
EndSplineSet
Validated: 1
EndChar

StartChar: Edieresis
Encoding: 203 203 140
Width: 16624
Flags: W
LayerCount: 2
Fore
SplineSet
15816 7371 m 1,0,-1
 11853 4529 l 1,1,-1
 11631 5140 l 1,2,-1
 14576 7213 l 1,3,-1
 1592 7212 l 1,4,-1
 1586 7789 l 1,5,-1
 15833 7770 l 1,6,-1
 15816 7371 l 1,0,-1
EndSplineSet
Validated: 1
EndChar

StartChar: Icircumflex
Encoding: 206 206 141
Width: 16837
Flags: W
LayerCount: 2
Fore
SplineSet
1382 6492 m 1,0,1
 1393 6555 1393 6555 1394 6559 c 0,2,3
 1661 7089 1661 7089 1943 7089 c 0,4,5
 2288 7089 2288 7089 2431.5 6407.5 c 128,-1,6
 2575 5726 2575 5726 2921 5726 c 256,7,8
 3267 5726 3267 5726 3410.5 6407.5 c 128,-1,9
 3554 7089 3554 7089 3900 7089 c 0,10,11
 4245 7089 4245 7089 4388.5 6407.5 c 128,-1,12
 4532 5726 4532 5726 4879 5726 c 0,13,14
 5224 5726 5224 5726 5367.5 6407.5 c 128,-1,15
 5511 7089 5511 7089 5857 7089 c 256,16,17
 6203 7089 6203 7089 6346.5 6407.5 c 128,-1,18
 6490 5726 6490 5726 6836 5726 c 256,19,20
 7182 5726 7182 5726 7325 6407.5 c 128,-1,21
 7468 7089 7468 7089 7815 7089 c 0,22,23
 8160 7089 8160 7089 8303 6407.5 c 128,-1,24
 8446 5726 8446 5726 8791 5726 c 0,25,26
 9137 5726 9137 5726 9280.5 6407.5 c 128,-1,27
 9424 7089 9424 7089 9770 7089 c 256,28,29
 10116 7089 10116 7089 10259 6407.5 c 128,-1,30
 10402 5726 10402 5726 10749 5726 c 0,31,32
 11094 5726 11094 5726 11237.5 6407.5 c 128,-1,33
 11381 7089 11381 7089 11728 7089 c 0,34,35
 12073 7089 12073 7089 12216.5 6407.5 c 128,-1,36
 12360 5726 12360 5726 12706 5726 c 256,37,38
 13052 5726 13052 5726 13195.5 6407.5 c 128,-1,39
 13339 7089 13339 7089 13685 7089 c 0,40,41
 14030 7089 14030 7089 14173.5 6407.5 c 128,-1,42
 14317 5726 14317 5726 14664 5726 c 0,43,44
 15009 5726 15009 5726 15152.5 6407.5 c 128,-1,45
 15296 7089 15296 7089 15642 7089 c 0,46,47
 15851 7089 15851 7089 16036 6648 c 1,48,-1
 16036 6151 l 1,49,50
 15851 6592 15851 6592 15642 6592 c 0,51,52
 15296 6592 15296 6592 15152.5 5910.5 c 128,-1,53
 15009 5229 15009 5229 14664 5229 c 0,54,55
 14317 5229 14317 5229 14173.5 5910.5 c 128,-1,56
 14030 6592 14030 6592 13685 6592 c 0,57,58
 13339 6592 13339 6592 13195.5 5910.5 c 128,-1,59
 13052 5229 13052 5229 12706 5229 c 256,60,61
 12360 5229 12360 5229 12216.5 5910.5 c 128,-1,62
 12073 6592 12073 6592 11728 6592 c 0,63,64
 11381 6592 11381 6592 11237.5 5910.5 c 128,-1,65
 11094 5229 11094 5229 10749 5229 c 0,66,67
 10402 5229 10402 5229 10259 5910.5 c 128,-1,68
 10116 6592 10116 6592 9770 6592 c 256,69,70
 9424 6592 9424 6592 9280.5 5910.5 c 128,-1,71
 9137 5229 9137 5229 8791 5229 c 0,72,73
 8446 5229 8446 5229 8303 5910.5 c 128,-1,74
 8160 6592 8160 6592 7815 6592 c 0,75,76
 7468 6592 7468 6592 7325 5910.5 c 128,-1,77
 7182 5229 7182 5229 6836 5229 c 256,78,79
 6490 5229 6490 5229 6346.5 5910.5 c 128,-1,80
 6203 6592 6203 6592 5857 6592 c 256,81,82
 5511 6592 5511 6592 5367.5 5910.5 c 128,-1,83
 5224 5229 5224 5229 4879 5229 c 0,84,85
 4532 5229 4532 5229 4388.5 5910.5 c 128,-1,86
 4245 6592 4245 6592 3900 6592 c 0,87,88
 3554 6592 3554 6592 3410.5 5910.5 c 128,-1,89
 3267 5229 3267 5229 2921 5229 c 256,90,91
 2575 5229 2575 5229 2431.5 5910.5 c 128,-1,92
 2288 6592 2288 6592 1943 6592 c 0,93,94
 1667 6592 1667 6592 1399 6074 c 1,95,96
 1394 6180 1394 6180 1389 6285 c 128,-1,97
 1384 6390 1384 6390 1382 6492 c 1,0,1
EndSplineSet
Validated: 1
EndChar

StartChar: Idieresis
Encoding: 207 207 142
Width: 13994
Flags: W
LayerCount: 2
Fore
SplineSet
12198 8464 m 1,0,1
 11554 9356 11554 9356 10759 9778 c 0,2,3
 9968 10197 9968 10197 8948 10197 c 0,4,5
 7354 10197 7354 10197 6220 9016 c 0,6,7
 5088 7833 5088 7833 5088 6203 c 0,8,9
 5088 4473 5088 4473 6216 3282 c 0,10,11
 7341 2094 7341 2094 8948 2094 c 0,12,13
 9938 2094 9938 2094 10742 2508 c 0,14,15
 11541 2922 11541 2922 12133 3743 c 1,16,-1
 13249 3743 l 1,17,18
 12595 2524 12595 2524 11489 1854 c 0,19,20
 10385 1188 10385 1188 9014 1188 c 0,21,22
 6906 1188 6906 1188 5498 2627 c 0,23,24
 4091 4062 4091 4062 4091 6217 c 0,25,26
 4091 7221 4091 7221 4472 8121 c 0,27,28
 4850 9019 4850 9019 5588 9744 c 1,29,30
 6272 10428 6272 10428 7121 10777 c 0,31,32
 7968 11129 7968 11129 8962 11129 c 0,33,34
 10388 11129 10388 11129 11525 10434 c 0,35,36
 12665 9738 12665 9738 13328 8464 c 1,37,-1
 12198 8464 l 1,0,1
EndSplineSet
Validated: 1
EndChar

StartChar: Eth
Encoding: 208 208 143
Width: 14094
Flags: W
LayerCount: 2
Fore
SplineSet
13423 1774 m 1,0,-1
 12495 1774 l 1,1,-1
 12495 9114 l 1,2,-1
 9297 1774 l 1,3,-1
 8121 1774 l 1,4,-1
 4924 9337 l 1,5,-1
 4819 1774 l 1,6,-1
 3996 1774 l 1,7,-1
 3996 10543 l 1,8,-1
 5643 10543 l 1,9,-1
 8758 2825 l 1,10,-1
 8783 2825 l 1,11,-1
 11993 10543 l 1,12,-1
 13423 10543 l 1,13,-1
 13423 1774 l 1,0,-1
EndSplineSet
Validated: 1
EndChar

StartChar: Ntilde
Encoding: 209 209 144
Width: 15441
Flags: W
LayerCount: 2
Fore
SplineSet
6718 10882 m 1,0,-1
 8709 9724 l 1,1,-1
 10699 10882 l 1,2,-1
 14706 8546 l 1,3,-1
 14706 3784 l 1,4,-1
 10699 1436 l 1,5,-1
 8709 2620 l 1,6,-1
 6718 1436 l 1,7,-1
 2713 3784 l 1,8,-1
 2713 8546 l 1,9,-1
 6718 10882 l 1,0,-1
8709 2626 m 1,10,-1
 10713 3784 l 1,11,-1
 10713 8533 l 1,12,-1
 8709 9717 l 1,13,-1
 6706 8533 l 1,14,-1
 6706 3784 l 1,15,-1
 8709 2626 l 1,10,-1
EndSplineSet
Validated: 1
EndChar

StartChar: Ograve
Encoding: 210 210 145
Width: 17423
Flags: W
LayerCount: 2
Fore
SplineSet
828 5103 m 1,0,-1
 1052 5103 l 1,1,-1
 1052 5081 l 2,2,3
 1052 5018 1052 5018 1072 4991 c 0,4,5
 1093 4966 1093 4966 1142 4966 c 0,6,7
 1178 4966 1178 4966 1202 4985 c 0,8,9
 1225 5005 1225 5005 1225 5039 c 0,10,11
 1225 5094 1225 5094 1116 5146 c 0,12,13
 1103 5153 1103 5153 1088 5160 c 0,14,15
 1072 5168 1072 5168 1077 5165 c 1,16,17
 929 5239 929 5239 893 5275 c 0,18,19
 869 5298 869 5298 853 5337 c 0,20,21
 840 5374 840 5374 840 5414 c 0,22,23
 840 5514 840 5514 920 5572 c 0,24,25
 998 5629 998 5629 1139 5629 c 0,26,27
 1289 5629 1289 5629 1371 5573 c 0,28,29
 1451 5514 1451 5514 1451 5410 c 0,30,31
 1451 5402 1451 5402 1450 5397 c 0,32,33
 1450 5393 1450 5393 1449.5 5390 c 128,-1,34
 1449 5387 1449 5387 1449 5384 c 1,35,-1
 1229 5384 l 1,36,-1
 1229 5394 l 2,37,38
 1229 5444 1229 5444 1208 5471 c 0,39,40
 1187 5496 1187 5496 1145 5496 c 0,41,42
 1111 5496 1111 5496 1089 5478 c 0,43,44
 1068 5458 1068 5458 1068 5430 c 0,45,46
 1068 5381 1068 5381 1188 5327 c 0,47,48
 1208 5316 1208 5316 1222 5311 c 0,49,50
 1248 5298 1248 5298 1248 5298 c 2,51,52
 1376 5238 1376 5238 1413 5197 c 0,53,54
 1434 5170 1434 5170 1448 5137 c 0,55,56
 1459 5102 1459 5102 1459 5064 c 0,57,58
 1459 4948 1459 4948 1378 4887 c 0,59,60
 1296 4825 1296 4825 1144 4825 c 0,61,62
 986 4825 986 4825 905 4884 c 0,63,64
 825 4944 825 4944 825 5061 c 0,65,66
 825 5064 825 5064 825 5068.5 c 128,-1,67
 825 5073 825 5073 825 5077 c 0,68,69
 826 5082 826 5082 828 5103 c 1,0,-1
1932 5045 m 1,70,-1
 2138 5045 l 1,71,-1
 2138 5030 l 2,72,73
 2138 4929 2138 4929 2066 4879 c 0,74,75
 1992 4828 1992 4828 1851 4828 c 0,76,77
 1773 4828 1773 4828 1720 4843 c 0,78,79
 1663 4856 1663 4856 1629 4884 c 0,80,81
 1592 4912 1592 4912 1576 4965 c 0,82,83
 1560 5017 1560 5017 1560 5125 c 0,84,85
 1560 5239 1560 5239 1577 5296 c 0,86,87
 1593 5344 1593 5344 1632 5376 c 0,88,89
 1668 5405 1668 5405 1727 5420 c 0,90,91
 1784 5435 1784 5435 1860 5435 c 0,92,93
 1938 5435 1938 5435 1994 5419 c 0,94,95
 2051 5402 2051 5402 2086 5371 c 0,96,97
 2117 5342 2117 5342 2129 5306 c 0,98,99
 2142 5269 2142 5269 2142 5179 c 2,100,-1
 2142 5109 l 1,101,-1
 1784 5109 l 1,102,103
 1784 5108 1784 5108 1784 5106.5 c 128,-1,104
 1784 5105 1784 5105 1784 5103 c 0,105,106
 1780 5071 1780 5071 1780 5053 c 0,107,108
 1780 4994 1780 4994 1798 4968 c 0,109,110
 1817 4944 1817 4944 1858 4944 c 0,111,112
 1897 4944 1897 4944 1915 4963 c 0,113,114
 1934 4980 1934 4980 1934 5018 c 0,115,116
 1934 5020 1934 5020 1932 5040 c 0,117,118
 1932 5041 1932 5041 1932 5042.5 c 128,-1,119
 1932 5044 1932 5044 1932 5045 c 1,70,-1
1789 5210 m 1,120,-1
 1937 5210 l 1,121,122
 1937 5210 1937 5210 1937 5210.5 c 128,-1,123
 1937 5211 1937 5211 1937 5213 c 0,124,125
 1939 5239 1939 5239 1939 5243 c 0,126,127
 1939 5285 1939 5285 1921 5305 c 256,128,129
 1903 5325 1903 5325 1863 5325 c 0,130,131
 1822 5325 1822 5325 1806 5306 c 0,132,133
 1788 5286 1788 5286 1788 5241 c 0,134,135
 1788 5226 1788 5226 1789 5222 c 0,136,137
 1789 5218 1789 5218 1789 5215 c 128,-1,138
 1789 5212 1789 5212 1789 5210 c 1,120,-1
2270 4843 m 1,139,-1
 2270 5419 l 1,140,-1
 2472 5419 l 1,141,-1
 2472 5339 l 1,142,143
 2509 5384 2509 5384 2552 5404 c 0,144,145
 2597 5428 2597 5428 2649 5431 c 1,146,-1
 2649 5249 l 1,147,148
 2641 5250 2641 5250 2614 5253 c 0,149,150
 2602 5254 2602 5254 2583 5254 c 0,151,152
 2529 5254 2529 5254 2509 5226 c 0,153,154
 2489 5199 2489 5199 2489 5120 c 2,155,-1
 2489 4843 l 1,156,-1
 2270 4843 l 1,139,-1
2890 4843 m 1,157,-1
 2717 5419 l 1,158,-1
 2937 5419 l 1,159,-1
 3014 5028 l 1,160,-1
 3090 5419 l 1,161,-1
 3309 5419 l 1,162,-1
 3135 4843 l 1,163,-1
 2890 4843 l 1,157,-1
3393 5477 m 1,164,-1
 3393 5616 l 1,165,-1
 3611 5616 l 1,166,-1
 3611 5477 l 1,167,-1
 3393 5477 l 1,164,-1
3393 4843 m 1,168,-1
 3393 5419 l 1,169,-1
 3611 5419 l 1,170,-1
 3611 4843 l 1,171,-1
 3393 4843 l 1,168,-1
4098 5069 m 1,172,-1
 4314 5069 l 1,173,174
 4314 5063 4314 5063 4315 5058 c 0,175,176
 4315 5055 4315 5055 4315.5 5051.5 c 128,-1,177
 4316 5048 4316 5048 4316 5047 c 0,178,179
 4316 4938 4316 4938 4246 4882 c 0,180,181
 4175 4828 4175 4828 4033 4828 c 0,182,183
 3870 4828 3870 4828 3805 4895 c 0,184,185
 3740 4963 3740 4963 3740 5131 c 0,186,187
 3740 5300 3740 5300 3806 5368 c 0,188,189
 3873 5435 3873 5435 4033 5435 c 0,190,191
 4176 5435 4176 5435 4245 5381 c 0,192,193
 4313 5325 4313 5325 4313 5213 c 2,194,-1
 4313 5202 l 1,195,-1
 4100 5202 l 1,196,-1
 4100 5219 l 2,197,198
 4100 5272 4100 5272 4085 5293 c 0,199,200
 4071 5314 4071 5314 4034 5314 c 0,201,202
 3993 5314 3993 5314 3978 5285 c 0,203,204
 3963 5251 3963 5251 3963 5131 c 0,205,206
 3963 5015 3963 5015 3978 4979 c 0,207,208
 3993 4946 3993 4946 4033 4946 c 0,209,210
 4067 4946 4067 4946 4083 4969 c 256,211,212
 4099 4992 4099 4992 4099 5043 c 0,213,214
 4099 5049 4099 5049 4098 5056 c 0,215,216
 4098 5060 4098 5060 4098 5063 c 128,-1,217
 4098 5066 4098 5066 4098 5069 c 1,172,-1
3860 4626 m 1,218,-1
 3860 4691 l 1,219,220
 3913 4682 3913 4682 3951 4679 c 0,221,222
 3996 4674 3996 4674 4017 4674 c 0,223,224
 4043 4674 4043 4674 4060 4683 c 0,225,226
 4073 4690 4073 4690 4073 4709 c 0,227,228
 4073 4724 4073 4724 4055 4732 c 256,229,230
 4037 4740 4037 4740 3996 4740 c 0,231,232
 3994 4740 3994 4740 3991 4740 c 128,-1,233
 3988 4740 3988 4740 3984 4740 c 0,234,235
 3979 4739 3979 4739 3972 4739 c 1,236,-1
 3972 4843 l 1,237,-1
 4049 4843 l 1,238,-1
 4049 4802 l 1,239,240
 4119 4802 4119 4802 4160 4778 c 0,241,242
 4200 4754 4200 4754 4200 4708 c 0,243,244
 4200 4659 4200 4659 4156 4633 c 0,245,246
 4114 4607 4114 4607 4033 4607 c 0,247,248
 3981 4607 3981 4607 3940 4611 c 0,249,250
 3902 4614 3902 4614 3860 4626 c 1,218,-1
4651 5131 m 256,251,252
 4651 5009 4651 5009 4666 4979 c 0,253,254
 4681 4948 4681 4948 4721 4948 c 256,255,256
 4761 4948 4761 4948 4776 4978 c 0,257,258
 4790 5004 4790 5004 4790 5131 c 0,259,260
 4790 5257 4790 5257 4776 5284 c 0,261,262
 4761 5314 4761 5314 4721 5314 c 0,263,264
 4680 5314 4680 5314 4666 5283 c 0,265,266
 4651 5253 4651 5253 4651 5131 c 256,251,252
4429 5131 m 0,267,268
 4429 5300 4429 5300 4494 5368 c 0,269,270
 4561 5435 4561 5435 4721 5435 c 0,271,272
 4882 5435 4882 5435 4948 5368 c 0,273,274
 5014 5298 5014 5298 5014 5131 c 0,275,276
 5014 4963 5014 4963 4948 4896 c 0,277,278
 4882 4828 4882 4828 4721 4828 c 0,279,280
 4558 4828 4558 4828 4494 4895 c 0,281,282
 4429 4961 4429 4961 4429 5131 c 0,267,268
6170 5263 m 1,283,-1
 6170 4843 l 1,284,-1
 6001 4843 l 1,285,-1
 5990 4891 l 1,286,287
 5957 4862 5957 4862 5909 4845 c 0,288,289
 5862 4829 5862 4829 5808 4829 c 0,290,291
 5748 4829 5748 4829 5690 4847 c 0,292,293
 5636 4864 5636 4864 5596 4898 c 0,294,295
 5546 4936 5546 4936 5526 5006 c 0,296,297
 5506 5071 5506 5071 5506 5237 c 0,298,299
 5506 5356 5506 5356 5519 5423 c 0,300,301
 5534 5493 5534 5493 5564 5528 c 0,302,303
 5609 5579 5609 5579 5679 5604 c 0,304,305
 5754 5629 5754 5629 5849 5629 c 0,306,307
 6002 5629 6002 5629 6082 5568 c 0,308,309
 6161 5506 6161 5506 6161 5383 c 0,310,311
 6161 5380 6161 5380 6160.5 5377 c 128,-1,312
 6160 5374 6160 5374 6160 5370 c 0,313,314
 6160 5364 6160 5364 6159.5 5361 c 128,-1,315
 6159 5358 6159 5358 6159 5355 c 1,316,-1
 5926 5355 l 1,317,-1
 5926 5364 l 2,318,319
 5926 5431 5926 5431 5907 5459 c 0,320,321
 5887 5488 5887 5488 5844 5488 c 0,322,323
 5792 5488 5792 5488 5773 5453 c 0,324,325
 5753 5414 5753 5414 5753 5290 c 2,326,-1
 5753 5215 l 1,327,-1
 5753 5161 l 2,328,329
 5753 5032 5753 5032 5772 5000 c 0,330,331
 5790 4967 5790 4967 5840 4967 c 256,332,333
 5890 4967 5890 4967 5912 4996 c 256,334,335
 5934 5025 5934 5025 5934 5092 c 0,336,337
 5934 5098 5934 5098 5934 5104 c 128,-1,338
 5934 5110 5934 5110 5934 5115 c 0,339,340
 5933 5120 5933 5120 5933 5129 c 1,341,-1
 5837 5129 l 1,342,-1
 5837 5263 l 1,343,-1
 6170 5263 l 1,283,-1
6670 5045 m 1,344,-1
 6875 5045 l 1,345,-1
 6875 5030 l 2,346,347
 6875 4927 6875 4927 6804 4879 c 0,348,349
 6730 4828 6730 4828 6589 4828 c 0,350,351
 6511 4828 6511 4828 6458 4843 c 0,352,353
 6399 4856 6399 4856 6366 4884 c 0,354,355
 6328 4915 6328 4915 6314 4965 c 0,356,357
 6299 5010 6299 5010 6299 5125 c 0,358,359
 6299 5248 6299 5248 6315 5296 c 0,360,361
 6329 5344 6329 5344 6369 5376 c 0,362,363
 6408 5405 6408 5405 6464 5420 c 0,364,365
 6521 5435 6521 5435 6598 5435 c 0,366,367
 6676 5435 6676 5435 6732 5419 c 0,368,369
 6787 5402 6787 5402 6824 5371 c 0,370,371
 6853 5344 6853 5344 6867 5306 c 0,372,373
 6879 5268 6879 5268 6879 5179 c 2,374,-1
 6879 5109 l 1,375,-1
 6521 5109 l 1,376,377
 6521 5108 6521 5108 6521 5106.5 c 128,-1,378
 6521 5105 6521 5105 6521 5103 c 0,379,380
 6518 5067 6518 5067 6518 5053 c 0,381,382
 6518 4992 6518 4992 6536 4968 c 0,383,384
 6555 4944 6555 4944 6596 4944 c 0,385,386
 6634 4944 6634 4944 6653 4963 c 0,387,388
 6672 4980 6672 4980 6672 5018 c 0,389,390
 6672 5020 6672 5020 6670 5040 c 0,391,392
 6670 5041 6670 5041 6670 5042.5 c 128,-1,393
 6670 5044 6670 5044 6670 5045 c 1,344,-1
6527 5210 m 2,394,-1
 6675 5210 l 1,395,396
 6675 5210 6675 5210 6675 5210.5 c 128,-1,397
 6675 5211 6675 5211 6675 5213 c 0,398,399
 6677 5226 6677 5226 6677 5243 c 0,400,401
 6677 5285 6677 5285 6659 5305 c 256,402,403
 6641 5325 6641 5325 6600 5325 c 0,404,405
 6560 5325 6560 5325 6543 5306 c 0,406,407
 6525 5284 6525 5284 6525 5241 c 0,408,409
 6525 5226 6525 5226 6526 5222 c 0,410,411
 6526 5213 6526 5213 6527 5210 c 2,394,-1
7214 5131 m 0,412,413
 7214 5012 7214 5012 7229 4979 c 0,414,415
 7244 4948 7244 4948 7284 4948 c 256,416,417
 7324 4948 7324 4948 7339 4978 c 0,418,419
 7353 5007 7353 5007 7353 5131 c 0,420,421
 7353 5254 7353 5254 7339 5284 c 0,422,423
 7324 5314 7324 5314 7284 5314 c 0,424,425
 7243 5314 7243 5314 7229 5283 c 0,426,427
 7214 5249 7214 5249 7214 5131 c 0,412,413
6991 5131 m 0,428,429
 6991 5299 6991 5299 7057 5368 c 0,430,431
 7125 5435 7125 5435 7284 5435 c 0,432,433
 7444 5435 7444 5435 7510 5368 c 0,434,435
 7577 5301 7577 5301 7577 5131 c 256,436,437
 7577 4961 7577 4961 7510 4896 c 0,438,439
 7444 4828 7444 4828 7284 4828 c 0,440,441
 7122 4828 7122 4828 7057 4895 c 0,442,443
 6991 4962 6991 4962 6991 5131 c 0,428,429
7923 4843 m 1,444,-1
 7705 4843 l 1,445,-1
 7705 5611 l 1,446,-1
 7923 5611 l 1,447,-1
 7923 4843 l 1,444,-1
8275 5131 m 0,448,449
 8275 5006 8275 5006 8290 4979 c 0,450,451
 8303 4948 8303 4948 8345 4948 c 0,452,453
 8385 4948 8385 4948 8400 4978 c 0,454,455
 8414 5007 8414 5007 8414 5131 c 0,456,457
 8414 5254 8414 5254 8400 5284 c 0,458,459
 8385 5314 8385 5314 8345 5314 c 0,460,461
 8303 5314 8303 5314 8290 5283 c 0,462,463
 8275 5255 8275 5255 8275 5131 c 0,448,449
8052 5131 m 256,464,465
 8052 5299 8052 5299 8118 5368 c 0,466,467
 8183 5435 8183 5435 8345 5435 c 0,468,469
 8505 5435 8505 5435 8571 5368 c 0,470,471
 8638 5301 8638 5301 8638 5131 c 256,472,473
 8638 4961 8638 4961 8571 4896 c 0,474,475
 8505 4828 8505 4828 8345 4828 c 0,476,477
 8182 4828 8182 4828 8117 4895 c 0,478,479
 8052 4963 8052 4963 8052 5131 c 256,464,465
8238 5481 m 1,480,-1
 8373 5623 l 1,481,-1
 8574 5623 l 1,482,-1
 8336 5481 l 1,483,-1
 8238 5481 l 1,480,-1
8964 5207 m 2,484,-1
 8964 5165 l 2,485,486
 8964 5055 8964 5055 8979 5022 c 0,487,488
 8992 4991 8992 4991 9032 4991 c 0,489,490
 9071 4991 9071 4991 9086 5018 c 0,491,492
 9101 5046 9101 5046 9101 5133 c 2,493,-1
 9101 5157 l 2,494,495
 9101 5251 9101 5251 9086 5275 c 0,496,497
 9072 5299 9072 5299 9034 5299 c 0,498,499
 8998 5299 8998 5299 8981 5277 c 0,500,501
 8964 5253 8964 5253 8964 5207 c 2,484,-1
9321 5419 m 1,502,-1
 9321 4903 l 2,503,504
 9321 4820 9321 4820 9310 4786 c 0,505,506
 9297 4745 9297 4745 9272 4722 c 0,507,508
 9235 4687 9235 4687 9170 4667 c 0,509,510
 9107 4649 9107 4649 9017 4649 c 0,511,512
 8879 4649 8879 4649 8810 4690 c 0,513,514
 8743 4734 8743 4734 8743 4818 c 1,515,-1
 8960 4818 l 1,516,517
 8960 4784 8960 4784 8977 4770 c 0,518,519
 8992 4756 8992 4756 9026 4756 c 0,520,521
 9069 4756 9069 4756 9085 4776 c 0,522,523
 9101 4793 9101 4793 9101 4852 c 2,524,-1
 9101 4920 l 1,525,526
 9057 4890 9057 4890 9019 4878 c 0,527,528
 8981 4865 8981 4865 8939 4865 c 0,529,530
 8880 4865 8880 4865 8838 4887 c 0,531,532
 8793 4909 8793 4909 8768 4953 c 0,533,534
 8756 4972 8756 4972 8749 5017 c 0,535,536
 8743 5059 8743 5059 8743 5125 c 0,537,538
 8743 5183 8743 5183 8748 5240 c 0,539,540
 8752 5290 8752 5290 8760 5322 c 0,541,542
 8771 5369 8771 5369 8822 5401 c 0,543,544
 8872 5433 8872 5433 8936 5433 c 0,545,546
 8989 5433 8989 5433 9033 5414 c 0,547,548
 9081 5392 9081 5392 9121 5355 c 1,549,-1
 9121 5419 l 1,550,-1
 9321 5419 l 1,502,-1
9474 5477 m 1,551,-1
 9474 5616 l 1,552,-1
 9692 5616 l 1,553,-1
 9692 5477 l 1,554,-1
 9474 5477 l 1,551,-1
9474 4843 m 1,555,-1
 9474 5419 l 1,556,-1
 9692 5419 l 1,557,-1
 9692 4843 l 1,558,-1
 9474 4843 l 1,555,-1
10179 5069 m 1,559,-1
 10395 5069 l 1,560,561
 10395 5066 10395 5066 10395.5 5063.5 c 128,-1,562
 10396 5061 10396 5061 10396 5058 c 256,563,564
 10396 5055 10396 5055 10396.5 5051.5 c 128,-1,565
 10397 5048 10397 5048 10397 5047 c 0,566,567
 10397 4937 10397 4937 10326 4882 c 0,568,569
 10257 4828 10257 4828 10114 4828 c 0,570,571
 9951 4828 9951 4828 9886 4895 c 0,572,573
 9821 4963 9821 4963 9821 5131 c 0,574,575
 9821 5300 9821 5300 9887 5368 c 0,576,577
 9952 5435 9952 5435 10114 5435 c 0,578,579
 10257 5435 10257 5435 10325 5381 c 0,580,581
 10394 5325 10394 5325 10394 5213 c 2,582,-1
 10394 5202 l 1,583,-1
 10181 5202 l 1,584,-1
 10181 5219 l 2,585,586
 10181 5272 10181 5272 10166 5293 c 0,587,588
 10152 5314 10152 5314 10115 5314 c 0,589,590
 10072 5314 10072 5314 10059 5285 c 0,591,592
 10044 5255 10044 5255 10044 5131 c 0,593,594
 10044 5012 10044 5012 10059 4979 c 0,595,596
 10072 4946 10072 4946 10114 4946 c 0,597,598
 10148 4946 10148 4946 10164 4969 c 256,599,600
 10180 4992 10180 4992 10180 5043 c 0,601,602
 10180 5049 10180 5049 10179 5056 c 0,603,604
 10179 5060 10179 5060 10179 5063 c 128,-1,605
 10179 5066 10179 5066 10179 5069 c 1,559,-1
10732 5131 m 256,606,607
 10732 5009 10732 5009 10747 4979 c 0,608,609
 10762 4948 10762 4948 10802 4948 c 256,610,611
 10842 4948 10842 4948 10856 4978 c 0,612,613
 10871 5003 10871 5003 10871 5131 c 0,614,615
 10871 5258 10871 5258 10856 5284 c 0,616,617
 10842 5314 10842 5314 10802 5314 c 0,618,619
 10761 5314 10761 5314 10747 5283 c 0,620,621
 10732 5253 10732 5253 10732 5131 c 256,606,607
10510 5131 m 0,622,623
 10510 5300 10510 5300 10575 5368 c 0,624,625
 10642 5435 10642 5435 10802 5435 c 0,626,627
 10963 5435 10963 5435 11029 5368 c 0,628,629
 11094 5299 11094 5299 11094 5131 c 0,630,631
 11094 4962 11094 4962 11029 4896 c 0,632,633
 10963 4828 10963 4828 10802 4828 c 0,634,635
 10639 4828 10639 4828 10575 4895 c 0,636,637
 10510 4961 10510 4961 10510 5131 c 0,622,623
11876 5296 m 0,638,639
 11835 5296 11835 5296 11819 5264 c 0,640,641
 11803 5230 11803 5230 11803 5125 c 0,642,643
 11803 5016 11803 5016 11818 4986 c 0,644,645
 11832 4958 11832 4958 11871 4958 c 0,646,647
 11914 4958 11914 4958 11931 4991 c 0,648,649
 11948 5026 11948 5026 11948 5167 c 0,650,651
 11948 5238 11948 5238 11932 5269 c 0,652,653
 11914 5296 11914 5296 11876 5296 c 0,638,639
12162 5611 m 1,654,-1
 12162 4843 l 1,655,-1
 11959 4843 l 1,656,-1
 11959 4906 l 1,657,658
 11928 4868 11928 4868 11883 4847 c 0,659,660
 11840 4827 11840 4827 11782 4827 c 0,661,662
 11732 4827 11732 4827 11699 4839 c 0,663,664
 11664 4850 11664 4850 11635 4873 c 0,665,666
 11606 4900 11606 4900 11594 4945 c 0,667,668
 11582 4991 11582 4991 11582 5115 c 0,669,670
 11582 5309 11582 5309 11626 5372 c 0,671,672
 11672 5433 11672 5433 11789 5433 c 0,673,674
 11840 5433 11840 5433 11875 5417 c 0,675,676
 11911 5402 11911 5402 11942 5367 c 1,677,-1
 11942 5611 l 1,678,-1
 12162 5611 l 1,654,-1
12513 5131 m 0,679,680
 12513 5012 12513 5012 12528 4979 c 0,681,682
 12543 4948 12543 4948 12583 4948 c 256,683,684
 12623 4948 12623 4948 12638 4978 c 0,685,686
 12653 5009 12653 5009 12653 5131 c 0,687,688
 12653 5252 12653 5252 12638 5284 c 0,689,690
 12623 5314 12623 5314 12583 5314 c 0,691,692
 12542 5314 12542 5314 12528 5283 c 0,693,694
 12513 5249 12513 5249 12513 5131 c 0,679,680
12290 5131 m 0,695,696
 12290 5299 12290 5299 12357 5368 c 0,697,698
 12424 5435 12424 5435 12583 5435 c 0,699,700
 12743 5435 12743 5435 12810 5368 c 0,701,702
 12876 5300 12876 5300 12876 5131 c 256,703,704
 12876 4962 12876 4962 12810 4896 c 0,705,706
 12743 4828 12743 4828 12583 4828 c 0,707,708
 12421 4828 12421 4828 12357 4895 c 0,709,710
 12290 4962 12290 4962 12290 5131 c 0,695,696
13633 5311 m 1,711,-1
 13649 5311 l 2,712,713
 13720 5311 13720 5311 13756 5333 c 0,714,715
 13790 5355 13790 5355 13790 5401 c 0,716,717
 13790 5442 13790 5442 13756 5463 c 0,718,719
 13719 5485 13719 5485 13659 5485 c 0,720,721
 13653 5485 13653 5485 13649.5 5485 c 128,-1,722
 13646 5485 13646 5485 13643 5485 c 0,723,724
 13637 5485 13637 5485 13634 5483 c 2,725,-1
 13633 5311 l 1,711,-1
13633 4979 m 1,726,-1
 13654 4979 l 2,727,728
 13732 4979 13732 4979 13770 5005 c 0,729,730
 13809 5032 13809 5032 13809 5084 c 0,731,732
 13809 5132 13809 5132 13770 5156 c 0,733,734
 13733 5178 13733 5178 13650 5178 c 2,735,-1
 13633 5178 l 1,736,-1
 13633 4979 l 1,726,-1
13388 4843 m 1,737,-1
 13388 5611 l 1,738,-1
 13651 5611 l 2,739,740
 13761 5611 13761 5611 13824 5604 c 0,741,742
 13875 5596 13875 5596 13914 5580 c 0,743,744
 13968 5556 13968 5556 13999 5514 c 0,745,746
 14028 5474 14028 5474 14028 5417 c 0,747,748
 14028 5368 14028 5368 14001 5329 c 0,749,750
 13973 5289 13973 5289 13915 5253 c 1,751,752
 13985 5227 13985 5227 14021 5183 c 0,753,754
 14056 5137 14056 5137 14056 5076 c 0,755,756
 14056 5024 14056 5024 14032 4979 c 0,757,758
 14007 4931 14007 4931 13965 4901 c 0,759,760
 13924 4869 13924 4869 13865 4856 c 0,761,762
 13807 4843 13807 4843 13680 4843 c 2,763,-1
 13388 4843 l 1,737,-1
14181 4843 m 1,764,-1
 14181 5419 l 1,765,-1
 14383 5419 l 1,766,-1
 14383 5339 l 1,767,768
 14419 5382 14419 5382 14462 5404 c 0,769,770
 14508 5428 14508 5428 14559 5431 c 1,771,-1
 14559 5249 l 1,772,773
 14549 5250 14549 5250 14525 5253 c 0,774,775
 14514 5254 14514 5254 14495 5254 c 0,776,777
 14442 5254 14442 5254 14420 5226 c 0,778,779
 14400 5199 14400 5199 14400 5120 c 2,780,-1
 14400 4843 l 1,781,-1
 14181 4843 l 1,764,-1
15021 5121 m 1,782,783
 14934 5102 14934 5102 14897 5077 c 0,784,785
 14858 5052 14858 5052 14858 5013 c 0,786,787
 14858 4985 14858 4985 14876 4969 c 256,788,789
 14894 4953 14894 4953 14929 4953 c 0,790,791
 14979 4953 14979 4953 14999 4977 c 0,792,793
 15021 5002 15021 5002 15021 5057 c 2,794,-1
 15021 5121 l 1,782,783
15048 4843 m 1,795,-1
 15036 4896 l 1,796,797
 14993 4864 14993 4864 14945 4848 c 0,798,799
 14888 4831 14888 4831 14838 4831 c 0,800,801
 14745 4831 14745 4831 14691 4876 c 0,802,803
 14636 4920 14636 4920 14636 4995 c 0,804,805
 14636 5059 14636 5059 14683 5102 c 0,806,807
 14731 5145 14731 5145 14833 5175 c 0,808,809
 14981 5218 14981 5218 14902 5194 c 1,810,811
 15025 5225 15025 5225 15025 5268 c 0,812,813
 15025 5292 15025 5292 15007 5306 c 0,814,815
 14991 5319 14991 5319 14956 5319 c 0,816,817
 14913 5319 14913 5319 14897 5301 c 0,818,819
 14876 5283 14876 5283 14876 5247 c 2,820,-1
 14876 5243 l 1,821,-1
 14656 5243 l 1,822,823
 14656 5340 14656 5340 14731 5389 c 0,824,825
 14805 5436 14805 5436 14956 5436 c 0,826,827
 15024 5436 15024 5436 15078 5427 c 0,828,829
 15135 5415 15135 5415 15167 5400 c 0,830,831
 15215 5374 15215 5374 15232 5344 c 0,832,833
 15250 5312 15250 5312 15250 5226 c 2,834,-1
 15250 5210 l 1,835,-1
 15250 5004 l 2,836,837
 15250 4943 15250 4943 15257 4901 c 0,838,839
 15263 4864 15263 4864 15279 4843 c 1,840,-1
 15048 4843 l 1,795,-1
15347 5026 m 1,841,-1
 15544 5025 l 1,842,843
 15548 4980 15548 4980 15569 4960 c 0,844,845
 15588 4939 15588 4939 15630 4939 c 0,846,847
 15662 4939 15662 4939 15683 4954 c 0,848,849
 15705 4968 15705 4968 15705 4990 c 0,850,851
 15705 5008 15705 5008 15690 5022 c 0,852,853
 15672 5035 15672 5035 15624 5053 c 1,854,855
 15649 5045 15649 5045 15591 5064 c 0,856,857
 15470 5106 15470 5106 15424 5140 c 0,858,859
 15390 5164 15390 5164 15374 5196 c 0,860,861
 15356 5227 15356 5227 15356 5262 c 0,862,863
 15356 5341 15356 5341 15430 5389 c 0,864,865
 15503 5435 15503 5435 15627 5435 c 0,866,867
 15755 5435 15755 5435 15826 5390 c 0,868,869
 15895 5345 15895 5345 15895 5260 c 2,870,-1
 15895 5250 l 1,871,-1
 15702 5251 l 1,872,873
 15702 5292 15702 5292 15685 5313 c 0,874,875
 15667 5331 15667 5331 15631 5331 c 0,876,877
 15596 5331 15596 5331 15578 5318 c 0,878,879
 15558 5305 15558 5305 15558 5283 c 0,880,881
 15558 5246 15558 5246 15657 5213 c 1,882,883
 15783 5185 15783 5185 15678 5206 c 1,884,885
 15812 5162 15812 5162 15858 5120 c 0,886,887
 15904 5079 15904 5079 15904 5010 c 0,888,889
 15904 4922 15904 4922 15830 4876 c 0,890,891
 15756 4828 15756 4828 15620 4828 c 0,892,893
 15492 4828 15492 4828 15419 4876 c 0,894,895
 15347 4925 15347 4925 15347 5012 c 2,896,-1
 15347 5026 l 1,841,-1
16007 5477 m 1,897,-1
 16007 5616 l 1,898,-1
 16226 5616 l 1,899,-1
 16226 5477 l 1,900,-1
 16007 5477 l 1,897,-1
16007 4843 m 1,901,-1
 16007 5419 l 1,902,-1
 16226 5419 l 1,903,-1
 16226 4843 l 1,904,-1
 16007 4843 l 1,901,-1
16594 4843 m 1,905,-1
 16376 4843 l 1,906,-1
 16376 5611 l 1,907,-1
 16594 5611 l 1,908,-1
 16594 4843 l 1,905,-1
8115 6751 m 1,909,910
 8083 6510 8083 6510 7749 6371 c 0,911,912
 7415 6229 7415 6229 6876 6229 c 0,913,914
 6256 6229 6256 6229 5913 6424 c 0,915,916
 5569 6619 5569 6619 5569 6970 c 0,917,918
 5569 7328 5569 7328 5920 7520 c 0,919,920
 6271 7711 6271 7711 6928 7711 c 0,921,922
 7460 7711 7460 7711 7772 7580 c 0,923,924
 8081 7449 8081 7449 8112 7209 c 1,925,-1
 7545 7209 l 1,926,927
 7508 7328 7508 7328 7352 7390 c 0,928,929
 7192 7454 7192 7454 6928 7454 c 0,930,931
 6550 7454 6550 7454 6352 7330 c 0,932,933
 6155 7207 6155 7207 6155 6970 c 0,934,935
 6155 6740 6155 6740 6351 6616 c 0,936,937
 6546 6491 6546 6491 6909 6491 c 0,938,939
 7171 6491 7171 6491 7337 6558 c 256,940,941
 7503 6625 7503 6625 7553 6751 c 1,942,-1
 8115 6751 l 1,909,910
9150 7024 m 1,943,-1
 9705 7024 l 2,944,945
 9932 7024 9932 7024 10032 7071 c 0,946,947
 10135 7120 10135 7120 10135 7227 c 0,948,949
 10135 7325 10135 7325 10035 7379 c 1,950,951
 9929 7430 9929 7430 9734 7430 c 2,952,-1
 9150 7430 l 1,953,-1
 9150 7024 l 1,943,-1
9145 6769 m 1,954,-1
 9145 6268 l 1,955,-1
 8572 6268 l 1,956,-1
 8572 7675 l 1,957,-1
 9812 7675 l 2,958,959
 10249 7675 10249 7675 10478 7560 c 0,960,961
 10705 7444 10705 7444 10705 7222 c 0,962,963
 10705 7004 10705 7004 10483 6887 c 0,964,965
 10263 6769 10263 6769 9850 6769 c 2,966,-1
 9145 6769 l 1,954,-1
11656 7060 m 1,967,-1
 12331 7060 l 2,968,969
 12552 7060 12552 7060 12654 7105 c 0,970,971
 12757 7148 12757 7148 12757 7246 c 0,972,973
 12757 7336 12757 7336 12657 7385 c 0,974,975
 12557 7432 12557 7432 12358 7432 c 2,976,-1
 11656 7432 l 1,977,-1
 11656 7060 l 1,967,-1
11082 6268 m 1,978,-1
 11082 7675 l 1,979,-1
 12436 7675 l 2,980,981
 12890 7675 12890 7675 13111 7576 c 0,982,983
 13331 7476 13331 7476 13331 7275 c 0,984,985
 13331 7145 13331 7145 13224 7061 c 0,986,987
 13115 6973 13115 6973 12916 6944 c 1,988,989
 13097 6910 13097 6910 13175 6844 c 0,990,991
 13251 6776 13251 6776 13263 6635 c 2,992,-1
 13274 6470 l 2,993,994
 13274 6468 13274 6468 13274 6466.5 c 128,-1,995
 13274 6465 13274 6465 13274 6463 c 0,996,997
 13278 6336 13278 6336 13383 6312 c 1,998,-1
 13383 6268 l 1,999,-1
 12753 6268 l 1,1000,1001
 12725 6295 12725 6295 12706 6341 c 1,1002,1003
 12689 6396 12689 6396 12687 6444 c 2,1004,-1
 12680 6593 l 2,1005,1006
 12670 6723 12670 6723 12582 6769 c 0,1007,1008
 12491 6815 12491 6815 12265 6815 c 2,1009,-1
 11656 6815 l 1,1010,-1
 11656 6268 l 1,1011,-1
 11082 6268 l 1,978,-1
13775 6268 m 1,1012,-1
 13775 7675 l 1,1013,-1
 14624 7675 l 1,1014,-1
 15178 6604 l 1,1015,-1
 15726 7675 l 1,1016,-1
 16578 7675 l 1,1017,-1
 16578 6268 l 1,1018,-1
 16040 6268 l 1,1019,-1
 16040 7403 l 1,1020,-1
 15474 6268 l 1,1021,-1
 14886 6268 l 1,1022,-1
 14312 7403 l 1,1023,-1
 14312 6268 l 1,1024,-1
 13775 6268 l 1,1012,-1
EndSplineSet
Validated: 5
EndChar

